<?xml version="1.0" encoding="UTF-8"?>
<svg width="30px" height="34px" viewBox="0 0 30 34" version="1.1" xmlns="http://www.w3.org/2000/svg" xmlns:xlink="http://www.w3.org/1999/xlink">
    <!-- Generator: Sketch 44.1 (41455) - http://www.bohemiancoding.com/sketch -->
    <title>replay</title>
    <desc>Created with Sketch.</desc>
    <defs></defs>
    <g id="Page-1" stroke="none" stroke-width="1" fill="none" fill-rule="evenodd">
        <g id="8表单_所有控件_编辑2" transform="translate(-608.000000, -1904.000000)" fill-rule="nonzero" fill="#37ABFD">
            <g id="子表" transform="translate(24.000000, 1881.000000)">
                <g id="Group" transform="translate(24.000000, 18.000000)">
                    <g id="replay" transform="translate(560.000000, 5.000000)">
                        <path d="M22.4749225,0 L9.63208866,0 C7.36745742,0 5.35117669,2.06232807 5.35117669,4.2500243 L4.11397806,4.2787049 C1.85042408,4.2787049 -1.22408027e-05,6.31230377 -1.22408027e-05,8.5 L-1.22408027e-05,29.7500243 C-1.22408027e-05,31.9377205 2.01631746,34 4.2809487,34 L20.3344665,34 C22.5990488,34 24.6153785,31.9377205 24.6153785,29.7500243 L25.6856065,29.7500243 C27.9502377,29.7500243 29.9665674,27.6877448 29.9665674,25.5000486 L29.9665674,8.52552085 L22.4749225,0 Z M20.3344665,31.8750608 L4.2809487,31.8750608 C3.15720197,31.8750608 2.14049271,30.8327891 2.14049271,29.7500243 L2.14049271,8.5 C2.14049271,7.41733246 3.05555064,6.41006081 4.17929736,6.41006081 L5.35117669,6.37501215 L5.35117669,25.5000486 C5.35117669,27.6877448 7.36745742,29.7500243 9.63208866,29.7500243 L22.4749225,29.7500243 C22.4749225,30.8327405 21.4581643,31.8750608 20.3344665,31.8750608 L20.3344665,31.8750608 Z M27.8261114,25.5000486 C27.8261114,26.5826675 26.8093532,27.6249878 25.6856065,27.6249878 L9.63208866,27.6249878 C8.50834194,27.6249878 7.49163268,26.5827162 7.49163268,25.5000486 L7.49163268,4.2500243 C7.49163268,3.16735676 8.50834194,2.12503646 9.63208866,2.12503646 L20.3344665,2.12503646 C20.3172798,4.57197595 20.3344665,6.40160244 20.3344665,6.40160244 C20.3344665,8.6094723 22.335764,10.6250365 24.6153785,10.6250365 L27.8261114,10.6250365 L27.8261114,25.5000486 L27.8261114,25.5000486 Z M24.6153785,8.5 C23.4756202,8.5 22.4749225,6.4440886 22.4749225,5.34119882 L22.4749225,2.15580732 L27.8261114,8.5 L24.6153785,8.5 Z M22.4749225,14.8941649 L12.8428216,14.8941649 C12.2520589,14.8941649 11.7725936,15.3690959 11.7725936,15.9555894 C11.7725936,16.542083 12.2520589,17.0170139 12.8428216,17.0170139 L22.4749225,17.0170139 C23.0656852,17.0170139 23.5451505,16.5420343 23.5451505,15.9555894 C23.5451505,15.3690959 23.0656852,14.8941649 22.4749225,14.8941649 L22.4749225,14.8941649 Z M22.4749225,20.2013359 L12.8428216,20.2013359 C12.2520589,20.2013359 11.7725936,20.6762669 11.7725936,21.2627118 C11.7725936,21.849254 12.2520589,22.3241849 12.8428216,22.3241849 L22.4749225,22.3241849 C23.0656852,22.3241849 23.5451505,21.849254 23.5451505,21.2627118 C23.5451505,20.6762669 23.0656852,20.2013359 22.4749225,20.2013359 Z" id="Shape"></path>
                    </g>
                </g>
            </g>
        </g>
    </g>
</svg>