<?xml version="1.0" encoding="UTF-8"?>
<svg width="36px" height="36px" viewBox="0 0 36 36" version="1.1" xmlns="http://www.w3.org/2000/svg" xmlns:xlink="http://www.w3.org/1999/xlink">
    <!-- Generator: Sketch 44.1 (41455) - http://www.bohemiancoding.com/sketch -->
    <title>shanchu</title>
    <desc>Created with Sketch.</desc>
    <defs></defs>
    <g id="Page-1" stroke="none" stroke-width="1" fill="none" fill-rule="evenodd">
        <g id="8表单_所有控件_编辑2" transform="translate(-661.000000, -1903.000000)" stroke="#FF4141" stroke-width="0.4" fill="#FF4141">
            <g id="子表" transform="translate(24.000000, 1881.000000)">
                <g id="Group" transform="translate(24.000000, 18.000000)">
                    <g id="shanchu" transform="translate(610.000000, 1.000000)">
                        <path d="M16.2777686,32.3333472 L18.1666528,32.3333472 L18.1666528,13.4444629 L16.2777686,13.4444629 L16.2777686,32.3333472 Z M23.8333472,32.3333472 L25.7222314,32.3333472 L25.7222314,13.4444629 L23.8333472,13.4444629 L23.8333472,32.3333472 Z M32.3333472,9.66665283 L9.66665283,9.66665283 L9.66665283,34.2222314 C9.66665283,35.0760083 10.7017603,36.1110742 11.5555371,36.1110742 L30.4444629,36.1110742 C31.2982397,36.1110742 32.3333472,35.0760083 32.3333472,34.2222314 L32.3333472,9.66665283 Z M21,5.88888428 C20.4786694,5.88888428 20.0555371,6.3120166 20.0555371,6.83334717 C20.0555371,7.35467773 20.4786694,7.77776855 21,7.77776855 C21.5213306,7.77776855 21.9444629,7.35467773 21.9444629,6.83334717 C21.9444629,6.3120166 21.5213306,5.88888428 21,5.88888428 L21,5.88888428 Z M37.0555371,9.66665283 L34.2222314,9.66665283 L34.2222314,35.1666943 C34.2222314,36.8732935 33.096438,38 31.3888843,38 L10.6111157,38 C8.9045166,38 7.77776855,36.8732935 7.77776855,35.1666943 L7.77776855,9.66665283 L4.94442139,9.66665283 C4.09068604,9.66665283 4,9.22181396 4,8.72223145 C4,8.25282227 4.09068604,7.77776855 4.94442139,7.77776855 L18.1666528,7.77776855 L18.1666528,5.88888428 C18.1666528,5.03510742 19.2017603,4 20.0555371,4 L21.9444629,4 C22.7982397,4 23.8333472,5.12388428 23.8333472,5.88888428 L23.8333472,7.77776855 L37.0555371,7.77776855 C37.909314,7.77776855 38,8.22260742 38,8.72223145 C38,9.25111572 37.909314,9.66665283 37.0555371,9.66665283 L37.0555371,9.66665283 Z" id="删除icon"></path>
                    </g>
                </g>
            </g>
        </g>
    </g>
</svg>