<?xml version="1.0" encoding="UTF-8"?>
<svg width="62px" height="62px" viewBox="0 0 62 62" version="1.1" xmlns="http://www.w3.org/2000/svg" xmlns:xlink="http://www.w3.org/1999/xlink">
    <!-- Generator: Sketch 44.1 (41455) - http://www.bohemiancoding.com/sketch -->
    <title>NUKNOW</title>
    <desc>Created with Sketch.</desc>
    <defs></defs>
    <g id="Page-1" stroke="none" stroke-width="1" fill="none" fill-rule="evenodd">
        <g id="9流程详情页_进行中" transform="translate(-36.000000, -1887.000000)">
            <g id="Group-4" transform="translate(0.000000, 428.000000)">
                <g id="NUKNOW" transform="translate(36.000000, 1459.000000)">
                    <g id="Group-8">
                        <path d="M43.4436508,-5.42101086e-20 L6,-5.42101086e-20 L6,8.8817842e-16 C2.6862915,1.49690373e-15 -4.05812251e-16,2.6862915 0,6 L0,6 L8.8817842e-16,56 C1.29399067e-15,59.3137085 2.6862915,62 6,62 L56,62 C59.3137085,62 62,59.3137085 62,56 L62,18.5563492 L43.4436508,9.99200722e-16 Z" id="Combined-Shape" fill="#CCCCCC"></path>
                        <g id="问号" transform="translate(20.000000, 14.000000)" fill-rule="nonzero" fill="#FFFFFF">
                            <path d="M18.0109964,3.13590796 C19.7281514,4.70147385 20.5867064,6.90480389 20.5867064,9.68798158 C20.5867064,11.7174711 20.0143214,13.572847 18.8695963,15.1384129 C18.4116883,15.6602531 17.1524863,16.8779558 15.0919003,18.7334228 C14.1189132,19.545255 13.4320512,20.3569962 12.9741881,21.2267449 C12.401848,22.2124632 12.1155881,23.6905401 12.1155881,25.0243489 L12.1155881,26.0679836 L8.93412457,26.0679836 L8.93412457,25.0243489 C8.93412457,23.4586465 9.22033952,21.8065471 9.79272451,20.6469428 C10.3650646,19.3133159 12.2697211,17.3337812 14.7881702,15.0724891 C15.4177712,14.4346794 16.0227164,14.0493276 16.4234083,13.5275329 C17.3391794,12.3678377 17.6949608,11.0921728 17.6949608,9.81659902 C17.6949608,7.96108657 17.1349711,6.5570318 16.1046332,5.51330604 C15.0171242,4.41161827 12.3163832,3.61680161 10.3130582,3.61680161 C8.02360802,3.61680161 6.17172138,4.64351183 5.08425725,6.15116119 C4.11122522,7.48474253 3.4612797,9.28224747 3.4612797,11.543585 L0.381942734,11.543585 C0.381942734,8.29652922 1.29775873,5.68723759 3.1293458,3.7158011 C5.01819383,1.6864026 7.59385894,0.642722339 10.856386,0.642722339 C13.9471303,0.642631347 16.2937965,1.45437255 18.0109964,3.13590796 L18.0109964,3.13590796 Z M10.27951,29.9096733 C9.55698902,29.9096733 9.02713432,30.1536688 8.59365767,30.5928426 C8.11199199,31.0318798 7.8711816,31.5686427 7.8711816,32.2517664 C7.8711816,32.8860729 8.1120369,33.4716075 8.59365767,33.9595531 C9.02713432,34.3986813 9.60513314,34.6427223 10.27951,34.6427223 C10.9055631,34.6427223 11.4354627,34.3987268 11.9652276,33.9595531 C12.3987042,33.5205158 12.6396045,32.9349357 12.6396045,32.2517664 C12.6396045,31.617551 12.3987492,31.0318798 11.9651827,30.5928426 C11.483517,30.1537143 10.9537521,29.9096733 10.2794202,29.9096733 L10.27951,29.9096733 L10.27951,29.9096733 Z" id="Shape"></path>
                        </g>
                        <path d="M43.1227006,-2.7000624e-13 L43,-2.7000624e-13 L43,13.2512627 C43,16.5649712 45.6862915,19.2512627 49,19.2512627 L49,19.2512627 L62,19.2512627 L62,18.8772994 L43.1227006,-2.67730282e-13 Z" id="Combined-Shape" fill="#AFAFAF"></path>
                    </g>
                </g>
            </g>
        </g>
    </g>
</svg>