<?xml version="1.0" encoding="UTF-8"?>
<svg width="33px" height="38px" viewBox="0 0 33 38" version="1.1" xmlns="http://www.w3.org/2000/svg" xmlns:xlink="http://www.w3.org/1999/xlink">
    <!-- Generator: Sketch 44.1 (41455) - http://www.bohemiancoding.com/sketch -->
    <title>accessory_icon</title>
    <desc>Created with Sketch.</desc>
    <defs></defs>
    <g id="Page-1" stroke="none" stroke-width="1" fill="none" fill-rule="evenodd">
        <g id="5表单_所有控件_编辑1" transform="translate(-693.000000, -1222.000000)" fill="#BDBDBD">
            <g id="单行表单_文本-copy-15" transform="translate(0.000000, 1194.000000)">
                <path d="M719.913853,29.0144711 C724.046158,31.1047021 725.45292,35.6584105 722.991072,39.167184 L711.869007,55.1050861 C710.242479,57.4566154 706.681615,58.2404069 703.912142,56.8593696 C701.142608,55.478384 700.219491,52.4549082 701.845958,50.1034305 L710.726063,37.3379932 C711.121667,36.7408507 712.044723,36.5542533 712.704266,36.8901492 C713.407678,37.2260451 713.627444,38.0099398 713.231719,38.5697835 L704.351857,51.3352723 C703.516598,52.4923102 704.000304,54.0226459 705.362954,54.7317882 C706.725665,55.440982 708.528032,55.03054 709.363291,53.8732958 L720.485416,37.9353937 C722.111884,35.5838129 721.188827,32.5604918 718.419172,31.1794546 C715.64976,29.7984174 712.088835,30.5821573 710.462367,32.9337897 L697.14221,52.0819714 C694.680484,55.5904353 696.087185,60.1441437 700.219491,62.2344263 C704.351797,64.324709 709.714966,63.1302175 712.176875,59.6215988 L723.298818,43.6836968 C723.694422,43.0863995 724.617661,42.8998021 725.277143,43.235698 C725.980494,43.5717487 726.200261,44.3555402 725.804596,44.915487 L714.68247,60.8534923 C711.429413,65.5565508 704.263938,67.124237 698.72481,64.3248637 C693.185803,61.5627893 691.339386,55.4787451 694.636433,50.775635 L707.956468,31.6275565 C710.374327,28.1188862 715.737496,26.9618484 719.913853,29.0146774 L719.913853,29.0144711 L719.913853,29.0144711 Z" id="accessory_icon"></path>
            </g>
        </g>
    </g>
</svg>