<?xml version="1.0" encoding="UTF-8"?>
<svg width="62px" height="62px" viewBox="0 0 62 62" version="1.1" xmlns="http://www.w3.org/2000/svg" xmlns:xlink="http://www.w3.org/1999/xlink">
    <!-- Generator: Sketch 44.1 (41455) - http://www.bohemiancoding.com/sketch -->
    <title>PDF</title>
    <desc>Created with Sketch.</desc>
    <defs></defs>
    <g id="Page-1" stroke="none" stroke-width="1" fill="none" fill-rule="evenodd">
        <g id="9流程详情页_进行中" transform="translate(-36.000000, -1655.000000)">
            <g id="Group-4" transform="translate(0.000000, 428.000000)">
                <g id="Group-5" transform="translate(28.000000, 1217.000000)">
                    <g id="PDF" transform="translate(8.000000, 10.000000)">
                        <rect id="Rectangle-7" fill="#E53C3C" x="0" y="0" width="62" height="62" rx="6"></rect>
                        <g id="pdf-(1)" transform="translate(13.000000, 13.000000)" fill-rule="nonzero" fill="#FFFFFF">
                            <path d="M31.8194196,27.6160629 C29.0226405,27.4298767 26.3596135,26.3472942 24.2232471,24.5280419 C20.0165647,25.4528965 16.0141804,26.7905216 12.0117961,28.4385007 C8.82969935,34.0993552 5.85190065,36.9825426 3.28579346,36.9825426 C2.77195294,36.9825426 2.1559634,36.8801258 1.7442719,36.569772 C0.669101233,36.0664222 -0.0126233345,34.9786312 0.00154771242,33.7890013 C0.00154771242,32.8641468 0.205845752,30.2913132 9.95643399,26.0736042 C12.1687183,22.0021659 13.9898036,17.729012 15.3950954,13.3118532 C14.1662118,10.8414364 11.4948601,4.77091481 13.3428288,1.68289384 C13.9588183,0.550102228 15.1907974,-0.0675019659 16.5249255,0.03491481 C17.572191,0.0456267942 18.5562752,0.538958664 19.1931817,1.37253997 C20.5273098,3.22535256 20.4220654,7.13581127 18.6824366,12.8990826 C20.3256615,15.9837689 22.477404,18.7675901 25.0466301,21.1327706 C27.2010458,20.7231035 29.3585569,20.4127497 31.5129725,20.4127497 C36.3387399,20.5151664 37.0568784,22.7838532 36.9547294,24.1152713 C36.951634,27.6160629 33.5621438,27.6160629 31.8194196,27.6160629 L31.8194196,27.6160629 Z M3.08149542,33.9969384 L3.38794248,33.8945216 C4.82421961,33.3793342 5.95404967,32.3520629 6.77433725,31.0113342 C5.23281569,31.6320419 4.00393203,32.6562097 3.08149542,33.9969384 L3.08149542,33.9969384 Z M16.732319,3.12293578 L16.4227765,3.12293578 C16.3206275,3.12293578 16.113234,3.12293578 16.011085,3.22535256 C15.6024889,4.97574836 15.9089359,6.82856094 16.6301699,8.47653997 C17.2249837,6.74719547 17.2607284,4.87382435 16.732319,3.12293578 Z M17.4504575,18.0447497 L17.3483085,18.2526868 L17.2430641,18.1471664 C16.3206275,20.5151664 15.2929464,22.8800629 14.1631163,25.1456461 L14.3674144,25.0432294 L14.3674144,25.2480629 C16.6512676,24.4236414 18.9821344,23.7365392 21.3475974,23.1904168 L21.2485438,23.088 L21.5580863,23.088 C20.0166329,21.5556624 18.6398786,19.8653158 17.4504575,18.0447497 L17.4504575,18.0447497 Z M31.4077281,23.5007706 C30.4852915,23.5007706 29.6650039,23.5007706 28.7425673,23.7056042 C29.7671529,24.2176881 30.794834,24.4256252 31.8194196,24.5280419 C32.5375582,24.6304587 33.2587922,24.5280419 33.8716863,24.3232084 C33.8716863,24.0159581 33.4599948,23.5007706 31.4077281,23.5007706 Z" id="Shape"></path>
                        </g>
                    </g>
                </g>
            </g>
        </g>
    </g>
</svg>