<?xml version="1.0" encoding="UTF-8"?>
<svg width="62px" height="62px" viewBox="0 0 62 62" version="1.1" xmlns="http://www.w3.org/2000/svg" xmlns:xlink="http://www.w3.org/1999/xlink">
    <!-- Generator: Sketch 46.2 (44496) - http://www.bohemiancoding.com/sketch -->
    <title>picture</title>
    <desc>Created with Sketch.</desc>
    <defs></defs>
    <g id="Page-1" stroke="none" stroke-width="1" fill="none" fill-rule="evenodd">
        <g id="8表单_所有控件_输入状态" transform="translate(-40.000000, -1316.000000)" fill-rule="nonzero" fill="#77BCFA">
            <g id="picture" transform="translate(40.000000, 1316.000000)">
                <path d="M58.0810126,54.1757469 C58.0810126,56.3112846 56.3441369,58.043904 54.2132101,58.043904 L44.2204117,58.043904 L29.9710799,43.6055269 L46.4768958,27.0975828 L58.0813672,38.7031183 L58.0813672,54.1757469 L58.0810126,54.1757469 L58.0810126,54.1757469 Z M7.79603379,58.0442587 C5.66510695,58.0442587 3.92787665,56.3116392 3.92787665,54.1761015 L3.92787665,52.3583585 L19.2909086,38.6006153 L38.7448377,58.0442587 L7.79603379,58.0442587 Z M15.5344762,7.75927991 C19.8055516,7.75927991 23.2661796,11.2223907 23.2661796,15.4934661 C23.2661796,19.7691524 19.8055516,23.2297804 15.5344762,23.2297804 C11.2612727,23.2297804 7.79603379,19.7691524 7.79603379,15.4934661 C7.79603379,11.222036 11.2612727,7.75927991 15.5344762,7.75927991 Z M54.2128554,0.0229656313 L7.79603379,0.0229656313 C3.52495839,0.0229656313 0.0597195084,3.48607642 0.0597195084,7.75927991 L0.0597195084,54.1761015 C0.0597195084,58.4471769 3.52495839,61.9081596 7.79603379,61.9081596 L54.2128554,61.9081596 C58.4839308,61.9081596 61.9491697,58.4471769 61.9491697,54.1761015 L61.9491697,7.75927991 C61.9491697,3.48572174 58.4839308,0.0229656313 54.2128554,0.0229656313 Z" id="Shape"></path>
            </g>
        </g>
    </g>
</svg>