<?xml version="1.0" standalone="no"?>
<!DOCTYPE svg PUBLIC "-//W3C//DTD SVG 1.1//EN" "http://www.w3.org/Graphics/SVG/1.1/DTD/svg11.dtd" >
<svg xmlns="http://www.w3.org/2000/svg">
<metadata>Generated by IcoMoon</metadata>
<defs>
<font id="icomoon" horiz-adv-x="1024">
<font-face units-per-em="1024" ascent="960" descent="-64" />
<missing-glyph horiz-adv-x="1024" />
<glyph unicode="&#x20;" horiz-adv-x="512" d="" />
<glyph unicode="&#xe900;" glyph-name="report-pie" d="M481.897 131.913c-166.262 0-301.035 134.773-301.035 301.035s134.773 301.035 301.035 301.035c10.175 0 20.199-0.542 30.103-1.505v60.207c-9.964 0.813-19.929 1.505-30.103 1.505-199.496 0-361.242-161.746-361.242-361.242s161.746-361.242 361.242-361.242c199.496 0 361.242 161.746 361.242 361.242h-60.207c0-166.262-134.773-301.035-301.035-301.035zM542.103 824.294v-361.242h361.242c0 0-17.099 357.93-361.242 361.242z" />
<glyph unicode="&#xe901;" d="M704.542 292.847c0 0-85.855 205.848-377.498 215.119l-7.767 115.838-228.786-183.21 253.471-177.189-6.803 96.993c0 0 262.623 43.77 367.383-67.552z" />
<glyph unicode="&#xe902;" d="M933.449 809.242h-541.863v-120.414h541.863v120.414z" />
<glyph unicode="&#xe903;" d="M451.793 749.035v0zM512 809.242h-120.414v-240.828h120.414v240.828z" />
<glyph unicode="&#xe904;" d="M873.242 628.621v0zM933.449 688.828h-120.414v-541.863h120.414v541.863z" />
<glyph unicode="&#xe905;" d="M933.449 207.172h-541.863v-120.414h541.863v120.414z" />
<glyph unicode="&#xe906;" glyph-name="export-excel" d="M153.6 731.341v-554.701l411.341-68.301v694.682l-411.341-71.68zM394.24 330.035l-34.099 76.288-34.202-76.288h-52.838l62.771 130.253-52.531 117.453h44.339l32.461-67.174 32.358 67.174h44.442l-52.634-117.453 62.874-130.253h-52.941zM581.437 723.63h296.96v-40.96h-296.96v40.96zM837.437 720.425h40.96v-531.2h-40.96v531.2zM581.437 230.185h296.96v-40.96h-296.96v40.96zM590.725 621.435h246.723v-22.19h-246.723v22.19zM590.725 434.555h246.723v-22.19h-246.723v22.19zM590.725 341.115h246.723v-22.19h-246.723v22.19zM590.725 533.545h246.723v-22.19h-246.723v22.19z" />
<glyph unicode="&#xe907;" glyph-name="import" d="M692.681 385.084l-224.572 184.173-7.646-116.44c-286.284-9.332-370.574-216.203-370.574-216.203 102.833 111.865 360.64 67.853 360.64 67.853l-6.683-97.475 248.835 178.092zM873.242 749.035v0zM451.793 749.035v0zM933.449 809.242h-541.863v-240.828h120.414v120.414h301.035v-481.656h-421.449v-120.414h541.863v722.484z" />
<glyph unicode="&#xe908;" glyph-name="report-combined" d="M707.673 222.224h-391.345c-15.443 0-27.936-12.643-27.936-28.237s12.523-28.207 27.936-28.207h391.345c15.443 0 27.966 12.643 27.966 28.207-0.030 15.594-12.523 28.237-27.966 28.237zM791.541 786.664h-83.868v56.444h-75.289c-24.203 33.595-68.786 56.444-120.384 56.444s-96.181-22.849-120.384-56.444h-75.289v-56.444h-83.868c-61.742 0-111.804-50.544-111.804-112.888v-564.44c0-62.344 50.062-112.888 111.804-112.888h559.082c61.742 0 111.804 50.544 111.804 112.888v564.44c0 62.344-50.062 112.888-111.804 112.888zM372.23 786.664h62.103c0 31.157 34.77 56.444 77.637 56.444s77.637-25.287 77.637-56.444h62.134v-112.888h-279.541v112.888zM847.443 109.336c0-31.157-25.016-56.444-55.902-56.444h-559.082c-30.886 0-55.902 25.287-55.902 56.444v564.44c0 31.157 25.016 56.444 55.902 56.444h83.868v-112.888h391.345v112.888h83.868c30.886 0 55.902-25.287 55.902-56.444v-564.44zM707.673 504.444h-391.345c-15.443 0-27.936-12.643-27.936-28.237s12.523-28.207 27.936-28.207h391.345c15.443 0 27.966 12.643 27.966 28.207-0.030 15.594-12.523 28.237-27.966 28.237zM707.673 363.349h-391.345c-15.443 0-27.936-12.643-27.936-28.237s12.523-28.207 27.936-28.207h391.345c15.443 0 27.966 12.643 27.966 28.207-0.030 15.594-12.523 28.237-27.966 28.237z" />
<glyph unicode="&#xe909;" glyph-name="report-simpleboard" d="M726.457 682.325l-114.092-131.462-53.434 47.744c-4.997 4.455-12.553 4.425-17.52-0.030l-81.701-73.603-48.617 121.528c-1.656 4.154-5.358 7.165-9.784 7.977-4.455 0.843-8.971-0.692-12.011-4.004l-69.81-75.56h-94.826v-26.040h100.576c3.673 0 7.165 1.535 9.633 4.214l59.605 64.512 47.895-119.691c1.595-3.974 5.027-6.894 9.212-7.857 0.993-0.241 1.957-0.331 2.95-0.331 3.221 0 6.352 1.174 8.79 3.372l86.939 78.299 54.578-48.768c2.619-2.348 6.081-3.552 9.573-3.311 3.492 0.211 6.773 1.836 9.091 4.485l122.822 141.516c4.726 5.449 4.124 13.667-1.355 18.363-5.509 4.696-13.787 4.094-18.514-1.355zM903.466 327.556l-0.030 498.664c0 7.195-5.87 13.005-13.095 13.005h-756.41c-7.225 0-13.095-5.84-13.095-13.005l-0.060-498.664c289.204-0.753 361.242 0 361.242 0v-90.31l-150.517-150.517c-5.118-5.087 13.276-21.072 18.393-26.16s13.396-5.087 18.514 0l143.744 143.052 143.744-143.052c2.559-2.529 5.9-3.823 9.242-3.823s6.683 1.264 9.242 3.823c5.118 5.087 23.421 21.042 18.333 26.16l-150.517 150.517v90.31c0.030 0 301.065 1.806 361.272 0zM180.982 387.763v391.345h662.277v-391.345h-662.277z" />
<glyph unicode="&#xe90a;" glyph-name="arrow-right" d="M550.287 787.143l451.664-339.143-451.664-339.13v175.982h-537.081v326.297h537.081v175.995zM536.988 813.754v-189.307h-537.081v-352.894h537.081v-189.307l487.105 365.754-487.105 365.754z" />
<glyph unicode="&#xe90b;" glyph-name="report-radar" d="M512.12 749.035c165.991 0 301.035-135.044 301.035-301.035s-135.044-301.035-301.035-301.035-301.035 135.044-301.035 301.035 135.044 301.035 301.035 301.035zM512.12 809.242c-199.496 0-361.242-161.746-361.242-361.242s161.746-361.242 361.242-361.242 361.242 161.746 361.242 361.242-161.746 361.242-361.242 361.242v0zM482.017 899.552h60.207v-903.104h-60.207v903.104zM60.568 478.103h903.104v-60.207h-903.104v60.207z" />
<glyph unicode="&#xe90c;" glyph-name="report-funnel" d="M843.138 779.138v-80.888l-307.507-279.541v-301.878h-47.293v301.908l-307.507 279.541v80.858h662.307zM903.345 839.345h-782.69v-167.706l307.477-279.541v-335.443h167.706v335.443l307.477 279.541v167.706h0.030z" />
<glyph unicode="&#xe90d;" glyph-name="report-detail" d="M120.655 809.242v-722.484h782.69v722.484h-782.69zM602.31 143.804h-421.449v209.129h421.449v-209.129zM602.31 409.979h-421.449v190.134h421.449v-190.134zM843.138 143.804h-180.621v456.309h180.621v-456.309zM843.138 657.159h-662.277v95.067h662.277v-95.067z" />
<glyph unicode="&#xe90e;" glyph-name="report-sort" d="M288.604 771.963h53.996v-647.936h-53.996v647.936zM288.608 771.964l39.406-36.917-246.088-262.681-39.406 36.917 246.088 262.681zM303.024 735.073l39.406 36.917 246.088-262.681-39.406-36.917-246.088 262.681zM681.564 771.963h53.996v-647.936h-53.996v647.936zM435.515 386.743l39.406 36.917 246.088-262.681-39.406-36.917-246.088 262.681zM942.036 423.601l39.406-36.917-246.088-262.681-39.406 36.917 246.088 262.681z" />
<glyph unicode="&#xe90f;" glyph-name="privious" d="M80.282 513.772c-0.451-9.032 2.427-18.186 9.185-25.088l317.686-358.287c5.868-7.332 14.418-12.298 24.371-12.298 9.052 0 17.142 3.932 22.968 10.138 0.082 0.082 0.195 0.102 0.276 0.184 7.291 7.444 9.882 17.49 8.786 27.197 0 0 0.553 182.374 0.553 193.618 211.046 0 401.961-156.293 439.849-362.025 25.508 60.314 39.844 126.781 39.844 196.751 0 272.804-215.009 493.947-480.236 493.947v194.017c1.106 9.708-1.495 19.743-8.786 27.197-12.667 12.933-33.198 12.933-45.865 0l-319.447-360.253c-6.758-6.902-9.636-16.056-9.185-25.098zM154.624 513.772l244.89 276.183v-177.91c0 0 79.923 0.86 96.563 0.328 225.833-7.199 382.679-271.718 383.672-395.479-68.997 91.126-250.296 198.134-383.672 198.134-20.931 0.010-96.563-0.553-96.563-0.553v-176.876l-244.89 276.173z" />
<glyph unicode="&#xe910;" glyph-name="setting" d="M990.133 327.306l-79.279 46.149c4.44 24.234 7.36 48.994 7.36 74.537 0 25.558-2.92 50.319-7.36 74.552l79.279 46.149c32.377 18.845 43.47 60.599 24.776 93.247l-67.704 118.248c-18.695 32.648-60.102 43.846-92.479 24.986l-80.091-46.616c-37.419 32.121-79.956 58.372-127.234 75.245v57.92c0.015 37.705-30.3 68.276-67.704 68.276h-135.407c-37.389 0-67.704-30.571-67.704-68.276v-57.935c-47.278-16.873-89.815-43.124-127.234-75.245l-80.091 46.616c-32.377 18.845-73.785 7.661-92.479-24.986l-67.704-118.248c-18.695-32.648-7.601-74.402 24.776-93.247l79.279-46.149c-4.44-24.234-7.36-48.994-7.36-74.552 0-25.543 2.92-50.304 7.36-74.537l-79.264-46.134c-32.377-18.845-43.47-60.599-24.776-93.247l67.704-118.248c18.695-32.648 60.102-43.831 92.479-24.986l80.091 46.631c37.419-32.121 79.956-58.372 127.234-75.245v-57.935c0-37.705 30.315-68.276 67.704-68.276h135.407c37.389 0 67.704 30.571 67.704 68.276v57.935c47.278 16.873 89.815 43.124 127.234 75.245l80.091-46.631c32.377-18.845 73.785-7.661 92.479 24.986l67.704 118.248c18.679 32.648 7.586 74.402-24.791 93.247zM939.363 238.62l-33.852-59.124c-9.347-16.331-30.059-21.916-46.24-12.493l-94.045 54.744c-47.745-54.292-112.258-93.247-185.5-108.239v-75.124c0-18.845-15.157-34.123-33.852-34.123h-67.704c-18.695 0-33.852 15.278-33.852 34.123v75.124c-73.243 14.992-137.756 53.946-185.5 108.239l-94.045-54.744c-16.196-9.438-36.892-3.838-46.24 12.493l-33.852 59.124c-9.347 16.316-3.808 37.193 12.388 46.616l94.436 54.97c-11.244 33.957-17.987 69.992-17.987 107.772s6.728 73.83 17.987 107.787l-94.436 54.97c-16.196 9.423-21.735 30.3-12.388 46.631l33.852 59.124c9.347 16.316 30.059 21.916 46.24 12.493l94.045-54.759c47.745 54.307 112.258 93.247 185.5 108.254v75.124c0 18.86 15.157 34.123 33.852 34.123h67.704c18.695 0 33.852-15.278 33.852-34.123v-75.124c73.243-14.992 137.756-53.946 185.5-108.254l94.045 54.759c16.196 9.423 36.892 3.823 46.24-12.493l33.852-59.124c9.347-16.316 3.793-37.193-12.388-46.631l-94.436-54.97c11.244-33.957 17.987-69.992 17.987-107.772 0-37.765-6.728-73.815-17.987-107.772l94.436-54.97c16.181-9.423 21.735-30.3 12.388-46.631zM512.008 618.667c-93.473 0-169.259-76.404-169.259-170.674 0-94.24 75.787-170.659 169.259-170.659s169.259 76.419 169.259 170.659c-0.015 94.27-75.787 170.674-169.259 170.674zM512.008 345.609c-56.084 0-101.556 45.848-101.556 102.383 0 56.565 45.472 102.414 101.556 102.414s101.556-45.848 101.556-102.414c-0.015-56.55-45.472-102.383-101.556-102.383z" />
<glyph unicode="&#xe911;" glyph-name="collapse" d="M453.591 419.205l-258.386-0.010c-15.913 0-28.805-12.892-28.805-28.795 0-15.913 12.892-28.795 28.805-28.795h190.894l-195.809-195.809 40.735-40.735 195.482 195.482-0.901-189.358c0-15.903 12.892-28.795 28.805-28.795 15.903 0 28.805 12.892 28.805 28.795v259.215c0 8.53-3.533 15.411-9.103 20.152-5.233 5.325-12.472 8.653-20.521 8.653zM857.6 908.8h-691.2c-63.621 0-115.2-51.579-115.2-115.19v-691.21c0-63.631 51.579-115.2 115.2-115.2h691.2c63.631 0 115.2 51.569 115.2 115.2v691.21c0 63.611-51.569 115.19-115.2 115.19zM915.2 102.4c0-31.816-25.784-57.6-57.6-57.6h-691.2c-31.816 0-57.6 25.795-57.6 57.6v691.21c0 31.805 25.784 57.59 57.6 57.59h691.2c31.816 0 57.6-25.784 57.6-57.59v-691.21zM828.805 534.395l-190.904-0.010 195.809 195.809-40.724 40.735-195.492-195.482 0.911 189.348c0 15.903-12.902 28.805-28.805 28.805-15.913 0-28.805-12.902-28.805-28.805v-259.195c0-8.54 3.523-15.411 9.093-20.152 5.222-5.325 12.462-8.663 20.521-8.663l258.386 0.010c15.903 0 28.805 12.902 28.805 28.805s-12.892 28.795-28.795 28.795z" />
<glyph unicode="&#xe912;" glyph-name="next" d="M934.554 538.87l-319.427 360.243c-12.667 12.933-33.198 12.933-45.865 0-7.291-7.444-9.882-17.49-8.786-27.197v-194.007c-265.226 0-480.236-221.153-480.236-493.947 0-69.97 14.336-136.438 39.844-196.751 37.888 205.742 228.792 362.025 439.849 362.025 0-11.244 0.553-193.618 0.553-193.618-1.106-9.708 1.495-19.753 8.786-27.197 0.082-0.082 0.195-0.102 0.276-0.184 5.827-6.205 13.916-10.138 22.968-10.138 9.964 0 18.504 4.956 24.371 12.298l317.686 358.287c6.758 6.902 9.636 16.056 9.185 25.088 0.43 9.042-2.447 18.196-9.206 25.098zM624.507 237.599v176.876c0 0-75.633 0.563-96.563 0.553-133.376 0-314.685-107.008-383.672-198.124 0.993 123.771 157.839 388.28 383.672 395.479 16.64 0.532 96.563-0.328 96.563-0.328v177.91l244.89-276.183-244.89-276.183z" />
<glyph unicode="&#xe913;" glyph-name="new" horiz-adv-x="1025" d="M873.663 498.815h-310.487v310.427h-101.569v-310.427h-310.427v-101.629h310.427v-310.427h101.569v310.427h310.487z" />
<glyph unicode="&#xe914;" glyph-name="expand" d="M418.58 396.534l-137.615-137.626 0.635 73.892c0 15.903-12.892 28.795-28.805 28.795-15.903 0-28.795-12.892-28.795-28.795v-144.005c0-8.54 3.523-15.411 9.093-20.152 5.222-5.325 12.462-8.663 20.521-8.663h143.186c15.903 0 28.795 12.902 28.795 28.805s-12.892 28.795-28.795 28.795l-75.704-0.010 138.209 138.209-40.724 40.755zM396.8 678.4c15.903 0 28.795 12.892 28.795 28.805 0 15.903-12.892 28.795-28.795 28.795l-143.186 0.010c-8.049 0-15.288-3.338-20.521-8.663-5.571-4.731-9.093-11.612-9.093-20.152v-143.995c0-15.903 12.892-28.795 28.795-28.795 15.913 0 28.805 12.892 28.805 28.795l-0.645 73.892 137.615-137.615 40.735 40.735-138.209 138.189h75.704zM857.6 908.8h-691.2c-63.621 0-115.2-51.579-115.2-115.2v-691.2c0-63.631 51.579-115.2 115.2-115.2h691.2c63.621 0 115.2 51.569 115.2 115.2v691.2c0 63.621-51.579 115.2-115.2 115.2zM915.2 102.4c0-31.816-25.784-57.6-57.6-57.6h-691.2c-31.816 0-57.6 25.784-57.6 57.6v691.2c0 31.805 25.784 57.6 57.6 57.6h691.2c31.816 0 57.6-25.795 57.6-57.6v-691.2zM771.195 361.595c-15.903 0-28.795-12.892-28.795-28.795l0.635-73.892-137.615 137.626-40.735-40.735 138.209-138.209-75.694 0.010c-15.903 0-28.805-12.892-28.805-28.795s12.892-28.805 28.805-28.805h143.186c8.049 0 15.288 3.328 20.521 8.663 5.571 4.731 9.093 11.612 9.093 20.152v143.985c0 15.903-12.892 28.795-28.805 28.795zM770.386 736h-143.186c-15.903 0-28.805-12.892-28.805-28.795 0-15.913 12.892-28.805 28.805-28.805l75.694 0.010-138.199-138.209 40.735-40.735 137.615 137.615-0.645-73.882c0-15.903 12.892-28.795 28.795-28.795s28.805 12.892 28.805 28.795v143.995c0 8.54-3.533 15.411-9.103 20.152-5.222 5.325-12.462 8.653-20.511 8.653z" />
<glyph unicode="&#xe915;" glyph-name="report-line" d="M782.931 658.724l-120.414-361.242-150.517 541.863-150.517-421.449-90.31 120.414-150.517-150.517 30.103-60.207 90.31 90.31 150.517-180.621 120.414 331.138 150.517-511.759 120.414 391.345 60.207-150.517 60.207 30.103z" />
<glyph unicode="&#xe916;" glyph-name="report-bar" d="M301.347 297.447h120.442v-120.442h-120.442v120.442zM150.794 448h120.442v-30.111h-120.442v30.111zM150.794 387.779h120.442v-30.111h-120.442v30.111zM150.794 327.558h120.442v-30.111h-120.442v30.111zM150.794 267.337h120.442v-30.111h-120.442v30.111zM150.794 207.116h120.442v-30.111h-120.442v30.111zM482.010 568.442h120.442v-391.437h-120.442v391.437zM662.673 779.216h120.442v-602.211h-120.442v602.211zM813.226 839.437h60.221v-782.875h-60.221v782.875zM120.683 146.894h782.875v-60.221h-782.875v60.221z" />
<glyph unicode="&#xe917;" glyph-name="addcol" d="M558.715 908.605h296.96v-143.36h-296.96v143.36zM558.715 326.39h296.96v-143.36h-296.96v143.36zM558.715 130.56h296.96v-143.36h-296.96v143.36zM172.462 619.315h296.96v-143.36h-296.96v143.36zM507.689 572.365h348.16v-51.2h-348.16v51.2zM656.169 720.845h51.2v-348.16h-51.2v348.16z" />
<glyph unicode="&#xe918;" glyph-name="addrow" d="M589.445 908.8h307.2v-921.6h-307.2v921.6zM128 449.28h358.4v-51.2h-358.4v51.2zM281.6 602.88h51.2v-358.4h-51.2v358.4z" />
<glyph unicode="&#xe919;" glyph-name="search" d="M964.035 37.335l-237.947 234.158c62.3 67.707 100.588 157.225 100.588 255.754 0 210.739-173.609 381.573-387.748 381.573s-387.758-170.834-387.758-381.573c0-210.739 173.609-381.573 387.748-381.573 92.529 0 177.398 32 244.050 85.228l238.889-235.080c11.643-11.459 30.536-11.459 42.179 0 11.653 11.459 11.653 30.044 0 41.513zM438.927 204.37c-181.197 0-328.090 144.558-328.090 322.877s146.893 322.867 328.090 322.867 328.090-144.548 328.090-322.867-146.893-322.877-328.090-322.877z" />
<glyph unicode="&#xe91a;" glyph-name="edit-outline" horiz-adv-x="724" d="M183.485 401.239l-97.264-197.002c-8.146-22.143 9.594-42.053 31.737-31.736l196.82 97.383c8.507 1.63 16.713 4.948 23.29 11.525l349.654 349.896c17.559 17.559 17.559 46.037 0 63.595l-79.464 79.525c-17.559 17.559-46.039 17.559-63.596 0l-349.654-349.895c-6.575-6.578-9.834-14.843-11.523-23.29zM560.593 726.697c8.748 8.809 22.987 8.809 31.798 0l47.666-47.727c8.809-8.809 8.809-23.049 0-31.798l-47.666-47.727-78.318 80.671 46.52 46.581zM480.526 646.63l80.067-78.982-254.321-254.441c-29.807 29.807-71.018 71.019-79.464 79.526l253.718 253.898zM266.691 289.194l-121.58-73.612c-11.042-5.189-20.997 5.493-15.869 15.869l73.552 121.641 63.898-63.898zM678.793 538.506v-362.023c0-24.859-24.557-45.492-49.416-45.492h-539.474c-24.799 0-44.951 20.152-44.951 45.011v539.774c0 24.859 20.696 48.994 45.554 48.994h362.023v45.253h-362.023c-49.658 0-90.506-44.529-90.506-94.247v-539.838c0-49.657 40.245-89.962 89.902-89.962h539.474c49.657 0 94.668 40.849 94.668 90.506v362.023h-45.252z" />
<glyph unicode="&#xe91b;" glyph-name="department" d="M646.4 793.6c0 63.621-51.579 115.2-115.2 115.2s-115.2-51.579-115.2-115.2 51.579-115.2 115.2-115.2 115.2 51.579 115.2 115.2zM876.8 210.903v237.097h-307.2v230.4h-76.8v-230.4h-345.6v-237.097c-44.718-15.831-76.8-58.368-76.8-108.503 0-63.621 51.579-115.2 115.2-115.2s115.2 51.579 115.2 115.2c0 50.135-32.082 92.672-76.8 108.503v160.297h268.8v-160.297c-44.718-15.831-76.8-58.368-76.8-108.503 0-63.621 51.579-115.2 115.2-115.2s115.2 51.579 115.2 115.2c0 50.135-32.082 92.672-76.8 108.503v160.297h230.4v-160.297c-44.718-15.831-76.8-58.368-76.8-108.503 0-63.621 51.579-115.2 115.2-115.2s115.2 51.579 115.2 115.2c0 50.135-32.082 92.672-76.8 108.503z" />
<glyph unicode="&#xe91c;" glyph-name="face" horiz-adv-x="724" d="M314.782 537.792c0 25.926-21.024 46.94-46.94 46.94-25.926 0-46.94-21.013-46.94-46.94s21.013-46.94 46.94-46.94 46.94 21.014 46.94 46.94zM361.347 297.591c-37.554 0-71.717 22.205-87.025 56.561l-20.273-9.030c18.858-42.359 60.981-69.736 107.298-69.736 47.766 0 90.404 28.555 108.607 72.749l-20.519 8.464c-14.771-35.848-49.342-59.008-88.088-59.008zM465.695 584.732c-25.926 0-46.94-21.013-46.94-46.94s21.013-46.94 46.94-46.94c25.916 0 46.929 21.013 46.929 46.94 0 25.916-21.013 46.94-46.929 46.94zM362.001 745.696c-164.138 0-297.674-133.535-297.674-297.674s133.536-297.673 297.674-297.673c164.139 0 297.674 133.535 297.674 297.673s-133.534 297.674-297.674 297.674zM362.001 179.941c-147.812 0-268.079 120.255-268.079 268.070 0 147.823 120.255 268.079 268.079 268.079 147.812 0 268.069-120.255 268.069-268.079 0.011-147.813-120.246-268.070-268.069-268.070z" />
<glyph unicode="&#xe91d;" glyph-name="success-block" d="M511.808 959.616c-282.752 0-512-229.056-512-511.616s229.248-511.616 512.064-511.616c282.816 0 512.064 229.056 512.064 511.616-0.064 282.56-229.312 511.616-512.128 511.616zM864.704 544.448l-3.264-3.392c-4.864-7.168-11.008-13.312-17.856-18.56l-340.096-352.384h-57.344l-253.248 241.28c-14.464 14.272-23.424 34.112-23.424 56 0 43.52 35.328 78.848 78.912 78.848 12.672 0 24.448-3.264 35.008-8.512l0.128 0.064 0.32-0.32c14.336-7.296 26.048-18.688 33.728-32.832l125.952-122.688h43.968l251.904 255.616c14.272 15.36 34.496 25.152 57.152 25.152 43.2 0 78.208-35.008 78.208-78.144 0-13.824-3.904-26.624-10.24-37.952l0.192-2.176z" />
<glyph unicode="&#xe91e;" glyph-name="company" d="M849.92 355.041h-61.44v-62.403h61.44v62.403zM573.44 729.436h-122.88v-62.403h122.88v62.403zM849.92 479.846h-61.44v-62.403h61.44v62.403zM235.52 479.846h-61.44v-62.403h61.44v62.403zM235.52 604.641h-61.44v-62.403h61.44v62.403zM235.52 355.041h-61.44v-62.403h61.44v62.403zM573.44 355.041h-122.88v-62.403h122.88v62.403zM573.44 604.641h-122.88v-62.403h122.88v62.403zM727.040 604.641v249.6h-430.080v-124.805h-245.76v-686.397h921.6v561.603h-245.76zM296.96 105.441h-61.44v124.805h-61.44v-124.805h-61.44v561.603h184.32v-561.603zM665.6 105.441h-92.16v124.805h-122.88v-124.805h-92.16v686.397h307.2v-686.397zM911.36 105.441h-61.44v124.805h-61.44v-124.805h-61.44v436.797h184.32v-436.797zM573.44 479.846h-122.88v-62.403h122.88v62.403z" />
<glyph unicode="&#xe91f;" d="M0 960h1024v-1024h-1024v1024z" />
<glyph unicode="&#xe920;" d="M896 384h-768v-64h55.744l-47.232-48.384 203.264-208.128 67.712 69.376-182.72 187.136h671.232z" />
<glyph unicode="&#xe921;" d="M840.256 576l47.232 48.384-203.264 208.128-67.712-69.376 182.72-187.136h-671.232v-64h768v64z" />
<glyph unicode="&#xe922;" d="M0 960h1024v-1024h-1024v1024z" />
<glyph unicode="&#xe923;" d="M128 502.016h768v-108.032h-768v108.032z" />
<glyph unicode="&#xe924;" glyph-name="arrow-down" horiz-adv-x="731" d="M491.346 832.072v-413.553h135.516l-261.14-347.781-261.13 347.791h135.516v413.542h251.238zM501.586 842.312h-271.729v-413.553h-145.766l281.631-375.081 281.631 375.081h-145.766v413.553z" />
<glyph unicode="&#xe925;" glyph-name="close" d="M972.8 828.662l-80.138 80.138-380.662-380.662-380.662 380.662-80.138-80.138 380.662-380.662-380.662-380.662 80.138-80.138 380.662 380.662 380.662-380.662 80.138 80.138-380.662 380.662z" />
<glyph unicode="&#xe926;" glyph-name="instancestate" d="M122.358 579.656h558.49v-52.664c0-15.186 8.591-29.020 22.077-35.604 5.376-2.611 11.131-3.891 16.876-3.891 8.673 0 17.306 2.939 24.34 8.653l194.826 157.983c8.837 7.168 14.162 17.869 14.602 29.338 0.43 11.469-4.086 22.548-12.349 30.382l-194.826 184.32c-11.346 10.711-27.873 13.65-42.107 7.342-14.234-6.267-23.439-20.5-23.439-36.219v-52.664h-558.49c-21.524 0-38.963-17.674-38.963-39.496v-157.983c0-21.821 17.439-39.496 38.963-39.496zM161.321 737.638h558.49c21.524 0 38.963 17.684 38.963 39.496v1.27l96.317-91.126-96.317-78.1v9.974c0 21.811-17.439 39.496-38.963 39.496h-558.49v78.991zM901.642 316.344h-558.49v52.664c0 15.729-9.206 29.952-23.439 36.219-14.223 6.277-30.761 3.348-42.107-7.342l-194.816-184.32c-8.274-7.834-12.79-18.913-12.36-30.382s5.765-22.17 14.602-29.338l194.826-157.983c7.035-5.714 15.647-8.663 24.33-8.663 5.745 0 11.52 1.29 16.886 3.891 13.496 6.584 22.088 20.419 22.088 35.604v52.664h558.49c21.524 0 38.963 17.674 38.963 39.496v157.983c-0.010 21.821-17.449 39.506-38.973 39.506zM862.679 158.351h-558.49c-21.524 0-38.963-17.674-38.963-39.496v-9.984l-96.317 78.111 96.317 91.126v-1.27c0-21.821 17.439-39.496 38.963-39.496h558.49v-78.991z" />
<glyph unicode="&#xe927;" glyph-name="remove2" d="M370.217 505.6c-15.657 0-28.355-12.892-28.355-28.805v-345.6c0-15.903 12.698-28.795 28.355-28.795s28.355 12.892 28.355 28.795v345.6c0 15.913-12.698 28.805-28.355 28.805zM653.783 505.6c-15.657 0-28.355-12.892-28.355-28.805v-345.6c0-15.903 12.698-28.795 28.355-28.795s28.355 12.892 28.355 28.795v345.6c0 15.913-12.698 28.805-28.355 28.805zM823.921 793.6h-170.138v57.59c0 31.816-25.395 57.6-56.709 57.6h-170.148c-31.324 0-56.709-25.784-56.709-57.6v-57.59h-170.138c-31.324 0-56.719-25.784-56.719-57.6v-57.6c0-31.805 25.395-57.6 56.709-57.6v-518.4c0-63.621 50.78-115.2 113.428-115.2h396.995c62.648 0 113.428 51.579 113.428 115.2v518.4c31.324 0 56.719 25.795 56.719 57.6v57.6c0 31.816-25.395 57.6-56.719 57.6zM426.926 822.395c0 15.913 12.698 28.795 28.355 28.795h113.428c15.657 0 28.355-12.892 28.355-28.795v-28.795c-27.474 0-12.698 0-28.355 0h-141.783v28.795zM767.212 102.4c0-31.805-25.395-57.6-56.719-57.6h-396.984c-31.324 0-56.709 25.795-56.709 57.6v518.4c38.984 0 25.385 0 56.709 0h396.995c31.324 0 24.812 0 56.719 0v-518.4zM795.566 678.4h-567.132c-15.657 0-28.355 12.892-28.355 28.795 0 15.913 12.698 28.805 28.355 28.805h567.132c15.657 0 28.355-12.892 28.355-28.805 0-15.903-12.687-28.795-28.355-28.795zM512 505.6c-15.657 0-28.355-12.892-28.355-28.805v-345.6c0-15.903 12.698-28.795 28.355-28.795 15.667 0 28.355 12.892 28.355 28.795v345.6c0 15.913-12.698 28.805-28.355 28.805z" />
<glyph unicode="&#xe928;" glyph-name="ok" d="M916.941 797.092l-586.465-586.476-223.416 223.416-55.859-55.849 279.276-279.276 642.324 642.324z" />
<glyph unicode="&#xe929;" glyph-name="save" d="M819.2 217.6h-76.8v-76.8h76.8v76.8zM512 217.6h-307.2v-76.8h307.2v76.8zM818.084 908.8h-728.484c-21.207 0-38.4-17.193-38.4-38.4v-844.8c0-21.207 17.193-38.4 38.4-38.4h844.8c21.207 0 38.4 17.193 38.4 38.4v730.071l-154.716 153.129zM512 832h38.4c21.207 0 38.4-17.193 38.4-38.4v-76.8c0-21.207-17.193-38.4-38.4-38.4h-38.4v153.6zM281.6 793.6c0 21.207 17.193 38.4 38.4 38.4h115.2v-153.6h-115.2c-21.207 0-38.4 17.193-38.4 38.4v76.8zM896 64h-768v230.4h768v-230.4zM896 371.2h-768v460.8h76.8v-192c0-21.207 17.193-38.4 38.4-38.4h384c21.207 0 38.4 17.193 38.4 38.4v192h120.904l109.496-108.37v-352.43zM665.6 217.6h-76.8v-76.8h76.8v76.8z" />
<glyph unicode="&#xe92a;" glyph-name="search-outline" horiz-adv-x="724" d="M661.863 168.858l-220.34 222.458c34.997 41.646 56.129 95.314 56.129 153.841 0 132.068-107.444 239.512-239.512 239.512s-239.512-107.444-239.512-239.512c0-132.067 107.444-239.512 239.512-239.512 56.071 0 107.662 19.42 148.515 51.815l220.681-222.803 34.526 34.2zM67.224 545.158c0 105.272 85.644 190.916 190.916 190.916s190.916-85.644 190.916-190.916-85.644-190.916-190.916-190.916-190.916 85.644-190.916 190.916z" />
<glyph unicode="&#xe92b;" glyph-name="share" horiz-adv-x="724" d="M285.607 442.968c0-39.017-31.519-70.646-70.399-70.646s-70.399 31.629-70.399 70.646c0 39.017 31.519 70.646 70.399 70.646s70.399-31.629 70.399-70.646zM587.281 685.080c0-33.46-27.013-60.584-60.336-60.584s-60.336 27.125-60.336 60.584c0 33.46 27.013 60.584 60.336 60.584s60.336-27.125 60.336-60.584zM587.281 210.92c0-33.46-27.013-60.584-60.336-60.584s-60.336 27.125-60.336 60.584c0 33.46 27.013 60.584 60.336 60.584s60.336-27.125 60.336-60.584zM506.649 692.031l-286.787-210.951 29.734-40.684 286.777 210.939zM244.438 463.167l-29.284-40.783 282.506-211.475 29.284 40.794z" />
<glyph unicode="&#xe92c;" glyph-name="attachment" horiz-adv-x="724" d="M636.881 650.518l-46.254 47.851c-14.717 14.92-34.25 23.137-54.974 23.137-20.756 0-40.289-8.238-55.016-23.18l-246.175-250.819c-11.982-12.262-18.052-28.351-18.052-47.789v-35.665c-0.494-12.206 4.44-24.842 13.225-33.8 8.474-8.581 20.166-13.494 32.106-13.494l1.438 0.022 34.637-0.043c19.33 0.043 34.647 6.072 46.844 18.471l243.761 248.461c4.269 4.356 6.608 10.148 6.586 16.305 0 6.135-2.35 11.896-6.564 16.176-8.495 8.732-23.362 8.743-31.933 0.011l-243.721-248.354c-2.435-2.435-6.125-4.955-14.996-4.955h-35.247l-1.115-0.342c0.054 0.449 0.118 0.986 0.118 37.209 0 10.353 3.283 13.698 4.859 15.296l246.155 250.789c12.303 12.518 33.918 12.496 46.113 0.107l46.275-47.895c12.734-12.968 12.734-34.1 0-47.069l-335.882-342.35c-10.898-11.027-25.112-16.166-44.752-16.166l-78.744 10.351-1.287-0.022c-6.221 0-11.757 2.276-15.973 6.555-4.386 4.452-6.671 10.384-6.425 16.926l-12.433 79.474c0 20.081 5.085 34.593 15.993 45.642l305.365 311.125c8.732 8.957 8.732 23.545-0.022 32.534-8.559 8.656-23.34 8.689-31.933-0.011l-305.331-311.113c-19.608-19.92-29.144-45.502-29.144-78.176l12.421-78.626c-0.708-18.534 6.436-36.879 19.608-50.297 12.496-12.743 29.874-20.059 47.648-20.059l80.256-10.308c31.89 0 56.938 9.685 76.6 29.648l335.968 342.351c14.695 15.049 22.794 34.958 22.794 56.1-0.033 21.175-8.142 41.072-22.795 55.993z" />
<glyph unicode="&#xe92d;" glyph-name="edit-block" horiz-adv-x="724" d="M653.209 680.459c0.765-0.563 1.168-1.247 1.891-1.85l15.446 19.669c14.522 18.504 11.263 45.293-7.239 59.815l-33.508 26.308c-18.504 14.52-45.293 11.303-59.815-7.241l-18.101-23.049c1.447-0.804 2.936-1.287 4.343-2.333l96.983-71.318zM375.98 338.589c2.735-2.093 4.868-4.506 6.838-7.001l246.257 313.955c-0.362 0.241-0.765 0.361-1.166 0.603l-96.942 71.318c-1.77 1.287-2.976 2.896-4.465 4.343l-244.284-311.46 93.763-71.76zM254.542 375.031l-41.592-161.301 142.115 82.422 3.137 4.022c-2.735 1.247-5.51 2.575-8.126 4.547l-94.166 72.081-1.368-1.771zM638.85 545.947v-332.177c0-23.531-19.067-42.596-42.598-42.596h-468.499c-23.531 0-42.596 19.067-42.596 42.596v468.499c0 23.532 19.067 42.598 42.596 42.598h304.623l87.246 85.156h-477.024c-23.532 0-42.599-19.066-42.599-42.598v-638.849c0-23.533 19.067-42.599 42.598-42.599h638.849c23.531 0 42.596 19.067 42.596 42.599v513.106l-85.193-95.735z" />
<glyph unicode="&#xe92e;" glyph-name="exchange2" horiz-adv-x="724" d="M633.54 402.747h-543.034v-45.253h39.416l-33.396-34.211 143.723-147.161 47.876 49.054-129.197 132.319h474.612zM594.124 538.506l33.397 34.211-143.723 147.163-47.878-49.055 129.197-132.319h-474.612v-45.253h543.034v45.253z" />
<glyph unicode="&#xe92f;" glyph-name="remove-outline" horiz-adv-x="724" d="M90.506 486.193h543.034v-76.386h-543.034v76.386z" />
<glyph unicode="&#xe930;" glyph-name="remove-block" horiz-adv-x="724" d="M0 498.925h724.044v-101.85h-724.044v101.85z" />
<glyph unicode="&#xe931;" glyph-name="fail" d="M511.808 959.616c-282.752 0-512-229.056-512-511.616s229.248-511.616 512.064-511.616c282.816 0 512.064 229.056 512.064 511.616-0.064 282.56-229.312 511.616-512.128 511.616zM656.448 249.28l-126.080 134.784-155.392-134.784h-137.856l211.136 208.064-190.656 216.768h146.624l102.656-123.072 114.368 123.072h143.68l-175.936-196.288 205.248-228.544h-137.792z" />
<glyph unicode="&#xe932;" glyph-name="exclaim" d="M511.808 959.616c-282.752 0-512-229.056-512-511.616s229.248-511.616 512.064-511.616c282.816 0 512.064 229.056 512.064 511.616-0.064 282.56-229.312 511.616-512.128 511.616zM592.832 163.008h-140.608v102.848h140.608v-102.848zM579.328 315.328l4.8-7.296h-122.24v-0.256l-4.8 0.256h4.8l-33.92 378.496c0 0 20.992 78.144 90.112 75.456 72.704-2.816 95.232-75.456 95.232-75.456l-33.984-371.2z" />
<glyph unicode="&#xe933;" glyph-name="question" horiz-adv-x="724" d="M341.854 333.7h-66.137v23.61c0 17.86 3.268 33.126 9.693 45.704 6.527 12.662 17.476 25.343 32.928 38.004 17.663 14.591 29.472 26.505 35.327 35.721 5.853 9.31 8.738 19.293 8.738 29.95 0 12.381-4.317 22.271-12.961 29.66-8.739 7.295-21.212 10.94-37.433 10.94-31.393 0-60.668-11.613-87.745-35.037v77.181c29.95 16.699 61.914 25.145 95.995 25.145 38.305 0 68.059-8.821 89.281-26.392 21.211-17.57 31.86-41.282 31.86-71.233 0-19.199-4.318-36.862-13.056-53.082-8.635-16.221-23.609-32.929-44.822-50.208-17.954-14.208-29.275-25.342-34.278-33.406-4.888-8.157-7.389-17.851-7.389-29.277v-17.279zM309.031 297.128c12.67 0 23.515-4.129 32.535-12.287 9.029-8.168 13.635-18.151 13.635-29.857 0-11.332-4.606-21.119-13.635-29.275-9.019-8.261-19.864-12.288-32.535-12.288-12.87 0-23.714 4.121-32.638 12.381-8.83 8.261-13.252 17.955-13.252 29.183 0 11.52 4.421 21.41 13.252 29.763 8.924 8.253 19.769 12.381 32.638 12.381z" />
<glyph unicode="&#xe934;" glyph-name="add-relation" horiz-adv-x="724" d="M115.383 475.875v-55.701h115.38v55.701h-115.38zM718.15 190.342l-51.253-52.543c10.55-9.619 30.617-5.638 44.736 8.895 14.222 14.481 17.12 34.030 6.517 43.649zM115.383 253.076h144.239v55.699h-144.239v-55.699zM561.601 145.039c-4.033-2.069-8.586-3.362-13.448-3.362h-461.63c-15.929 0-28.859 12.462-28.859 27.823v556.999c0 15.36 12.931 27.823 28.859 27.823h461.579c15.929 0 28.858-12.464 28.858-27.823v-174.806c16.912-10.033 38.064-28.6 57.716-52.234v282.74c0 15.36-12.929 27.824-28.858 27.824h-576.961c-15.929 0-28.858-12.464-28.858-27.824v-668.347c0-15.411 12.929-27.875 28.858-27.875h577.013c8.793 0 16.601 3.879 21.929 9.93-25.911-2.275-50.116 17.638-66.199 49.133zM519.297 670.799h-403.914v-55.7h403.914v55.7zM517.174 189.414v155.15h155.154v51.719h-155.154v155.153h-51.718v-155.151h-155.151v-51.719h155.153v-155.151h51.716z" />
<glyph unicode="&#xe935;" glyph-name="rotate" d="M759.654 896h232.346c17.664 0 32 14.336 32 32s-14.336 32-32 32h-320c-3.891 0-32 0-32-32v-320c0-17.664 14.336-32 32-32s32 14.336 32 32v244.531c151.296-71.885 256-225.843 256-404.531 0-247.45-200.55-448-448-448s-448 200.55-448 448c0 225.638 166.963 411.802 384 442.931v64.666c-252.518-31.59-448-246.528-448-507.597 0-282.778 229.222-512 512-512s512 229.222 512 512c0 192.87-106.752 360.704-264.346 448z" />
<glyph unicode="&#xe936;" glyph-name="loading" d="M240.469 266.965l-90.496-90.496c-25.003-25.003-25.003-65.536 0-90.496 25.003-25.003 65.536-25.003 90.496 0l90.496 90.496c25.003 25.003 25.003 65.493 0 90.496-24.96 25.003-65.493 25.003-90.496 0zM240.469 810.027c-25.003 25.003-65.536 25.003-90.496 0-25.003-25.003-25.003-65.536 0-90.496l90.496-90.496c25.003-25.003 65.536-25.003 90.496 0 25.003 25.003 25.003 65.493 0 90.496l-90.496 90.496zM256 448c0 35.328-28.672 64-64 64h-128c-35.328 0-64-28.672-64-64s28.672-64 64-64h128c35.328 0 64 28.672 64 64zM783.531 629.035l90.496 90.496c25.003 25.003 25.003 65.536 0 90.496-25.003 25.003-65.536 25.003-90.496 0l-90.496-90.496c-25.003-25.003-25.003-65.493 0-90.496 24.96-25.003 65.493-25.003 90.496 0zM512 192c-35.328 0-64-28.672-64-64v-128c0-35.328 28.672-64 64-64s64 28.672 64 64v128c0 35.328-28.672 64-64 64zM960 512h-128c-35.328 0-64-28.672-64-64s28.672-64 64-64h128c35.328 0 64 28.672 64 64s-28.672 64-64 64zM783.531 266.965c-25.003 25.003-65.536 25.003-90.496 0-25.003-25.003-25.003-65.536 0-90.496l90.496-90.496c25.003-25.003 65.493-25.003 90.496 0s25.003 65.536 0 90.496l-90.496 90.496zM512 960c-35.328 0-64-28.672-64-64v-128c0-35.328 28.672-64 64-64s64 28.672 64 64v128c0 35.328-28.672 64-64 64z" />
<glyph unicode="&#xe937;" glyph-name="close-outline" horiz-adv-x="724" d="M633.517 134.658l-271.104 272.91-271.105-272.91-48.937 48.12 271.105 271.389-271.105 272.91 48.937 47.361 271.105-272.91 271.105 272.91 48.957-47.361-271.865-272.91 271.864-271.389-48.957-48.12z" />
<glyph unicode="&#xe938;" glyph-name="edit-round" horiz-adv-x="724" d="M284.409 374.665l-0.562-0.766-16.952-68.748 57.929 35.128 1.291 1.738c-1.124 0.511-2.248 1.073-3.308 1.941l-38.398 30.707zM396.562 519.878c-0.729 0.562-1.213 1.252-1.814 1.891l-99.623-132.797 38.232-30.606c1.112-0.894 1.979-1.942 2.798-2.99l100.402 133.844c-0.152 0.102-0.319 0.153-0.473 0.255l-39.522 30.402zM450.494 537.225l-13.668 11.216c-7.55 6.183-18.459 4.803-24.371-3.091l-7.383-9.836c0.586-0.358 1.199-0.562 1.775-0.996l39.523-30.402c0.307-0.229 0.484-0.535 0.766-0.791l6.297 8.405c5.926 7.893 4.598 19.287-2.939 25.495zM362.023 637.856c-115.603 0-209.311-93.632-209.311-209.131 0-115.526 93.708-209.184 209.311-209.184s209.311 93.657 209.311 209.184c0 115.5-93.708 209.131-209.311 209.131zM362.099 251.219c-98.026 0-177.491 79.402-177.491 177.377 0 97.95 79.465 177.377 177.491 177.377s177.491-79.428 177.491-177.377c0-97.975-79.465-177.377-177.491-177.377z" />
<glyph unicode="&#xe939;" glyph-name="recall" horiz-adv-x="724" d="M501.466 584.543h-257.065c-17.735 0-32.148-14.749-32.148-32.947 0-18.195 14.413-32.945 32.148-32.945h257.065c17.762 0 32.146-14.749 32.146-32.944v-131.763c0-18.22-14.384-32.944-32.146-32.944h-289.212v32.971c0 13.294-7.833 25.326-19.82 30.424-12.032 5.093-25.825 2.279-35.032-7.136l-64.254-65.914c-6.285-6.431-9.426-14.871-9.426-23.291 0-8.417 3.142-16.861 9.426-23.29l64.254-65.867c9.207-9.411 23-12.228 35.032-7.157 11.987 5.068 19.82 17.105 19.82 30.448v32.922h289.212c53.254 0 96.415 44.225 96.415 98.836v131.763c0 54.583-43.161 98.835-96.415 98.835z" />
<glyph unicode="&#xe93a;" glyph-name="circulate" horiz-adv-x="724" d="M362.022 235.017l-72.271 64.565-206.635-180.819c7.488-7.177 17.615-11.551 28.788-11.551h500.237c11.124 0 21.229 4.374 28.716 11.551l-206.542 180.819-72.293-64.565zM654.148 141.92v354.030l-201.692-179.109 201.692-174.921zM654.148 533.227l-292.126 255.562-292.125-255.562 292.125-255.609 292.126 255.609zM69.897 495.808v-353.888l201.691 174.921-201.691 178.967z" />
<glyph unicode="&#xe93b;" glyph-name="equal-size" horiz-adv-x="724" d="M517.113 109.357h-373.965c-61.97 0-112.203 52.625-112.203 117.544v391.792c0 64.919 50.232 117.544 112.203 117.544h373.965c61.97 0 112.202-52.625 112.202-117.544v-391.792c0-64.919-50.232-117.544-112.202-117.544zM554.509 618.693c0 21.641-16.73 39.163-37.395 39.163h-373.965c-20.666 0-37.397-17.523-37.397-39.163v-391.792c0-21.639 16.73-39.163 37.397-39.163h373.965c20.665 0 37.395 17.523 37.395 39.163v391.792zM180.531 344.446h299.186v-78.382h-299.186v78.382zM180.531 461.988h299.186v-78.38h-299.186v78.38zM180.531 579.503h299.186v-78.352h-299.186v78.352z" />
<glyph unicode="&#xe93c;" glyph-name="equal-height" horiz-adv-x="724" d="M508.007 203.284h-291.979c-48.362 0-87.593 41.087-87.593 91.772v305.888c0 50.689 39.23 91.772 87.593 91.772h291.98c48.384 0 87.601-41.083 87.601-91.772v-305.888c0-50.685-39.218-91.772-87.602-91.772zM537.215 600.944c0 16.898-13.074 30.577-29.208 30.577h-291.979c-16.115 0-29.187-13.679-29.187-30.577v-305.888c0-16.898 13.072-30.577 29.187-30.577h291.98c16.134 0 29.208 13.679 29.208 30.577v305.888zM391.231 386.828h87.58v-61.196h-87.58v61.196zM391.231 478.599h87.58v-61.195h-87.58v61.195zM391.231 570.347h87.58v-61.172h-87.58v61.172zM245.234 570.347h87.58v-244.716h-87.58v244.716z" />
<glyph unicode="&#xe93d;" glyph-name="equal-width" horiz-adv-x="724" d="M117.306 302.015v291.98c0 48.362 41.087 87.593 91.772 87.593h305.889c50.689 0 91.772-39.23 91.772-87.593l-0.001-291.98c0-48.384-41.083-87.601-91.772-87.601h-305.888c-50.685-0.001-91.772 39.216-91.772 87.601zM514.965 272.806c16.898 0 30.577 13.074 30.577 29.208l0.001 291.98c0 16.115-13.679 29.187-30.577 29.187h-305.889c-16.898 0-30.577-13.072-30.577-29.187v-291.98c0-16.133 13.679-29.208 30.577-29.208h305.888zM300.85 418.792v-87.58h-61.196v87.582l61.196-0.001zM392.62 418.792v-87.58h-61.195v87.58h61.195zM484.369 418.792v-87.58h-61.172v87.58h61.172zM484.369 564.789v-87.58h-244.716v87.58h244.716z" />
<glyph unicode="&#xe93e;" glyph-name="equal-distance-horizontal" horiz-adv-x="724" d="M451.218 335.707c-5.146 6.905-13.249 11.366-22.364 11.366h-168.858c-15.554 0-28.155-12.962-28.155-28.92v-28.92c0-15.959 12.601-28.9 28.155-28.9h112.522c0.016 0 0.030-0.001 0.046-0.001h56.29c4.954 0 9.608 1.32 13.654 3.628 8.646 4.933 14.502 14.4 14.502 25.271v28.92c0 0.32-0.013 0.635-0.024 0.951-0.197 6.24-2.313 11.975-5.768 16.604zM428.854 289.231h-168.858v28.92h168.858v-28.92zM485.144 607.271h-281.448c-46.631 0-84.434-38.844-84.434-86.739v-289.121c0-47.896 37.803-86.719 84.434-86.719h281.449c46.632 0 84.445 38.823 84.445 86.719v289.12c-0.001 47.897-37.814 86.74-84.446 86.74zM513.289 231.412c0-15.959-12.591-28.9-28.145-28.9h-281.448c-15.543 0-28.145 12.94-28.145 28.9v289.121c0 15.98 12.601 28.9 28.145 28.9l281.449-0.001c15.554 0 28.145-12.92 28.145-28.9v-289.12zM428.854 491.633h-168.858c-15.554 0-28.155-12.962-28.155-28.92v-28.92c0-15.958 12.601-28.9 28.155-28.9l168.858-0.001c15.543 0 28.155 12.943 28.155 28.901v28.919c0.001 15.959-12.612 28.921-28.155 28.921zM428.854 433.792h-168.858v28.92h168.858v-28.92z" />
<glyph unicode="&#xe93f;" glyph-name="recover" horiz-adv-x="724" d="M211.203 246.494h275.424c19.033 0 34.446 15.401 34.446 34.395 0 18.981-15.413 34.384-34.446 34.384h-275.424c-19.034 0-34.448 15.4-34.448 34.391v137.54c0 19.005 15.414 34.392 34.448 34.392h309.87v-34.409c0-13.899 8.419-26.457 21.26-31.766 12.869-5.307 27.666-2.385 37.532 7.454l68.841 68.787c6.73 6.715 10.109 15.524 10.109 24.315 0 8.806-3.378 17.599-10.109 24.314l-68.841 68.778c-9.865 9.81-24.663 12.76-37.532 7.452-12.841-5.308-21.26-17.857-21.26-31.768v-34.383h-309.87c-57.073 0-103.317-46.177-103.317-103.167v-137.539c-0.001-56.979 46.244-103.17 103.317-103.17z" />
<glyph unicode="&#xe940;" glyph-name="connect-point" horiz-adv-x="724" d="M642.005 587.991l-140.001-140.002c-20.659-20.661-49.851-27.181-76.224-20.218l188.22 188.224c15.474 15.451 15.474 40.536 0 55.988l-27.984 28.004c-15.474 15.451-40.535 15.451-56.009 0l-188.222-188.224c-6.966 26.355-0.424 55.544 20.236 76.226l139.98 139.98c30.926 30.926 81.071 30.926 111.997 0l28.004-27.984c30.927-30.925 30.927-81.070 0.001-111.995zM425.018 510.686c7.728-7.727 7.728-20.259 0-28.004l-97.985-97.985c-7.725-7.728-20.276-7.728-28.004 0-7.725 7.726-7.725 20.277 0 28.004l98.005 97.985c7.728 7.749 20.259 7.749 27.984 0zM110.045 224.016l28.004-28.004c15.452-15.456 40.536-15.456 55.988 0l188.22 188.22c6.966-26.355 0.445-55.543-20.235-76.224l-139.98-139.98c-30.926-30.926-81.071-30.926-111.998 0l-28.004 27.982c-30.926 30.947-30.926 81.071 0 111.997l140.002 139.982c20.68 20.68 49.851 27.198 76.224 20.236l-188.222-188.22c-15.452-15.456-15.452-40.518 0-55.988z" />
<glyph unicode="&#xe941;" glyph-name="approve" horiz-adv-x="724" d="M576.157 507.209c0 0 25.41 69.284 80.107 32.923 7.602-26.687 11.936-54.743 11.936-83.868 0-169.101-137.096-306.181-306.176-306.181-169.105 0-306.181 137.078-306.181 306.181 0 169.105 137.075 306.18 306.181 306.18 51.050 0 99.069-12.663 141.41-34.761 4.868-19.771 6.298-59.163-51.969-71.974-27.333 12.274-57.545 19.257-89.44 19.257-120.788 0-218.705-97.917-218.705-218.702s97.917-218.704 218.705-218.704c120.763 0 218.699 97.918 218.699 218.704zM519.042 609.846c37.728 28.248 80.131 53.676 124.672 68.535l-6.751-31.534c0 0-139.639-58.567-252.245-295.055h-33.778c0 0-63.049 114.87-112.606 132.889l-6.768 38.283c0 0 87.84-47.294 114.87-65.312 0 0-4.505-9.010 22.527 4.505 0 0 61.382 80.964 148.904 146.833z" />
<glyph unicode="&#xe942;" glyph-name="equal-distance-vertical" horiz-adv-x="724" d="M286.616 488.568h-28.92c-15.958 0-28.92-12.612-28.92-28.155v-168.858c0-15.554 12.962-28.155 28.92-28.155h28.92c15.958 0 28.9 12.601 28.9 28.155v168.858c0.001 15.543-12.942 28.155-28.9 28.155zM286.616 291.553h-28.92v168.858h28.92v-168.858zM431.176 488.568h-28.92c-0.32 0-0.635-0.013-0.951-0.024-6.232-0.197-11.959-2.307-16.586-5.754-6.916-5.146-11.383-13.254-11.383-22.378v-168.858c0-15.554 12.962-28.155 28.92-28.155h28.92c15.959 0 28.9 12.601 28.9 28.155v112.522c0 0.016 0.001 0.030 0.001 0.046v56.29c0 4.666-1.174 9.064-3.238 12.939-4.811 9.036-14.494 15.217-25.663 15.217zM431.176 291.553h-28.92v168.858h28.92v-168.858zM488.996 601.146h-289.12c-47.896 0-86.74-37.813-86.74-84.445v-281.449c0-46.631 38.844-84.434 86.739-84.434h289.121c47.896 0 86.719 37.803 86.719 84.434v281.451c0 46.631-38.823 84.444-86.719 84.444zM517.895 235.253c0-15.543-12.94-28.145-28.9-28.145h-289.12c-15.98 0-28.9 12.601-28.9 28.145v281.449c0 15.554 12.92 28.145 28.9 28.145h289.12c15.959 0 28.9-12.59 28.9-28.144v-281.451z" />
<glyph unicode="&#xe943;" glyph-name="fillsheet" horiz-adv-x="724" d="M507.261 626.573l-201.456-211.622-54.043-171.258 161.439 58.357 201.388 211.58-14.588 15.435-92.739 97.508zM283.739 277.684l29.807 100.067 64.491-67.809-94.298-32.258zM670.411 584.127l-96.143 101.107c-3.165 3.251-8.107 3.251-11.274 0l-38.26-40.278c-3.102-3.339-3.102-8.455 0-11.836l96.208-101.021c3.058-3.295 8.108-3.166 11.208 0l38.261 40.234c3.164 3.295 3.164 8.585 0 11.793zM51.261 243.694h177.219l15.717 45.482h-192.936v-45.482z" />
<glyph unicode="&#xe944;" glyph-name="change-photograph" horiz-adv-x="724" d="M309.161 358.25c-20.958 0-53.782 86.986-69.664 51.817-6.601-14.609-17.605-45.804-28.222-70.777v-9.711c0-16.353 12.635-29.639 28.222-29.639h225.766c15.586 0 28.221 13.286 28.221 29.639v13.791c-15.953 37.669-36.609 100.080-56.453 124.065-40.548 49.020-89.066-109.185-127.87-109.185zM493.483 684.875h-282.208c-46.761 0-84.672-39.772-84.672-88.834v-296.102c0-49.043 37.911-88.815 84.672-88.815h282.208c46.761 0 84.663 39.771 84.663 88.815v296.102c0 49.062-37.901 88.834-84.663 88.834zM521.704 299.938c0-16.355-12.634-29.598-28.221-29.598h-282.208c-15.597 0-28.221 13.243-28.221 29.598v296.102c0 16.355 12.624 29.596 28.221 29.596h282.208c15.587 0 28.221-13.243 28.221-29.596v-296.102zM253.613 507.205c23.364 0 42.325 19.887 42.325 44.439 0 24.51-18.961 44.397-42.325 44.397-23.387 0-42.337-19.887-42.337-44.397-0.001-24.552 18.95-44.439 42.337-44.439z" />
<glyph unicode="&#xe945;" glyph-name="close-round" horiz-adv-x="724" d="M362.022 212.455c-111.002 0-200.978 89.966-200.978 200.98 0 110.988 89.978 200.978 200.978 200.978s200.98-89.99 200.98-200.978c0-111.014-89.978-200.98-200.98-200.98zM362.022 589.29c-97.127 0-175.857-78.752-175.857-175.855 0-97.154 78.728-175.858 175.857-175.858s175.857 78.704 175.857 175.858c0 97.104-78.727 175.855-175.857 175.855zM379.859 413.335l53.211-53.188c4.908-4.908 4.908-12.881 0-17.787-4.905-4.907-12.854-4.907-17.761 0l-53.214 53.214-53.594-53.581c-4.942-4.932-12.954-4.932-17.897 0-4.944 4.955-4.944 12.954 0 17.91l53.582 53.581-53.227 53.238c-4.907 4.908-4.907 12.856 0 17.763s12.869 4.907 17.763 0l53.225-53.238 53.987 53.974c4.942 4.955 12.952 4.955 17.896 0 4.944-4.932 4.944-12.954 0-17.886l-53.971-53.999z" />
<glyph unicode="&#xe946;" glyph-name="title" horiz-adv-x="724" d="M223.525 84.43c103.743 5.186 111.005 22.823 111.005 101.669v508.341h-64.321c-135.905 0-149.391-22.824-180.514-131.754h-16.599c6.225 61.208 9.336 123.456 11.411 181.551h16.599c7.263-12.449 14.524-18.674 22.824-21.787 8.299-3.113 18.674-3.113 33.198-3.113h418.086c26.974 0 34.236 5.188 48.759 24.898l17.637-1.038c-2.075-48.759 4.15-114.118 9.338-176.364l-17.637-4.15c-24.899 117.23-64.321 131.754-152.503 131.754h-92.331v-508.343c0-78.846 7.263-96.483 115.155-101.669v-14.524h-280.108v14.526z" />
<glyph unicode="&#xe947;" glyph-name="creater" horiz-adv-x="439" d="M219.429 960c46.958 0 85.065-38.107 85.065-85.138 0-46.958-38.107-85.065-85.065-85.065s-85.065 38.107-85.065 85.065c0 47.031 38.107 85.138 85.065 85.138zM310.93 773.047h-182.93c-82.066 0-108.763-21.138-108.763-110.446v-261.266c0-50.761 68.535-50.761 68.535 0l5.851 238.958h17.554v-654.117c0-67.877 93.111-65.902 93.111 0l5.925 379.685h18.432l5.851-379.685c0-65.902 93.111-67.877 93.111 0v654.117h17.554l5.925-238.958c0-50.761 68.389-50.761 68.389 0v261.266c0.073 89.381-26.551 110.446-108.544 110.446z" />
<glyph unicode="&#xe948;" glyph-name="alarm" d="M986.039 475.721c0 85.138-22.601 164.791-61.733 233.911 19.383-0.512 36.425 4.389 48.274 16.238 34.523 34.523 13.824 111.177-46.153 171.227-60.050 60.050-136.704 80.677-171.227 46.153-12.288-12.288-17.262-30.062-16.311-50.322-67.877 37.23-145.701 58.441-228.498 58.441-73.143 0-142.117-16.969-204.069-46.446-1.243 15.214-6.144 28.599-15.945 38.327-34.523 34.523-111.177 13.897-171.227-46.153s-80.677-136.631-46.153-171.227c6.802-6.802 15.579-10.825 25.161-13.458-40.155-69.778-63.415-150.382-63.415-236.69 0-156.233 75.703-294.473 192-381.221l-100.718-100.718 57.783-57.783 114.469 114.469c63.927-31.963 135.826-50.395 212.187-50.395 76.288 0 148.187 18.432 212.114 50.395l114.322-114.469 57.783 57.783-100.718 100.718c116.37 86.747 192.073 224.914 192.073 381.221zM113.664 455.534h67.73c11.118 0 20.187 8.997 20.187 20.187 0 11.118-9.070 20.187-20.187 20.187h-67.73c10.24 203.557 173.129 366.373 376.686 376.539l-0.146-0.878v-73.947c0-11.118 9.070-20.187 20.187-20.187s20.187 9.070 20.187 20.187v73.947l-0.146 0.878c203.557-10.167 366.446-172.983 376.686-376.539h-68.315c-11.118 0-20.187-9.070-20.187-20.187s9.070-20.187 20.187-20.187h68.315c-10.24-203.557-173.056-366.299-376.539-376.539v70.949c0 11.118-9.070 20.187-20.187 20.187-11.191 0-20.187-9.070-20.187-20.187v-70.949c-203.483 10.24-366.299 173.056-376.539 376.539zM506.807 456.265l3.584-0.731h259.218c11.118 0 20.187 8.997 20.187 20.187 0 11.118-9.070 20.187-20.187 20.187h-239.031v218.843c0 11.118-9.070 20.187-20.187 20.187s-20.187-8.997-20.187-20.187v-239.031c0-9.874 7.241-17.701 16.603-19.456z" />
<glyph unicode="&#xe949;" glyph-name="radio" d="M512 886.857c241.957 0 438.857-196.901 438.857-438.857s-196.901-438.857-438.857-438.857-438.857 196.901-438.857 438.857 196.901 438.857 438.857 438.857zM512 960c-282.77 0-512-229.23-512-512s229.23-512 512-512 512 229.23 512 512-229.23 512-512 512v0zM731.429 448c0-121.187-98.242-219.429-219.429-219.429s-219.429 98.242-219.429 219.429c0 121.187 98.242 219.429 219.429 219.429s219.429-98.242 219.429-219.429z" />
<glyph unicode="&#xe94a;" glyph-name="region" d="M1024 448.073c0 282.77-229.23 511.927-512 511.927s-512-229.157-512-511.927 229.23-512.073 512-512.073 512 229.23 512 512.073zM704.439 756.809l36.645 24.503c0 0-15.433 39.351-12.8 58.734 8.923 4.315 45.056-14.555 75.483-46.592-20.553-76.361-68.608-67.218-68.608-67.218s-35.328 0.731-30.72 30.574zM395.849 306.030c-2.267-11.483-16.018-38.985-25.161-57.344s-13.751-25.088-25.234-34.304c-11.41-9.435-18.286-25.307-18.286-25.307l-2.267-38.912c0 0 4.462-32.11 11.337-43.666 6.875-11.337-24.503-79.653-24.503-79.653-19.895 4.096-30.939 27.136-37.888 45.422-6.949 18.432-16.018 28.014-13.678 48.64 2.267 20.626-17.847 31.525-24.649 43.008-6.875 11.63-16.091 27.502-16.091 39.058 0 11.483-25.161 27.429-25.161 27.429s-45.861 20.626-52.663 29.842c-7.022 9.070-13.97 48.274-16.238 64.146-2.194 15.945 6.949 57.125 6.949 57.125s18.432 13.97 6.802 25.381c-11.483 11.41-13.751 41.326-13.751 41.326l-20.699 22.747c0 0-16.018 22.821-18.213 34.377-2.341 11.483 0 18.359 2.194 29.842 2.341 11.63-4.535 32.11-4.535 43.447 85.577 210.213 229.157 259.072 229.157 259.072l11.557-48.055c0 0-25.161-6.802-38.912-2.341-13.751 4.608-20.699 4.608-20.699 4.608l-18.286-25.234c0 0-6.875-16.091-9.289-25.307-2.194-9.070 4.535-22.894 4.535-22.894s32.183-2.341 32.183 6.949c0 9.143-4.535 13.605-4.535 13.605l-4.608 16.091c0 0 20.699 11.483 75.557 6.949 55.003-4.608 34.45-43.593 57.417-52.882 22.967-8.997-18.359-41.033-27.502-59.319-9.143-18.359-22.967 23.040-22.967 23.040s13.751 15.799-9.143 20.48c-22.967 4.462-38.107-41.253-26.478-39.058 11.41 2.341 24.21-12.361 21.943-23.625-2.341-11.557-2.341-10.679-13.897-35.913-11.41-25.234-36.279-43.813-36.279-43.813s-11.703 7.168-4.901-6.656c6.949-13.678-2.267-45.861-2.267-54.93 0-9.143-27.502 15.945-32.037 38.912-4.608 22.894-31.525 2.999-40.667 0.731-9.216-2.414-25.893 4.023-30.427 15.36-4.535 11.41-45.934-22.894-57.417-29.769-11.483-6.802-6.729-25.234 11.483-16.165 18.359 9.435 34.377 2.414 29.842-16.091-4.535-18.139-22.894-6.802-20.553-18.139 2.194-11.483 20.626-23.040 25.088-39.058 4.681-15.945 48.274-2.341 61.952 4.535 13.678 6.949 52.736 13.897 57.344-4.535 4.681-18.286 48.128-25.088 64.146-29.696 16.091-4.608 48.128-6.802 66.487-25.307 18.286-18.359-13.678-52.663-16.091-64.146zM498.981 842.313c-2.414-22.821-38.912-52.663-34.377-61.952 4.608-9.216 0-48.421-32.11-14.043s-64.219 46.080-61.806 69.12c0.512 4.608 33.134 11.922 33.646 19.822 48.64 45.202 126.245 35.84 132.096 25.307-13.751-22.894-35.182-15.214-37.449-38.254zM780.142 94.354c-24.43 24.503-12.142 45.861-12.142 45.861l6.875 36.645 3.877 61.952c0 0 0 64-61.147 33.499-65.755-16.603-38.473-16.603-104.814-21.285-66.414-4.462-55.442 135.534-55.442 135.534 0 209.774 160.841 51.493 160.841 51.493 91.721-61.074 104.009 50.688 104.009 50.688l67.145 24.137 6.144 30.72-9.728 42.789-97.646 40.229c0 0-9.435-31.744 15.653-70.729 0 0-8.411-44.325-28.965-32.841l-56.613 28.379c0 0-19.017 8.265-49.591-10.094-30.574-18.286-82.432 0.878-82.432 0.878s4.242 30.647 36.352 46.592l26.331 17.408c0 0-6.875 31.451-0.878 55.808 6.071 24.503 16.823 2.999 41.253 21.358s41.326-35.84 77.897-29.696c36.645 5.998 18.359 12.069 42.862 24.357 24.503 12.215 42.715-24.357 42.715-24.357l48.859-6.144c0 0-7.68 55.296-4.315 40.96 30.939-53.248 76.288-195.072 59.538-220.379-10.094 4.462-18.505 8.265-18.505 8.265h-61.147l36.645-42.862c0 0 17.774-26.039 42.862-24.357-16.53-191.707-176.494-314.807-176.494-314.807z" />
<glyph unicode="&#xe94b;" glyph-name="location" horiz-adv-x="585" d="M344.869 182.638c65.536 152.795 163.621 383.781 184.686 446.171 10.021 26.697 15.726 55.662 15.726 85.87 0 135.461-109.861 245.321-245.321 245.321s-245.321-109.861-245.321-245.321c0-26.405 4.315-51.785 11.995-75.63 11.63-40.96 104.96-293.522 165.669-456.704-110.299-13.019-192.439-62.318-192.439-121.417 0-69.047 111.835-124.928 249.783-124.928s249.783 55.881 249.783 124.928c-0.073 59.465-83.237 109.056-194.56 121.71zM143.433 713.874c0 86.382 70.071 156.526 156.526 156.526s156.453-70.144 156.453-156.526c0-86.455-70.071-156.526-156.453-156.526s-156.526 70.071-156.526 156.526zM320 124.782c46.885-7.753 80.969-29.623 80.969-55.662 0-32.622-52.809-58.88-117.906-58.88s-117.906 26.331-117.906 58.88c0 27.282 37.522 50.103 88.064 56.759 18.798-50.395 31.159-83.383 31.159-83.383s14.19 32.549 35.621 82.286zM289.646-46.811c-119.003 0-215.406 48.201-215.406 107.739 0 50.615 70.071 93.038 164.425 104.448 3.95-10.533 7.68-20.553 11.264-30.208-59.319-7.461-103.424-34.085-103.424-66.048 0-37.669 61.147-68.315 136.704-68.315 75.483 0 136.631 30.647 136.631 68.315 0 30.501-40.448 56.101-95.744 64.951 4.315 10.021 8.85 20.626 13.678 31.671 95.817-10.898 167.351-53.687 167.351-104.814-0.073-59.538-96.549-107.739-215.479-107.739z" />
<glyph unicode="&#xe94c;" glyph-name="checkbox" d="M59.977 124.562h-59.977c0-84.407 68.389-152.795 152.795-152.795v60.050c-51.2 0.073-92.672 41.545-92.818 92.745zM59.977 453.486h-59.977v-122.807h59.977v122.807zM0 659.822h60.050c0.073 51.273 41.545 92.745 92.745 92.818v59.977c-84.407 0-152.795-68.389-152.795-152.795zM59.977 289.719h-59.977v-122.807h59.977v122.807zM60.050 613.742h-60.050v-122.807h60.050v122.807zM844.507 559.543c-17.993-22.455-35.694-45.349-53.248-68.535h53.248v68.535zM643.95 761.344v51.2h-122.807v-59.977h112.567c3.438 2.926 6.802 5.851 10.24 8.777zM197.12-30.208h122.807v59.977h-122.807v-59.977zM784.53 166.985h59.977v122.734h-59.977v-122.734zM690.030 31.817v-60.050c84.407 0 152.795 68.389 152.795 152.795h-59.977c-0.146-51.273-41.618-92.672-92.818-92.745zM784.53 453.486v-122.807h59.977v122.807h-59.977zM197.12 752.567h122.807v59.977h-122.807v-59.977zM360.887 752.567h122.807v59.977h-122.807v-59.977zM360.887-30.208h122.807v59.977h-122.807v-59.977zM521.143-30.208h122.807v59.977h-122.807v-59.977zM1000.155 926.208c-281.381-172.544-485.595-390.217-577.317-499.493l-224.695 176.055-99.255-79.945 388.242-394.825c66.853 171.081 278.455 505.563 536.869 743.278l-23.845 54.93z" />
<glyph unicode="&#xe94d;" glyph-name="sequenceno" horiz-adv-x="1396" d="M184.227 960h93.091v-1024h-93.091v1024zM376.273 960h180.41v-1024h-180.41v1024zM655.546 960h90.205v-1024h-90.205v1024zM779.636 960h245.295v-1024h-245.295v1024zM1151.069 960h122.694v-1024h-122.694v1024zM46.545 960h46.545v-1024h-46.545v1024z" />
<glyph unicode="&#xe94e;" glyph-name="single-user" horiz-adv-x="878" d="M438.857 510.976c-220.014 0-398.409-244.005-398.409-545.061 0-9.947 0.219-20.041 0.658-29.915h795.502c0.439 9.947 0.585 19.968 0.585 29.915 0.073 301.056-178.249 545.061-398.336 545.061zM442.587 567.003c111.031 0 201.143 87.991 201.143 196.535 0 108.471-90.112 196.462-201.143 196.462-111.104 0-201.143-87.991-201.143-196.462s90.039-196.535 201.143-196.535z" />
<glyph unicode="&#xe94f;" glyph-name="multi-user" d="M353.426 503.808c-195.218 0-353.426-216.43-353.426-483.401 0-8.85 0.219-17.774 0.512-26.551h705.682c0.366 8.777 0.585 17.701 0.585 26.551 0 266.971-158.208 483.401-353.353 483.401zM356.645 553.618c98.523 0 178.469 78.043 178.469 174.299s-79.872 174.299-178.469 174.299c-98.45 0-178.395-78.043-178.395-174.299 0.073-96.329 79.945-174.299 178.395-174.299zM788.187 334.336c-17.115 0-33.646-2.633-49.664-7.314 44.763-86.674 71.314-192.219 71.314-306.469 0-8.85-0.146-17.774-0.585-26.624h214.382c0.219 5.925 0.366 11.776 0.366 17.701 0 178.249-105.618 322.706-235.813 322.706zM909.385 483.84c0 64.219-53.321 116.297-119.003 116.297-65.755 0-119.077-52.078-119.077-116.297s53.248-116.297 119.077-116.297c65.755-0.073 119.003 52.078 119.003 116.297z" />
<glyph unicode="&#xe950;" glyph-name="calendar" d="M1022.903 906.533l-144.677-0.146v-91.867h-138.021v91.721l-437.614-0.439v-94.574h-138.021v94.427l-164.571-0.146v-916.041l1024 0.219-1.097 916.846zM950.857 62.464h-877.714v585.143h877.714v-585.143zM300.983 473.673v-325.998h93.038v411.502h-79.141l-93.623-50.688v-72.119l78.482 37.303zM801.865 266.021c0 54.418-39.936 91.794-89.381 100.645v1.317c50.688 17.115 75.41 51.858 75.41 95.598 0 56.393-48.713 102.546-136.119 102.546-53.76 0-102.546-15.214-127.269-31.013l0.658-72.704c16.457 10.167 70.949 27.721 104.448 27.721 41.179 0 60.782-18.359 60.782-43.008 0-34.816-40.448-47.47-72.704-47.47h-37.449v-68.974h39.278c41.765 0 82.286-18.359 82.286-59.538 0-30.354-25.307-54.418-75.264-54.418-39.278 0-97.426 16.677-114.542 26.185l-0.731-73.655c23.991-14.555 68.974-28.526 122.149-28.526 104.375-0.073 168.448 53.102 168.448 125.294z" />
<glyph unicode="&#xe951;" glyph-name="number" horiz-adv-x="724" d="M170.167 348.005h-37.371v238.138c-8.998-8.584-20.798-17.163-35.4-25.744-14.605-8.585-27.717-15.020-39.344-19.309v36.126c20.899 9.825 39.169 21.728 54.811 35.71 15.639 13.979 26.711 27.542 33.22 40.694h24.083v-305.614zM462.287 383.924v-35.918h-201.184c-0.279 8.996 1.174 17.647 4.359 25.952 5.119 13.703 13.32 27.197 24.604 40.485 11.279 13.287 27.577 28.651 48.894 46.091 33.079 27.127 55.435 48.615 67.061 64.466 11.627 15.847 17.441 30.832 17.441 44.95 0 14.809-5.296 27.301-15.884 37.476s-24.396 15.26-41.42 15.26c-17.994 0-32.388-5.398-43.185-16.194-10.796-10.796-16.266-25.744-16.402-44.845l-38.409 3.946c2.628 28.651 12.526 50.483 29.69 65.503 17.16 15.018 40.206 22.527 69.138 22.527 29.202 0 52.32-8.097 69.344-24.291s25.536-36.266 25.536-60.21c0-12.181-2.491-24.155-7.474-35.918-4.983-11.765-13.255-24.155-24.81-37.163-11.559-13.012-30.764-30.866-57.614-53.565-22.423-18.826-36.82-31.594-43.185-38.304-6.369-6.716-11.627-13.463-15.779-20.244h149.279zM502.565 428.353l37.372 4.983c4.287-21.176 11.589-36.436 21.902-45.781 10.309-9.342 22.872-14.013 37.683-14.013 17.577 0 32.421 6.088 44.534 18.269 12.111 12.18 18.167 27.268 18.167 45.263 0 17.16-5.605 31.314-16.817 42.457-11.212 11.14-25.467 16.713-42.768 16.713-7.061 0-15.851-1.385-26.368-4.152l4.151 32.804c2.492-0.279 4.497-0.415 6.020-0.415 15.915 0 30.241 4.152 42.978 12.457 12.734 8.304 19.101 21.105 19.101 38.409 0 13.703-4.638 25.051-13.911 34.049-9.274 8.996-21.249 13.495-35.918 13.495-14.532 0-26.646-4.567-36.334-13.703s-15.918-22.839-18.685-41.109l-37.371 6.643c4.567 25.050 14.948 44.462 31.142 58.237 16.194 13.771 36.334 20.658 60.418 20.658 16.609 0 31.903-3.565 45.884-10.693 13.979-7.13 24.67-16.853 32.078-29.171 7.401-12.321 11.107-25.4 11.107-39.239 0-13.152-3.53-25.122-10.589-35.918s-17.511-19.381-31.35-25.746c17.992-4.152 31.973-12.769 41.94-25.848 9.965-13.080 14.947-29.449 14.947-49.101 0-26.575-9.689-49.101-29.065-67.581-19.379-18.477-43.878-27.717-73.497-27.717-26.715 0-48.894 7.958-66.542 23.876-17.65 15.918-27.719 36.544-30.21 61.873zM11.753 287.38v31.142h709.433v-31.142h-709.433z" />
<glyph unicode="&#xe952;" glyph-name="dropdownlist" d="M0 961.536h1024v-73.143h-1024v73.143zM0 9.143h1024v-73.143h-1024v73.143zM0 960h73.143v-1024h-73.143v1024zM950.857 960h73.143v-1024h-73.143v1024zM292.571 521.143h438.857l-220.16-220.16z" />
<glyph unicode="&#xe953;" glyph-name="subsheet" d="M0 888.027h1024v-73.143h-1024v73.143zM0 82.286h1024v-73.143h-1024v73.143zM0 596.553h1024v-73.143h-1024v73.143zM0 303.982h1024v-73.143h-1024v73.143zM0 888.539h73.143v-878.885h-73.143v878.885zM950.857 888.539h73.143v-878.885h-73.143v878.885zM316.928 887.442h73.143v-878.885h-73.143v878.885zM633.929 887.442h73.143v-878.885h-73.143v878.885z" />
<glyph unicode="&#xe954;" glyph-name="checkbox-on" horiz-adv-x="724" d="M348.946 156.683c-52.738 59.389-101.264 116.118-152.293 170.512-21.534 22.951-12.045 36.949 4.611 55.201 21.802 23.893 33.501 4.376 48.033-8.176 78.184-67.478 78.806-67.824 137.987 13.184 51.098 69.921 113.359 128.789 179.714 183.405 11.906 9.799 25.568 39.93 46.98 13.649 16.105-19.746-0.58-36.317-14.393-51.261-67.583-73.119-123.238-154.891-173.358-240.581-25.38-43.38-49.718-87.37-77.281-135.932z" />
<glyph unicode="&#xe955;" glyph-name="source" d="M426.098 1.252c-211.797 0-383.488 71.538-383.488 159.801 0 3.072-0.171 6.827 0 9.87-0.37 0.284 0.37-0.256 0 0v93.554c69.063-67.527 214.841-114.062 383.488-114.062 0.42-0.001 0.918-0.001 1.416-0.001 44.868 0 88.941 3.403 131.976 9.964-3.595 15.512-1.143 30.364 2.481 44.75-40.637-8.388-87.024-12.133-134.287-12.133-0.558 0-1.115 0.001-1.673 0.002-211.71 0-383.401 71.538-383.401 159.801 0 3.072-0.085 6.827 0 9.899v93.525c69.063-67.527 214.841-114.062 383.488-114.062 168.676 0 314.453 46.535 383.516 114.062v-50.404c3.155 0.133 6.857 0.208 10.576 0.208 11.29 0 22.417-0.696 33.341-2.047l-1.308 385.582c-32.256 96.626-213.675 170.439-426.126 170.439-212.48 0-393.87-73.842-426.098-170.439v-660.48c32.256-96.597 207.332-175.929 426.098-173.625 65.308 0.711 129.308 8.050 184.604 20.537-9.037 11.515-17.66 24.44-25.269 38.011-47.664-7.559-101.574-12.757-156.697-12.757-0.928 0-1.855 0.001-2.782 0.004zM426.098 917.39c211.797 0 383.516-71.538 383.516-159.801 0-88.235-171.719-159.772-383.516-159.772s-383.488 71.538-383.488 159.772c0 88.263 171.691 159.801 383.488 159.801zM42.61 554.439v114.83c69.063-67.527 214.841-114.062 383.488-114.062 168.676 0 314.453 46.535 383.516 114.062v-114.83c-0.37-0.284 0.37 0.284 0 0 0.398-3.044 0-6.827 0-9.899 0-88.235-171.719-159.801-383.516-159.801s-383.488 71.566-383.488 159.801c0 3.072-0.398 6.855 0 9.899-0.37 0.284 0.37-0.284 0 0zM809.614 363.435c-117.664 0-213.049-95.385-213.049-213.049s95.385-213.049 213.049-213.049c117.664 0 213.049 95.385 213.049 213.049s-95.385 213.049-213.049 213.049zM809.614-20.053c-94.131 0-170.439 76.308-170.439 170.439s76.308 170.439 170.439 170.439c94.131 0 170.439-76.308 170.439-170.439s-76.308-170.439-170.439-170.439zM830.919 256.91h-42.61v-85.22h-85.22v-42.61h85.22v-85.22h42.61v85.22h85.22v42.61h-85.22v85.22z" />
</font>
</defs>
</svg>
