<?xml version="1.0" encoding="UTF-8"?>
<svg width="60px" height="60px" viewBox="0 0 60 60" version="1.1" xmlns="http://www.w3.org/2000/svg" xmlns:xlink="http://www.w3.org/1999/xlink">
    <!-- Generator: Sketch 44 (41411) - http://www.bohemiancoding.com/sketch -->
    <title>baobiaoxuanzhong</title>
    <desc>Created with Sketch.</desc>
    <defs>
        <polygon id="path-1" points="40 0.0684888889 40 3.06666667 20.0002 3.06666667 0.0004 3.06666667 0.0004 0.0684888889 40 0.0684888889"></polygon>
        <polygon id="path-3" points="0 44.9777778 40 44.9777778 40 0 0 0"></polygon>
    </defs>
    <g id="Page-1" stroke="none" stroke-width="1" fill="none" fill-rule="evenodd">
        <g id="3报表" transform="translate(-441.000000, -1240.000000)">
            <g id="底部" transform="translate(0.000000, 1236.000000)">
                <g id="报表" transform="translate(423.000000, 4.000000)">
                    <rect id="Rectangle-4" x="18" y="0" width="60" height="60"></rect>
                    <g id="Group-6" transform="translate(26.000000, 7.000000)">
                        <rect id="Rectangle-10" fill="#9FCFEB" x="5" y="23" width="7" height="18" rx="2"></rect>
                        <rect id="Rectangle-10" fill="#9FCFEB" x="34" y="11" width="7" height="30" rx="2"></rect>
                        <rect id="Rectangle-10" fill="#9FCFEB" x="19.5" y="5" width="7" height="36" rx="2"></rect>
                        <g id="Page-1">
                            <g id="Group-3" transform="translate(0.000000, 42.911111)">
                                <mask id="mask-2" fill="white">
                                    <use xlink:href="#path-1"></use>
                                </mask>
                                <g id="Clip-2"></g>
                                <path d="M38.5444,3.06666667 L1.4564,3.06666667 C0.6524,3.06666667 0.0004,2.39915556 0.0004,1.56706667 C0.0004,0.736 0.6524,0.0684888889 1.4564,0.0684888889 L38.5444,0.0684888889 C39.3474,0.0684888889 40.0004,0.740088889 40.0004,1.56706667 C40.0004,2.39915556 39.3514,3.06666667 38.5444,3.06666667" id="Fill-1" fill="#78828F" mask="url(#mask-2)"></path>
                            </g>
                            <mask id="mask-4" fill="white">
                                <use xlink:href="#path-3"></use>
                            </mask>
                            <g id="Clip-5"></g>
                            <path d="M3.824,35.9822222 L6.736,35.9822222 L6.736,20.9892889 L3.824,20.9892889 L3.824,35.9822222 Z M6.735,17.9911111 L3.824,17.9911111 C2.216,17.9911111 0.912,19.3343111 0.912,20.9892889 L0.912,35.9822222 C0.912,37.6412889 2.216,38.9804 3.824,38.9804 L6.735,38.9804 C8.343,38.9804 9.647,37.6372 9.647,35.9822222 L9.647,20.9892889 C9.647,19.3343111 8.343,17.9911111 6.735,17.9911111 L6.735,17.9911111 Z" id="Fill-4" fill="#78828F" mask="url(#mask-4)"></path>
                            <path d="M18.382,35.9822222 L21.294,35.9822222 L21.294,2.99817778 L18.382,2.99817778 L18.382,35.9822222 Z M21.294,0 L18.382,0 C16.775,0 15.471,1.3432 15.471,2.99817778 L15.471,35.9822222 C15.471,37.6412889 16.775,38.9804 18.382,38.9804 L21.294,38.9804 C22.901,38.9804 24.206,37.6372 24.206,35.9822222 L24.206,2.99817778 C24.206,1.3432 22.901,0 21.294,0 L21.294,0 Z" id="Fill-6" fill="#78828F" mask="url(#mask-4)"></path>
                            <path d="M32.941,35.9822222 L35.853,35.9822222 L35.853,8.99555556 L32.941,8.99555556 L32.941,35.9822222 Z M35.853,5.99737778 L32.941,5.99737778 C31.33,5.99737778 30.029,7.33648889 30.029,8.99555556 L30.029,35.9822222 C30.029,37.6412889 31.334,38.9804 32.941,38.9804 L35.853,38.9804 C37.46,38.9804 38.765,37.6372 38.765,35.9822222 L38.765,8.99555556 C38.765,7.33648889 37.464,5.99737778 35.853,5.99737778 L35.853,5.99737778 Z" id="Fill-7" fill="#78828F" mask="url(#mask-4)"></path>
                        </g>
                    </g>
                </g>
            </g>
        </g>
    </g>
</svg>