<?xml version="1.0" encoding="UTF-8"?>
<svg width="148px" height="120px" viewBox="0 0 148 120" version="1.1" xmlns="http://www.w3.org/2000/svg" xmlns:xlink="http://www.w3.org/1999/xlink">
    <!-- Generator: Sketch 46.2 (44496) - http://www.bohemiancoding.com/sketch -->
    <title>催办</title>
    <desc>Created with Sketch.</desc>
    <defs>
        <polygon id="path-1" points="79.4857868 57.177856 79.4857868 0.117009967 0.130703374 0.117009967 0.130703374 57.177856 79.4857868 57.177856"></polygon>
    </defs>
    <g id="Page-1" stroke="none" stroke-width="1" fill="none" fill-rule="evenodd">
        <g id="催办">
            <g id="Page-1">
                <path d="M90.5631773,18.5340199 C90.5631773,19.1872425 91.2174931,18.8607309 90.8903352,19.5137542 L90.23562,19.5137542 C89.9086618,19.9219934 90.23562,19.9219934 90.23562,20.1669767 C90.8903352,20.5752159 90.8903352,19.8404651 91.2174931,19.8404651 C91.2174931,20.4936877 91.8720086,20.4936877 92.6082138,20.8201993 C93.0174607,20.1669767 91.953898,20.1669767 92.2810559,19.4322259 L92.2810559,18.7790033 C91.5448507,19.1872425 91.2993825,18.5340199 90.5631773,18.5340199 L90.5631773,18.5340199 Z M104.552473,29.066711 C104.87983,28.4134884 103.898157,29.066711 103.898157,28.4134884 C103.898157,29.066711 103.243442,28.74 103.570799,29.3932226 C104.225115,29.3932226 103.816068,28.74 104.552473,29.066711 L104.552473,29.066711 Z M107.497693,13.4718937 C107.170335,14.4516279 106.106772,16.2478405 107.497693,16.5745515 C108.152009,16.9010631 107.497693,15.9213289 108.152009,16.2478405 C108.479366,16.9010631 107.497693,16.2478405 107.824851,16.9010631 C109.215771,17.8807973 109.870087,19.6772093 112.242681,20.0037209 C112.242681,20.3302326 111.261007,19.6772093 111.588165,20.3302326 C111.915123,20.3302326 112.242681,20.6569435 112.242681,21.3101661 C112.487949,21.3916944 112.569839,21.3916944 112.569839,21.3101661 C112.733418,21.2284385 112.815307,21.146711 112.896996,21.146711 C112.651728,22.2081728 114.942432,21.9631894 114.042449,22.616412 C114.369407,22.616412 114.369407,22.2899003 115.024122,22.616412 C115.024122,22.616412 114.696964,22.2899003 115.024122,22.2899003 C115.35128,22.9431229 115.35128,22.2899003 115.678638,22.2899003 C115.678638,22.616412 116.332953,22.9431229 116.005795,24.0043854 L115.35128,24.0043854 L115.35128,24.657608 C116.005795,24.657608 116.005795,24.657608 116.742001,24.3310963 C116.742001,24.657608 116.414843,24.9843189 115.760327,24.9843189 C116.414843,25.6373422 116.087685,25.6373422 116.742001,26.3722924 L120.096068,25.3925581 C119.76911,25.3925581 119.441952,25.7190698 119.441952,25.3925581 L119.441952,24.7393355 C118.787237,24.4126246 118.460079,23.7596013 118.051032,23.0246512 C117.723674,22.6981395 117.723674,23.6778738 117.396716,23.0246512 C117.396716,23.0246512 117.723674,23.0246512 117.723674,22.6981395 C117.396716,22.3714286 117.069358,22.3714286 117.069358,22.0449169 C116.742001,21.7184053 116.414843,22.6981395 116.087685,22.0449169 L116.742001,22.0449169 C116.742001,21.7184053 116.087685,21.3916944 116.087685,20.6569435 L115.106011,20.6569435 L115.106011,19.6772093 C112.32437,18.2890365 111.997013,14.9415947 108.315787,14.9415947 C108.315787,14.9415947 108.642745,15.5948173 108.315787,15.5948173 C108.642745,14.9415947 107.661072,14.6148837 108.315787,14.2066445 C108.642745,14.8598671 108.642745,13.8801329 109.297461,14.5333555 C109.297461,13.5536213 107.90674,12.4921595 106.925067,13.1453821 C106.843177,13.4718937 107.497693,13.1453821 107.497693,13.4718937 L107.497693,13.4718937 Z M88.5996308,18.2075083 C88.5996308,18.3707641 88.5996308,18.5340199 88.4360518,18.5340199 C88.4360518,18.5340199 88.1088939,18.5340199 88.1088939,18.2075083 L88.5996308,18.2075083 Z M86.6362839,18.2075083 C86.6362839,18.8607309 87.6998467,19.1872425 88.6815201,19.1872425 C88.6815201,18.7790033 88.6815201,18.7790033 89.008678,18.5340199 C88.6815201,18.5340199 88.6815201,18.5340199 88.6815201,18.2075083 L88.7632097,18.2075083 L88.7632097,17.5542857 C88.1088939,17.9625249 86.7181733,17.2277741 86.3906159,16.5745515 C86.0636578,16.5745515 86.0636578,16.9010631 86.0636578,16.9010631 C86.0636578,16.2478405 84.8365161,16.2478405 84.4272691,16.6560797 C84.7546267,15.7580731 83.2003271,16.9010631 81.8096065,16.4928239 C81.8096065,16.1663123 81.4820491,16.1663123 81.8096065,15.5130897 C81.155091,15.5130897 81.4820491,14.8598671 80.8277333,15.1865781 L80.8277333,16.9010631 C81.8096065,16.5745515 82.5456119,17.5542857 83.2003271,16.9010631 C83.8548426,18.2890365 85.163674,18.2890365 86.5543946,18.6157475 C86.5543946,18.2890365 86.2272367,17.6360133 86.5543946,17.6360133 C86.5543946,17.9625249 87.2089101,18.2890365 87.2089101,18.6157475 C86.6362839,18.9422591 87.3722893,17.8807973 86.6362839,18.2075083 L86.6362839,18.2075083 Z M27.5697036,99.5286379 C27.8970613,99.8553488 27.488014,100.508571 27.8970613,100.508571 C27.8970613,100.18186 28.2244189,99.5286379 27.5697036,99.5286379 L27.5697036,99.5286379 Z M71.0924891,85.1587375 C71.0924891,84.7504983 70.7651314,84.505515 70.1108157,84.505515 C70.4379735,84.8320266 70.4379735,85.1587375 71.0924891,85.1587375 L71.0924891,85.1587375 Z M103.48911,28.3317608 C103.161752,28.3317608 103.161752,28.3317608 103.161752,28.0052492 L102.180079,28.0052492 C102.180079,28.6584718 102.507237,28.6584718 102.507237,28.9849834 C103.161752,28.9849834 103.161752,28.6584718 103.48911,28.3317608 L103.48911,28.3317608 Z M80.582265,15.4313621 C79.6003919,15.1048505 80.2551072,16.0845847 79.6003919,16.0845847 L79.6003919,14.6966113 C77.2279978,14.6966113 76.9010397,14.6966113 74.8556038,14.0433887 C74.4467563,14.4516279 74.201288,14.6966113 73.4648831,14.6966113 L73.4648831,14.0433887 L72.4832097,14.0433887 C72.892257,14.6966113 72.4832097,14.3700997 73.1377252,15.5130897 C73.792041,15.5130897 74.5284459,16.1663123 74.8556038,15.5130897 C75.1829614,16.1663123 76.9010397,15.5130897 77.2279978,16.1663123 C76.9010397,15.5130897 77.8827131,15.1865781 78.6187185,15.5130897 L78.6187185,15.8396013 C78.2917603,15.8396013 77.6370451,15.4313621 77.6370451,16.1663123 C79.0279655,15.7580731 79.0279655,16.8195349 80.4186861,16.4928239 C79.9279493,15.7580731 80.582265,15.7580731 80.582265,15.4313621 L80.582265,15.4313621 Z M43.8499034,95.3647176 L43.6863244,95.5279734 C43.6863244,95.5279734 43.768014,95.5279734 43.768014,95.609701 C43.768014,95.4462458 43.8499034,95.3647176 43.8499034,95.3647176 L43.8499034,95.3647176 Z M65.3658278,15.1048505 C65.774875,14.4516279 66.4291908,14.7783389 66.7565484,14.4516279 C66.3475012,14.7783389 66.0203433,15.1048505 65.3658278,15.1048505 L65.3658278,15.1048505 Z M71.2558683,13.7168771 L69.5381895,13.7168771 C69.5381895,14.1251163 69.8653474,14.3700997 69.5381895,14.3700997 L69.3744108,14.3700997 C70.0287266,14.3700997 70.3562839,14.6966113 69.7017684,15.0231229 C69.7017684,14.6966113 69.7017684,14.6966113 69.3744108,14.3700997 L69.2108318,14.3700997 L69.2108318,13.7984053 C68.8017846,13.7984053 67.8201112,13.7984053 67.8201112,14.1251163 C67.1655957,13.4718937 65.1203595,13.7984053 64.465844,14.1251163 C64.465844,14.5333555 64.7932016,14.7783389 64.1386861,14.7783389 C63.4841706,14.7783389 64.5477333,14.1251163 63.8115282,14.1251163 C63.4841706,14.1251163 63.4841706,14.7783389 62.8296551,14.7783389 C62.1753393,13.7984053 60.1299034,14.4516279 58.7391827,14.7783389 C58.3301355,15.4313621 59.3936982,14.7783389 59.0665404,15.4313621 C58.4120248,15.0231229 59.0665404,16.0845847 58.4120248,15.7580731 C58.7391827,14.7783389 58.4120248,15.7580731 57.7575093,15.1048505 C57.7575093,15.4313621 58.0848669,16.0845847 57.7575093,16.0845847 L57.7575093,15.4313621 C55.3851152,15.4313621 54.6487104,16.8195349 52.2763163,16.8195349 C52.6851638,17.2277741 51.9489587,17.2277741 51.9489587,17.4725581 C48.5946915,18.8607309 45.4860923,20.5752159 43.1136982,22.616412 C43.5225457,22.616412 43.768014,22.2899003 43.768014,22.616412 C43.768014,23.2696346 43.1136982,23.5961462 43.1136982,24.3310963 C46.7951233,22.2899003 50.2310802,19.1872425 54.976068,18.2075083 C55.6305835,17.5542857 56.7756362,17.5542857 57.0211045,16.8195349 C57.0211045,17.1460465 57.0211045,17.1460465 57.3484621,17.1460465 C58.7391827,16.1663123 61.766292,16.4928239 63.1570127,15.4313621 C64.8748912,16.0845847 67.1655957,14.8598671 69.4563001,15.1048505 L71.1743784,15.1048505 C71.1743784,14.6966113 70.5196632,14.6966113 70.5196632,14.4516279 C70.9289101,14.3700997 71.2558683,14.0433887 71.2558683,13.7168771 L71.2558683,13.7168771 Z M42.2137144,94.3849834 C42.2137144,94.711495 42.2137144,95.0380066 41.5589992,95.0380066 C41.232041,95.6912292 42.2137144,95.0380066 41.8865565,95.6912292 C42.2137144,95.6912292 41.8865565,95.0380066 42.5408723,95.0380066 C42.86823,95.6912292 41.8865565,95.6912292 42.2137144,96.4261794 C42.86823,96.0994684 42.86823,96.752691 43.1953879,96.752691 C43.1953879,96.0994684 43.4408561,95.854485 43.768014,95.5279734 C43.2770775,95.0380066 42.704651,94.711495 42.2137144,94.3849834 L42.2137144,94.3849834 Z M95.7172124,22.5348837 C96.0441706,22.5348837 95.7172124,23.187907 96.0441706,23.5146179 C96.6988858,23.5146179 97.1079331,23.8411296 97.4348912,23.8411296 C97.8441382,23.8411296 97.4348912,23.2696346 98.0896065,23.5146179 L98.0896065,22.5348837 C97.4348912,22.5348837 97.4348912,21.8816611 96.3715282,22.2081728 L96.3715282,21.5549502 C95.9622812,21.9631894 95.9622812,21.2284385 95.7172124,21.2284385 C95.7172124,21.8816611 96.0441706,21.8816611 96.0441706,21.8816611 C96.3715282,22.2081728 95.7172124,21.7999336 95.7172124,22.5348837 L95.7172124,22.5348837 Z M100.462001,27.025515 C101.116516,27.3520266 101.852721,27.3520266 101.852721,28.0052492 C102.261768,27.6785382 102.507237,27.025515 102.507237,26.2905648 C101.852721,27.3520266 101.852721,24.9843189 100.462001,25.3108306 C100.789158,25.9640532 101.116516,25.9640532 101.443874,26.2905648 C100.789158,26.2905648 100.462001,26.698804 100.462001,27.025515 L100.462001,27.025515 Z M100.134843,24.5760797 C99.0712799,24.5760797 98.744122,24.5760797 98.0896065,24.2493688 C98.4165646,24.657608 97.4348912,24.2493688 97.7624486,24.5760797 C98.1714958,24.9025914 99.5622165,24.9025914 99.807485,25.555814 C99.4803271,24.9025914 100.134843,24.9025914 100.134843,24.5760797 L100.134843,24.5760797 Z" id="Fill-1" fill="#EDAC5B"></path>
                <path d="M28.551457,100.916751 L28.551457,101.896485 C28.8786148,101.896485 29.2059725,101.569774 29.2059725,101.243462 C28.551457,101.488246 29.2059725,100.508512 28.551457,100.916751 L28.551457,100.916751 Z M104.716132,14.6148239 C104.797821,14.533495 104.716132,14.533495 104.716132,14.6148239 C104.716132,14.533495 104.716132,14.6148239 104.716132,14.6148239 L104.716132,14.6148239 Z M38.5321695,27.9234618 C38.6140588,27.7604053 38.6957484,27.5154219 38.7776378,27.3519668 C38.1231223,27.5154219 38.0414327,28.0053887 37.3869171,28.331701 C37.3869171,28.658412 37.714075,29.3114352 37.3869171,29.3114352 C37.0595595,27.9234618 36.4052437,30.2913688 35.6688389,29.9648571 C35.9961965,30.944392 33.9509603,31.3528306 35.0143233,32.3327641 C34.3600076,32.740804 35.0143233,31.6793422 34.3600076,32.0058538 L34.3600076,32.985588 C33.3781344,32.5773488 33.705492,33.9655216 32.6419293,33.9655216 C32.6419293,34.6185449 31.9874138,34.6185449 32.3147714,35.353495 C32.7238186,35.353495 32.9690872,35.0267841 32.9690872,35.353495 L32.9690872,35.7619336 C32.3147714,35.7619336 31.9057242,36.1701728 31.5783665,36.4151561 C31.5783665,36.4151561 31.9057242,35.4350233 31.5783665,35.7619336 C31.5783665,36.7414684 30.923851,36.7414684 30.5966931,37.4762193 C30.923851,37.4762193 31.5783665,37.149907 31.5783665,37.4762193 C31.2512086,37.4762193 31.2512086,37.4762193 31.2512086,38.1296412 C34.3600076,35.353495 35.6688389,31.597814 38.7776378,29.229907 C38.3685906,28.8216678 38.2867012,28.5766844 38.3685906,28.1684452 L38.6957484,28.1684452 C38.7776378,28.0053887 39.0231061,27.8419336 39.186685,27.7604053 C39.186685,27.5969502 39.186685,27.4336944 39.1047957,27.2704385 C39.1047957,27.7604053 38.7776378,27.7604053 38.5321695,27.9234618 L38.5321695,27.9234618 Z M100.461881,26.290505 C100.461881,26.290505 100.298302,25.9639934 100.298302,25.6374817 C100.216812,25.8822658 100.052833,26.1274485 100.052833,26.290505 L100.461881,26.290505 Z M83.0366283,102.223196 C82.0547552,102.876219 80.2549873,102.876219 79.6823611,103.611169 C79.3552032,102.957947 78.7006877,103.611169 78.2916405,103.937681 C76.2464043,103.284458 73.5466526,104.591103 70.7652113,104.264193 C70.7652113,104.264193 70.7652113,104.591103 70.4378537,104.591103 C70.4378537,104.264193 70.7652113,104.264193 70.7652113,104.264193 C68.7199752,104.264193 67.4109441,103.937681 66.0202235,104.591103 L66.0202235,103.937681 C65.0385501,103.937681 64.3021452,103.937681 63.6476297,103.611169 C62.9933139,103.937681 62.9933139,104.264193 62.9933139,104.591103 C62.9933139,104.264193 62.6659563,104.264193 62.6659563,104.264193 C62.9933139,104.264193 62.9933139,103.937681 62.9933139,103.611169 C62.0114408,103.611169 61.2752356,103.284458 60.6207201,102.957947 C60.6207201,103.284458 60.9480777,103.611169 60.6207201,103.611169 C59.9662046,102.957947 58.9028416,102.631435 58.248326,102.223196 C58.248326,102.549708 58.5754839,102.876219 58.248326,102.876219 C58.248326,102.876219 57.9209684,103.20293 57.9209684,102.876219 C57.9209684,102.876219 58.248326,102.876219 58.248326,102.549708 C57.2666526,102.549708 56.5302478,102.223196 55.466685,101.896485 C55.1395271,101.896485 55.466685,102.549708 55.1395271,102.549708 C55.1395271,102.549708 54.8123692,102.876219 54.8123692,102.549708 C55.1395271,102.549708 55.1395271,102.549708 55.1395271,101.896485 C54.4850116,101.569774 53.7488065,102.223196 53.094291,101.896485 C53.094291,101.569774 54.0759644,102.223196 53.7488065,101.569774 C51.7035703,101.243462 50.9671655,99.5285781 49.0038186,99.2020664 C49.0038186,99.5285781 48.6766607,99.8554884 48.3493031,99.8554884 C48.0221452,99.2020664 48.6766607,99.2020664 48.6766607,98.8757542 C46.8766931,97.8958206 45.4042829,96.7526312 43.8497835,95.6096412 C43.6862046,96.1811362 43.9316729,96.4263189 43.9316729,96.8345581 L43.2771574,96.8345581 C43.6043152,97.4873821 44.2588308,97.8142924 44.9952356,98.2223322 C45.3223935,97.5691096 44.3407201,98.2223322 44.667878,97.5691096 L45.3223935,97.5691096 C45.3223935,98.2223322 45.6495514,98.5488439 45.6495514,98.9570831 C45.976909,98.9570831 45.976909,98.6305714 45.976909,98.6305714 C46.6314246,99.6103056 47.6947876,100.671767 49.7400238,100.671767 C49.4128659,100.998279 49.7400238,100.998279 49.7400238,101.325189 C50.3945393,101.325189 50.7218969,101.651701 51.1309441,101.651701 C51.1309441,101.325189 51.7852599,100.998279 52.1126175,101.325189 C51.7852599,101.325189 51.7852599,101.651701 51.7852599,102.304724 C52.4397754,102.304724 53.1761803,102.304724 53.5033382,102.957947 C54.1578537,103.284458 53.5033382,102.304724 54.1578537,102.631435 C53.8304961,103.284458 54.8123692,102.631435 54.4850116,103.284458 C57.5938105,103.937681 61.2752356,106.060605 64.7111924,105.325654 C65.0385501,105.325654 64.7111924,105.979076 65.365708,105.979076 C66.0202235,105.979076 65.6928659,105.325654 66.3473814,105.325654 L66.3473814,105.979076 C67.3290548,105.652365 68.3926175,105.979076 69.4561803,106.305389 C69.1290224,105.652365 69.7833382,105.652365 69.7833382,105.325654 C69.4561803,105.325654 69.1290224,105.979076 68.8016648,105.325654 C69.1290224,104.999143 69.4561803,104.999143 69.7833382,104.672631 C69.7833382,104.999143 70.4378537,104.672631 70.4378537,104.999143 L70.4378537,105.325654 C69.7833382,105.325654 69.7833382,105.325654 69.7833382,105.979076 C71.8285744,105.979076 73.5466526,105.652365 76.2464043,105.652365 C76.2464043,105.325654 75.9190467,104.999143 76.2464043,104.999143 L76.2464043,105.652365 C76.9009198,104.999143 78.6187984,105.325654 79.3552032,104.672631 C79.3552032,104.672631 79.3552032,104.999143 79.6823611,104.999143 C82.4638024,104.019209 85.8180696,103.611169 87.8633058,101.896485 C88.8449792,101.896485 90.6447471,101.569774 90.9721047,100.508512 C90.9721047,100.508512 90.9721047,100.835223 91.2992626,100.835223 C92.6082937,99.7737608 94.3261722,99.1203389 95.5533139,98.1406047 C95.7987822,98.0590764 95.8808713,98.0590764 95.9623611,97.9773488 C96.3716081,97.6508372 96.6168767,97.3243256 96.9442343,96.997814 C97.2713922,96.6709037 96.2897188,97.3243256 96.6168767,96.6709037 C97.5985501,96.997814 98.0075973,96.6709037 98.0075973,96.0180797 C98.3351547,96.0180797 98.0075973,96.3445914 98.0075973,96.6709037 C98.6621128,96.6709037 98.3351547,95.6911694 99.7258753,96.0180797 C100.052833,95.6911694 99.0711601,95.3646578 99.7258753,95.0381462 C99.9711439,95.2829302 100.216812,95.3646578 100.380191,95.3646578 L100.461881,95.4463854 L100.461881,95.3646578 C100.707549,95.2829302 100.870928,94.9566179 101.116396,94.7114352 L101.525443,94.7114352 L101.525443,94.3849236 C101.689222,94.303196 101.934491,94.303196 102.180159,94.303196 L102.180159,93.6499734 C103.898037,92.9969502 104.552553,91.2822658 106.270431,90.3025316 C106.270431,88.9143588 107.661152,88.9143588 107.661152,87.5263854 L108.315667,87.5263854 C108.315667,86.8733621 108.970183,85.8120997 108.315667,85.1586777 C109.297341,85.4851894 109.706388,84.8321661 110.033746,84.5054551 C112.40614,80.0967508 114.124218,76.9938937 115.514939,71.6050565 C114.533265,71.2785449 114.533265,72.5847907 113.469703,72.2582791 C112.078982,78.3818671 110.361103,81.157814 107.333994,85.1586777 C107.333994,85.8120997 107.661152,87.1998738 107.333994,87.5263854 C107.006836,87.1998738 106.679479,87.1998738 105.943273,87.1998738 C103.161832,90.5473156 100.134723,93.9768837 96.4532977,96.3445914 L96.4532977,96.6709037 C95.0625771,96.3445914 94.0809036,97.3243256 93.3444988,98.3857874 C90.9721047,98.7120997 89.2540265,100.753495 86.5542748,101.161734 C86.5542748,101.488246 86.8816324,101.814957 86.5542748,101.814957 C85.899959,101.161734 84.1818807,101.814957 83.7728335,102.794492 C83.0366283,102.876219 83.6909441,101.896485 83.0366283,102.223196 L83.0366283,102.223196 Z" id="Fill-3" fill="#EDAC5B"></path>
                <path d="M23.4793112,23.0246312 C23.4793112,22.8613754 23.1519536,22.943103 23.4793112,23.0246312 M23.5610008,22.3714086 C23.5610008,22.2898804 23.5610008,22.2898804 23.5610008,22.3714086 M41.8864367,23.5961262 C41.4773895,24.2493488 42.5409522,23.5961262 42.2135946,24.2493488 C41.5590791,24.657588 42.2135946,23.5961262 41.5590791,23.9228372 C41.5590791,23.9228372 41.8864367,24.5760598 41.5590791,24.5760598 L40.822874,24.5760598 C40.822874,24.9025714 40.4138267,24.9025714 40.1683584,24.9025714 C40.4138267,25.6373223 40.2502478,26.2090166 40.0047795,26.7805116 C41.2319212,26.3722724 41.7228578,25.3925382 42.6226418,25.1475548 C42.2135946,24.1678206 42.9499995,23.7595814 42.9499995,22.7796478 C42.2135946,22.8613754 42.5409522,23.5961262 41.8864367,23.5961262 M104.388774,14.2883522 C104.388774,14.451608 104.552553,14.5333355 104.716132,14.5333355 C104.716132,14.451608 104.634242,14.2883522 104.388774,14.2883522 M39.2685744,27.8419734 C39.2685744,28.168485 39.1047957,28.4949967 39.1047957,28.6584518 C39.4321533,27.9235017 39.6776216,27.2702791 39.9228901,26.7805116 C39.8412005,26.7805116 39.8412005,26.7805116 39.7593112,26.8620399 C39.8412005,27.3520066 39.5138429,27.59699 39.2685744,27.8419734 M18.8979023,34.4553289 C18.9797916,34.4553289 18.9797916,34.3738007 19.0614812,34.3738007 C18.8979023,34.3738007 18.8979023,34.3738007 18.8979023,34.4553289 M39.186685,27.5152625 L39.186685,27.3520066 C39.186685,27.025495 38.8595271,27.3520066 38.8595271,27.3520066 C38.8595271,27.3520066 38.8595271,27.4337342 38.7776378,27.4337342 L39.186685,27.5152625 C39.1047957,27.4337342 39.186685,27.5152625 39.186685,27.5152625 M100.461881,25.3108106 C100.380191,25.3925382 100.298302,25.555794 100.298302,25.7190498 C100.380191,25.555794 100.461881,25.3925382 100.461881,25.3108106" id="Fill-5" fill="#EDAC5B"></path>
                <path d="M18.4072653,34.6186047 C18.4889549,34.9453156 18.325376,35.0268439 18.2434866,35.190299 C18.2434866,34.863588 18.325376,34.7820598 18.4072653,34.6186047 M17.2618132,39.4359468 C17.2618132,39.4359468 16.9346553,38.7827243 17.2618132,38.4562126 C17.5891709,38.4562126 16.9346553,39.844186 17.5891709,39.4359468 C17.2618132,37.7212625 18.2434866,37.7212625 18.2434866,36.6598007 C18.0799077,36.5782724 17.9982181,36.333289 17.8344394,36.0067774 C17.9982181,35.8433223 18.0799077,35.5985382 18.161797,35.3535548 C18.7344232,35.4350831 18.4072653,36.0067774 18.9798915,35.6800664 C19.3070494,35.0268439 18.325376,35.6800664 18.6525339,35.0268439 C18.8980022,35.2718272 18.7344232,34.7003322 18.8163126,34.4553488 C18.7344232,34.5370764 18.5708443,34.5370764 18.4072653,34.4553488 C18.4889549,34.3738206 18.5708443,34.3738206 18.6525339,34.3738206 C18.6525339,34.0471096 17.9982181,33.720598 18.325376,33.393887 C18.325376,33.720598 18.9798915,33.393887 18.6525339,34.0471096 C18.9798915,34.3738206 18.6525339,33.720598 18.9798915,33.720598 L19.3070494,34.0471096 C19.1434704,34.0471096 19.0615811,34.2103654 18.9798915,34.292093 C18.9798915,34.292093 18.9798915,34.6186047 19.3070494,34.6186047 C21.0251277,31.2711628 22.6613166,27.8419934 25.4427579,25.4740864 L25.4427579,24.4943522 L26.0972734,24.4943522 C26.0972734,22.7796678 27.8153517,23.1063787 28.1425096,21.3916944 L28.7970251,21.3916944 C29.124183,20.4119601 30.1877457,19.3504983 31.1694192,18.6157475 C32.5601398,17.6360133 33.2146553,16.2478405 34.5236864,15.8396013 C34.8508443,15.1865781 35.1782019,14.8598671 35.5053598,14.4516279 C36.4870332,14.7783389 36.1598753,13.7984053 37.2234381,13.7984053 C38.6141587,11.7572093 41.9682262,11.0224585 44.0134623,9.06299003 C49.1674974,7.34830565 53.5034381,4.65388704 60.0481938,3.91913621 C60.3753517,3.59242525 59.3936783,3.59242525 60.0481938,3.26591362 C64.1386661,3.59242525 69.5381695,2.61269103 75.0193625,2.93940199 C75.0193625,2.61269103 75.0193625,2.2861794 75.673878,2.61269103 C75.3465204,2.93940199 76.0010359,2.93940199 76.0010359,3.26591362 C77.3917565,2.93940199 78.7824772,3.91913621 79.3553031,3.26591362 C80.0096189,3.91913621 82.1367444,4.65388704 82.4637026,3.26591362 L82.4637026,4.24564784 C83.1184178,4.24564784 83.8548227,4.24564784 84.1819806,4.5723588 C84.5091385,3.91913621 83.8548227,3.91913621 83.8548227,3.59242525 C84.5091385,3.91913621 83.8548227,2.93940199 84.5091385,3.26591362 C84.8364961,3.91913621 83.8548227,3.26591362 84.1819806,3.91913621 C84.5091385,3.91913621 84.5091385,4.24564784 84.5091385,4.5723588 C85.8998591,4.5723588 87.2905798,5.22538206 88.2722532,5.55209302 C88.2722532,5.55209302 88.2722532,5.22538206 88.5996108,5.22538206 C87.945295,4.89887043 88.9269684,4.5723588 88.2722532,3.83740864 L88.9269684,3.83740864 C88.9269684,4.1641196 88.9269684,4.1641196 89.2539266,4.49063123 C88.5996108,4.81714286 88.5996108,5.14385382 88.5996108,6.20531561 C88.9269684,6.53182724 88.5996108,5.55209302 88.9269684,5.55209302 C88.9269684,5.55209302 89.2539266,5.22538206 89.2539266,5.55209302 C89.2539266,5.55209302 88.9269684,5.55209302 88.9269684,5.87860465 C89.2539266,5.87860465 89.2539266,5.87860465 89.2539266,6.20531561 C89.5814839,6.53182724 89.5814839,5.87860465 89.9086418,5.87860465 L89.9086418,6.53182724 C95.3898348,8.24651163 99.3984178,11.2674419 103.898137,14.0433887 C103.898137,13.7168771 104.552453,13.3901661 104.879811,13.7168771 C104.634143,13.7168771 104.797921,14.2883721 104.634143,14.3700997 L105.288858,14.3700997 C105.615816,13.3901661 105.615816,12.0021927 105.615816,11.0224585 C104.634143,11.3489701 104.634143,10.0427243 103.570779,10.3692359 C103.898137,10.0427243 103.570779,10.0427243 103.570779,9.71601329 C99.807465,7.67481728 96.4531978,5.63362126 92.6900831,3.91913621 C92.3629252,3.91913621 92.6900831,4.5723588 92.0357673,4.24564784 L92.0357673,3.67415282 C90.3176891,3.67415282 89.2539266,1.95946844 87.6179374,2.6944186 C87.945295,2.6944186 87.945295,2.6944186 87.945295,3.02093023 C87.2905798,3.3476412 86.5543746,3.3476412 85.8998591,3.67415282 C85.8998591,3.02093023 86.5543746,3.3476412 86.5543746,2.6944186 C86.8815325,2.36770764 86.2272167,3.3476412 86.8815325,3.02093023 C86.8815325,2.6944186 87.5362478,3.02093023 87.2088901,2.36770764 C84.8364961,1.71468439 82.4637026,0.979734219 79.682461,0.653222591 C79.682461,0.979734219 79.682461,1.30644518 79.3553031,1.30644518 C79.682461,0.653222591 78.7007876,0.653222591 77.9643827,0.653222591 C77.9643827,0.979734219 77.6370251,1.30644518 76.9827093,1.30644518 L76.9827093,0.326511628 C75.264631,0 73.8739104,1.30644518 73.6286418,0 C72.6467687,0.326511628 72.6467687,0 71.5834057,0.326511628 C70.6015325,-0.326511628 68.2291385,0.326511628 66.102013,0.653222591 C66.102013,1.30644518 65.1203395,0.979734219 65.7748551,1.63295681 C65.6112761,1.63295681 65.2839185,1.71468439 65.1203395,1.79621262 L65.1203395,1.63295681 L64.9567606,1.79621262 C64.7931816,1.79621262 64.7112923,1.79621262 64.7112923,1.63295681 C64.7112923,1.30644518 65.3658078,1.30644518 65.0386499,0.979734219 C62.2570089,0.653222591 60.9481776,1.63295681 58.5755838,1.30644518 C58.9029414,1.63295681 58.2484259,1.63295681 58.2484259,1.95946844 C56.8577053,1.63295681 54.4851115,2.61269103 53.0943908,3.3476412 C52.4398753,3.67415282 53.0943908,2.6944186 52.4398753,3.02093023 C51.0491547,3.67415282 49.658434,3.67415282 48.349403,4.40890365 C48.349403,4.73561462 48.6767606,5.06212625 48.349403,5.06212625 C48.0222451,4.08239203 46.9586823,5.06212625 46.6315244,5.06212625 C46.6315244,5.38883721 46.9586823,6.04186047 46.6315244,6.04186047 C46.3041668,6.04186047 46.9586823,4.65388704 46.3041668,5.06212625 L45.6496513,5.71534884 C36.4053436,9.47122924 30.0241668,15.1865781 23.8884583,22.0449169 C23.8884583,22.3714286 24.5429738,22.3714286 24.5429738,22.6981395 C23.8884583,22.3714286 24.5429738,23.3513621 23.8884583,23.0246512 C23.8884583,22.6981395 24.2156162,22.3714286 23.64299,22.3714286 C23.7248794,22.5348837 23.806569,23.0246512 23.5611007,23.0246512 L23.4794111,23.0246512 C23.4794111,23.1063787 23.3975217,23.187907 23.2339428,23.3513621 C22.9067849,23.6778738 22.2522694,23.6778738 22.2522694,24.0043854 L22.2522694,24.657608 C21.9249117,24.657608 21.5977538,24.657608 21.270596,24.9843189 C21.270596,25.3108306 21.270596,25.9640532 20.9432383,26.3722924 C20.6160804,27.025515 20.6160804,26.698804 20.2887228,27.3520266 L19.5525177,27.6785382 C19.5525177,28.0052492 19.5525177,28.6584718 19.2253598,29.066711 C19.8796756,29.3932226 19.2253598,28.0867774 19.8796756,28.4134884 C19.8796756,29.066711 19.5525177,29.3932226 19.5525177,30.1279734 C19.5525177,30.1279734 19.7160966,30.4546844 19.797986,30.781196 L19.634407,30.781196 C19.634407,30.6179402 19.5525177,30.4546844 19.5525177,30.209701 L18.2434866,30.209701 C17.5891709,31.5976744 17.2618132,32.9856478 16.5256081,33.9655814 C16.852766,33.9655814 16.852766,34.9453156 16.5256081,35.3535548 C16.5256081,35.3535548 16.5256081,35.0268439 16.1982505,35.0268439 C16.3620291,35.190299 16.3620291,35.5168106 16.5256081,35.6800664 C15.8710926,35.6800664 16.1982505,37.7212625 15.1348874,37.0680399 C15.4620453,36.4150166 15.4620453,36.0883056 15.7892032,35.3535548 L15.1348874,35.3535548 C15.1348874,35.6800664 15.4620453,36.7415282 14.8075298,36.7415282 C14.8075298,37.0680399 15.4620453,37.0680399 15.1348874,37.7212625 L14.1530143,37.7212625 C14.4803719,38.374485 13.8258564,38.374485 13.8258564,38.7009967 C14.4803719,38.374485 14.4803719,39.0277076 14.8075298,39.0277076 C15.1348874,38.7009967 14.8075298,38.0479734 15.4620453,38.0479734 C15.1348874,39.0277076 15.1348874,39.4359468 15.4620453,40.4156811 C15.1348874,40.4156811 14.4803719,40.7421927 14.4803719,40.4156811 C14.1530143,40.0891694 14.8075298,40.0891694 14.8075298,39.7624585 C13.8258564,40.0891694 14.1530143,39.4359468 13.4168092,39.4359468 C13.7439671,40.8239203 13.0896513,41.1504319 13.4168092,42.2118937 L12.7622937,42.2118937 C12.7622937,44.5798007 11.7806202,46.2942857 11.371573,48.6621927 C11.0442154,51.0299003 11.371573,51.7646512 10.7170575,54.1325581 L13.8258564,54.1325581 C13.9077457,47.6007309 15.5439347,44.1715615 17.2618132,39.4359468" id="Fill-7" fill="#EDAC5B"></path>
                <path d="M28.224359,100.508532 C28.8786748,100.835243 28.8786748,100.181821 29.2060324,100.181821 L29.2060324,99.528598 L28.5515169,99.528598 C28.7969852,100.181821 28.224359,100.181821 28.224359,100.508532 M100.134783,111.041023 C100.052893,111.122751 99.8893144,111.204279 99.8074251,111.204279 C99.8893144,111.122751 100.052893,111.041023 100.134783,111.041023 M76.7372011,117.736106 C76.7372011,117.736106 76.4100432,117.736106 76.4100432,117.082884 C76.3281538,117.082884 76.3281538,117.082884 76.2464642,117.001355 C76.4919325,116.919628 76.7372011,116.8381 76.7372011,117.082884 C76.7372011,117.327867 77.0645587,117.736106 76.7372011,117.736106 M119.523582,87.2816213 C119.196424,87.9346445 120.178097,87.2816213 119.850939,87.9346445 C119.523582,87.9346445 119.523582,88.5878671 118.869066,88.2615548 C118.541908,89.241289 118.21475,90.3025515 118.21475,91.6089967 L117.887393,91.2822857 C118.21475,91.2822857 118.21475,91.2822857 118.21475,90.6290631 C117.560235,91.6089967 116.82383,92.3437475 116.169514,93.40501 C115.842157,93.7317209 116.82383,94.0584319 116.496672,94.3849435 C116.496672,94.3849435 116.169514,94.3849435 116.169514,93.7317209 C115.514999,94.3849435 114.778394,95.1196944 114.778394,96.0994286 C114.451436,96.4263389 114.451436,96.0994286 114.124278,96.0994286 C114.124278,96.4263389 114.124278,97.0791628 113.142405,97.0791628 C112.488089,98.4673355 110.033806,99.4470698 110.770011,100.835243 L110.115495,100.181821 L110.115495,100.835243 C107.743101,101.488266 106.761428,103.937701 104.307144,104.917435 C104.307144,105.080691 104.388834,105.162618 104.470723,105.162618 C103.898097,104.999163 103.57074,105.570857 102.916224,105.570857 L102.916224,106.22388 C99.5621565,108.265076 96.1261997,109.571322 93.0174008,111.694246 C92.6900432,111.367734 90.9721646,112.020757 90.6446073,112.67398 C90.6446073,112.67398 90.6446073,112.347668 90.3176491,112.347668 C88.9269285,113.327402 86.5543347,113.735442 84.5090985,114.061953 C84.1819406,114.715375 84.8364561,114.388664 84.8364561,115.041688 C84.5090985,115.041688 84.1819406,115.368399 83.8547827,115.041688 C84.1819406,115.041688 84.1819406,115.041688 84.1819406,114.715375 C83.5274251,115.041688 84.1819406,114.061953 83.5274251,114.388664 C82.5457517,115.041688 80.1733576,114.388664 79.4369528,115.368399 C78.7824372,114.715375 77.0645587,115.368399 76.3281538,115.368399 C76.9826694,116.021621 76.000996,116.021621 76.3281538,117.082884 L76.4100432,117.082884 C76.3281538,117.246339 76.5736221,117.736106 76.000996,117.409595 C76.3281538,116.756372 75.3464804,117.082884 75.3464804,116.756372 C75.0193225,116.42986 75.6738381,116.42986 75.6738381,116.10315 C74.6919649,116.10315 75.0193225,117.817834 73.6286019,117.082884 C73.6286019,116.756372 73.3012443,116.42986 73.6286019,116.42986 C74.2829177,116.10315 73.6286019,117.409595 74.2829177,117.082884 L74.2829177,115.368399 C73.6286019,115.041688 73.3012443,116.021621 72.892197,115.368399 C72.892197,116.021621 71.5014764,115.69511 71.1743185,115.69511 C71.1743185,116.021621 71.5014764,116.674844 71.1743185,116.674844 C70.8469609,115.69511 70.8469609,117.327867 70.519803,117.001355 C70.1924453,116.348133 71.1743185,116.348133 70.8469609,115.613382 L69.1290823,115.613382 C69.1290823,115.939894 70.1107557,115.939894 70.1107557,116.266405 C70.1107557,116.266405 70.1107557,116.919628 69.7833981,116.919628 C69.4562402,116.919628 69.7833981,116.266405 69.1290823,116.593116 C69.4562402,116.919628 69.7833981,117.57285 69.1290823,118.307601 C69.7833981,118.389329 70.2743347,118.389329 70.8469609,118.389329 C70.6833819,118.552585 70.4379136,118.715841 70.1924453,118.715841 C70.1924453,119.042551 70.1924453,119.369063 70.519803,119.369063 C70.7652713,118.879296 71.6650553,118.879296 71.7469447,118.634512 C71.992413,118.634512 72.2376815,118.552585 72.4014602,118.552585 L72.4014602,119.205807 C72.7286181,118.879296 72.7286181,119.85903 72.7286181,119.205807 C72.4014602,118.879296 72.7286181,118.879296 72.7286181,118.552585 L72.4831498,118.552585 C74.0376491,118.389329 75.2647908,118.144545 76.1643752,118.634512 C77.2281377,118.389329 78.7007476,118.307601 79.7643104,117.98109 C79.6824211,118.144545 79.5188421,118.307601 79.5188421,118.634512 L80.1733576,118.634512 C80.1733576,118.226073 80.2550472,117.98109 80.2550472,117.899362 C80.6640945,117.736106 80.9095628,117.57285 81.155031,117.327867 C81.4819892,117.654777 80.8276734,117.654777 80.8276734,117.98109 C81.8095466,117.654777 83.2002672,117.654777 83.6093144,117.001355 C83.9364723,117.001355 83.9364723,117.001355 83.9364723,117.327867 C84.5909879,117.327867 84.5909879,116.674844 85.3269933,116.674844 C85.3269933,117.001355 85.3269933,117.327867 85.6545506,117.327867 C86.3088664,117.001355 86.636224,116.674844 87.6997868,116.674844 C87.6997868,116.348133 87.3724291,115.69511 87.6997868,115.69511 C88.0269447,116.674844 89.0905074,116.021621 89.7450229,116.021621 C89.7450229,115.776638 89.2540864,115.531654 89.2540864,115.368399 L89.7450229,115.368399 L89.7450229,115.69511 C89.8267126,115.69511 89.9086019,115.69511 89.9904912,115.613382 C90.5631174,115.531654 90.9721646,115.368399 91.5447908,115.205342 C91.5447908,115.368399 91.6264804,115.449927 91.8719487,115.28687 C91.8719487,115.205342 91.9538381,115.123415 91.9538381,115.123415 C93.1809798,114.715375 94.3262321,114.307136 95.3897949,113.817169 C95.5533738,114.143681 95.7988421,114.225409 96.0443104,113.980425 L96.0443104,113.490458 C97.1895628,112.918963 98.3350148,112.347668 99.3985776,111.694246 L99.3985776,111.857701 L100.380251,111.857701 C100.380251,111.612518 100.54383,111.204279 100.54383,111.122751 C100.707409,111.041023 100.952877,110.877967 101.116456,110.79604 C101.361924,110.79604 101.525503,110.632784 101.689082,110.469728 C102.180019,110.224545 102.670955,109.979761 103.243582,109.734578 C103.243582,109.408066 102.916224,109.081555 103.243582,108.754844 C103.243582,109.081555 103.243582,109.408066 103.57074,109.408066 C105.943333,108.428332 107.661212,106.63212 109.706448,105.325674 C110.033806,104.672651 109.051933,105.325674 109.37929,104.672651 C110.033806,104.34594 109.37929,105.325674 110.033806,104.999163 C110.033806,104.672651 109.706448,104.019229 110.033806,104.019229 C110.360964,104.019229 109.706448,104.999163 110.360964,104.672651 C112.4062,101.896505 115.514999,100.263548 117.151188,97.1608904 C116.82383,97.1608904 116.496672,97.487402 116.496672,97.1608904 C116.82383,97.1608904 116.82383,96.8343787 117.151188,96.8343787 L117.151188,97.487402 C118.132661,97.1608904 118.541908,95.7729169 119.196424,94.7114551 C119.523582,94.3849435 119.850939,94.3849435 120.178097,94.0584319 C120.505255,93.7317209 120.178097,93.0786977 120.505255,92.6704585 C120.832613,92.3437475 121.487128,92.0170365 121.896175,91.6907243 C122.223333,91.0373023 122.223333,90.3025515 122.550491,89.6493289 C122.550491,89.3226179 123.205007,89.6493289 123.205007,89.3226179 L123.205007,88.5878671 L124.18668,87.6081329 C124.514038,86.6283987 124.841196,85.2402259 125.168553,84.5054751 C125.495711,84.5054751 125.822869,84.5054751 125.822869,84.1789635 C125.822869,83.8522525 125.495711,83.1990299 125.822869,82.7907907 C125.822869,82.4644784 126.477385,82.4644784 126.477385,82.1377674 L126.477385,81.1578339 C126.477385,81.1578339 127.1319,81.1578339 127.1319,80.8313223 L127.1319,79.851588 C127.1319,79.851588 127.786216,79.5248771 127.786216,79.1983654 C127.786216,78.2188306 127.786216,77.1571694 128.113574,76.0957076 C128.113574,76.0957076 128.768089,75.7693953 128.768089,75.442485 C129.095247,73.4014884 129.095247,71.0335814 129.749563,69.318897 L126.968321,68.6658738 C125.65929,76.0957076 123.614054,82.8725183 119.523582,87.2816213 M68.0655196,117.164811 C68.3926775,117.491123 67.6564723,117.164811 67.6564723,117.817834 L68.3109879,117.817834 C68.3926775,117.491123 68.3926775,117.164811 68.0655196,117.164811 M67.0019568,117.654777 C66.7564885,117.082884 66.7564885,117.409595 67.0019568,116.756372 C66.0202834,116.42986 64.9567206,116.42986 63.6476896,116.756372 C63.6476896,116.42986 62.9933738,116.10315 62.6660162,116.10315 C62.6660162,116.42986 62.9933738,116.756372 62.6660162,116.756372 C62.3388583,116.756372 62.3388583,116.42986 62.3388583,116.10315 C61.6843428,116.42986 60.9481377,116.42986 60.62078,116.10315 C60.3753117,116.593116 60.4572011,116.919628 60.4572011,117.246339 C60.5390904,117.899362 60.62078,118.389329 60.2117328,118.552585 C60.8662483,118.879296 60.8662483,119.532518 61.9298111,119.205807 C62.256969,118.552585 61.2752955,119.205807 61.6024534,118.552585 C62.5843266,118.552585 64.7112524,117.899362 63.9750472,119.205807 L63.9750472,118.552585 C63.3205317,118.879296 63.3205317,119.205807 62.9933738,119.532518 C64.3840945,119.532518 66.101973,119.85903 66.3474413,118.879296 L66.3474413,119.85903 C66.6747989,119.85903 66.6747989,118.471056 66.6747989,117.817834 C66.8383779,117.654777 66.9200675,117.654777 67.0019568,117.654777 M66.7564885,119.85903 L67.411004,119.85903 C67.0838462,118.797568 68.0655196,118.797568 68.0655196,118.471056 C67.7381619,118.144545 66.7564885,118.879296 66.7564885,119.85903 M33.541973,104.509196 C33.7872416,104.509196 34.0327099,104.34594 34.1962888,104.34594 C34.1962888,104.264213 34.2781781,104.264213 34.2781781,104.182884 C33.8691309,103.855973 33.8691309,104.509196 33.541973,104.509196 M94.6535897,20.5751761 C94.6535897,20.901887 94.3262321,21.2283987 94.3262321,21.5549103 C93.6719163,21.1466711 94.3262321,20.4936478 94.3262321,20.1669369 C93.2628691,20.1669369 93.6719163,19.1872027 92.280996,19.5137143 C92.6900432,20.1669369 92.9355115,20.1669369 93.3445587,20.4936478 C92.9355115,20.901887 92.6900432,20.901887 92.6900432,21.1466711 C93.3445587,21.4733821 93.6719163,21.7998937 94.4081215,22.1266047 C94.4081215,21.7998937 94.7352794,21.7998937 95.3897949,21.7998937 C95.062637,21.1466711 95.062637,21.4733821 95.3897949,20.8201595 C94.6535897,21.3101262 95.3081053,20.2486645 94.6535897,20.5751761 M25.5246073,50.1316545 C25.8517652,50.1316545 26.5062807,49.8051429 27.2424858,49.8051429 L27.2424858,48.4171694 C25.8517652,48.4171694 25.8517652,49.8051429 25.5246073,50.1316545 M29.9422375,37.8844784 C29.9422375,37.8844784 29.9422375,38.2111894 29.6150796,38.2111894 C29.6150796,38.6194286 29.9422375,38.864412 29.9422375,39.5991628 L29.0424534,39.5991628 C28.0605803,42.2935814 26.6698596,44.7430166 25.9336545,48.0904585 L26.9153279,48.0904585 C26.9153279,48.0904585 26.9153279,47.7639468 27.2424858,47.7639468 C27.2424858,47.4374352 26.9153279,46.3759734 27.2424858,46.0492625 L27.5698435,46.0492625 C27.9788907,45.6410233 27.5698435,46.3759734 28.224359,46.3759734 C28.224359,46.0492625 28.8786748,45.7227508 28.5515169,44.661289 C29.9422375,43.2733156 29.9422375,40.578897 31.3329582,39.1909236 C30.6786424,38.537701 31.3329582,38.7826844 31.3329582,37.8029502 C31.2512686,37.8844784 29.9422375,37.8844784 29.9422375,37.8844784" id="Fill-9" fill="#EDAC5B"></path>
                <path d="M67.0019368,117.654698 C67.0019368,117.981209 67.2474051,117.57297 67.0019368,117.654698 M46.5495752,112.347588 C46.5495752,112.347588 46.2224173,112.6741 46.2224173,112.347588 C46.2224173,112.102405 46.6314645,112.26586 46.6314645,111.93915 C46.7131541,112.102405 46.7131541,112.347588 46.5495752,112.347588 M56.1212405,114.715296 C53.3397992,114.388585 50.9672054,113.327322 48.5948113,112.347588 L48.5948113,112.6741 C48.5948113,112.020678 47.6131379,112.6741 47.9402958,112.020678 C47.2857803,112.020678 46.9586224,112.347588 46.5495752,111.694365 C45.8950596,111.040944 45.1588545,110.306392 43.7681339,110.306392 C43.7681339,110.632704 43.4407762,110.959415 43.1136184,110.959415 C43.1136184,110.632704 43.7681339,110.632704 43.4407762,109.979681 C42.4591028,109.65297 41.7228977,108.591508 40.659335,108.265196 L40.0048194,108.918219 C39.6776615,108.591508 39.3503039,108.591508 39.023146,108.265196 C39.3503039,106.877023 37.3050677,106.223801 35.9143471,105.897289 C36.241505,104.917555 34.9326737,105.570777 35.2598316,104.509316 C34.9326737,104.182804 34.9326737,104.835628 34.6053161,104.835628 C34.6053161,104.672571 34.3600475,104.672571 34.1962688,104.591043 C33.9510003,105.243867 34.1962688,106.142272 33.6236426,106.142272 C33.9510003,105.48905 32.9691271,105.815561 32.9691271,105.48905 L32.9691271,104.835628 L33.7872216,104.835628 C33.1329058,104.509316 33.1329058,103.855894 33.7872216,103.447854 C33.7872216,102.794432 33.4600637,103.774365 32.8055482,104.101076 C32.4783903,104.427588 33.4600637,104.427588 32.8055482,104.7541 C32.8055482,104.7541 32.8055482,104.427588 32.4783903,104.427588 C32.1510327,104.7541 32.1510327,105.407522 32.1510327,106.142272 C33.1329058,106.142272 33.1329058,106.795296 33.8691109,107.121807 C33.8691109,106.795296 33.8691109,106.468784 34.1962688,106.468784 L34.1962688,107.448718 C35.9143471,108.428452 37.550536,109.816425 39.6776615,110.796159 C40.0048194,109.408186 41.0683822,111.449183 41.7228977,110.469648 C41.7228977,110.796159 42.0500556,110.796159 42.0500556,111.122671 C41.3955401,111.122671 41.3955401,111.449183 41.3955401,112.102405 C42.7862607,111.775894 43.1136184,112.428917 43.7681339,113.082339 C44.0952918,112.755827 43.1136184,112.428917 43.7681339,112.102405 C44.0952918,112.428917 44.0952918,112.755827 44.0952918,113.490379 C45.4860124,113.81709 46.4676858,114.143801 47.8586062,114.878352 C48.1857641,114.225329 47.2040907,114.225329 47.2040907,113.490379 C47.8586062,113.164066 47.2040907,114.143801 47.8586062,113.81709 C48.1857641,113.490379 48.1857641,113.164066 48.1857641,112.428917 C48.512922,112.755827 49.5764848,113.408651 48.8402796,114.143801 C48.8402796,114.143801 48.8402796,113.81709 48.512922,113.81709 C48.512922,114.470113 48.8402796,114.797023 48.8402796,115.205262 C50.2310003,114.878352 50.2310003,115.531774 51.2126737,115.531774 C51.2126737,115.205262 51.5400313,114.878352 51.5400313,114.55204 C51.5400313,114.55204 51.8671892,114.878352 51.8671892,115.531774 L52.8488626,115.531774 C52.5217047,116.184997 52.8488626,116.184997 52.8488626,116.511508 C53.5852675,116.756292 54.3214726,116.919548 55.0576777,117.164731 C55.2214564,117.409714 55.303146,117.491243 55.3850354,117.491243 C55.8757722,117.654698 56.2031298,117.736027 56.775756,117.899482 C56.4485981,117.246259 57.1029139,116.919548 57.1029139,116.511508 C57.4302715,116.511508 56.775756,117.491243 57.4302715,117.164731 C57.7574294,116.511508 57.1029139,116.511508 57.1029139,116.184997 L57.7574294,116.184997 L57.7574294,115.123535 C57.1029139,115.123535 56.775756,115.449847 56.3667088,115.449847 C56.4485981,115.123535 56.1212405,115.123535 56.1212405,114.715296" id="Fill-11" fill="#EDAC5B"></path>
                <path d="M18.4072653,56.173794 C18.4072653,56.2553223 18.325376,56.2553223 18.325376,56.3370498 L18.4072653,56.4187774 C18.4889549,56.4187774 18.5708443,56.3370498 18.5708443,56.2553223 L18.4072653,56.173794 L18.4889549,56.0105382 C18.4889549,55.7655548 18.5708443,55.5205714 18.8163126,55.3573156 C18.8163126,55.275588 18.8163126,55.1940598 18.8980022,55.1123322 C16.852766,55.3573156 17.9982181,55.0306047 17.4253922,55.1940598 C17.7527498,55.6838272 17.9982181,55.9288106 18.161797,56.173794 L18.4072653,56.173794 L18.4072653,56.173794 Z M63.5660399,42.8651561 C63.7296189,43.028412 63.8115082,43.1916678 63.8931978,43.2733953 C64.1386661,43.1916678 64.465824,43.1101395 64.6296027,43.028412 C64.5477134,42.7834286 64.465824,42.5386445 64.465824,42.2936611 C63.8931978,41.9669502 63.8931978,42.5386445 63.5660399,42.8651561 L63.5660399,42.8651561 Z M69.5381695,41.7221661 L69.3743908,41.8854219 C69.5381695,41.8854219 69.6198591,41.8036944 69.7834381,41.8036944 C69.7017484,41.8036944 69.6198591,41.7221661 69.5381695,41.7221661 L69.5381695,41.7221661 Z M68.3110278,42.2119336 C68.4746067,42.2119336 68.6381857,42.2119336 68.720075,42.1304053 C68.5562964,42.1304053 68.4746067,42.1304053 68.3110278,42.2119336 L68.3110278,42.2119336 Z M66.8384178,42.4569169 C66.5110602,42.7834286 66.8384178,43.028412 66.5110602,43.028412 C65.8567444,42.7834286 65.2839185,42.8651561 64.7112923,42.9468837 C64.9567606,43.4366512 65.2839185,43.6816346 65.4476972,43.9266179 C65.4476972,43.6816346 64.7931816,43.3551229 65.4476972,43.1101395 C65.7748551,43.9266179 66.5929495,43.6816346 66.9201074,44.2531296 C67.1655757,43.9266179 67.4929333,43.9266179 68.0655595,43.9266179 L68.0655595,43.2733953 C67.4929333,42.9468837 67.247465,44.1716013 66.9201074,43.599907 C67.247465,43.2733953 67.7382019,43.028412 67.8200912,42.5386445 C67.8200912,42.6201728 67.7382019,42.6201728 67.7382019,42.7019003 C67.9836702,42.2119336 67.0838861,42.4569169 66.8384178,42.4569169 L66.8384178,42.4569169 Z M69.9472167,41.7221661 C70.1107957,41.6404385 70.2743746,41.6404385 70.5198429,41.558711 L70.5198429,41.3139269 C70.1107957,41.3954551 70.1107957,41.6404385 69.9472167,41.7221661 L69.9472167,41.7221661 Z M59.2300993,116.838179 C59.8846148,115.858246 61.2753355,116.511468 59.2300993,115.858246 C59.2300993,116.838179 58.9029414,117.246219 58.9029414,117.899442 C58.9029414,117.899442 57.9210683,118.225953 58.2484259,118.225953 C59.2300993,117.899442 59.2300993,118.879375 60.2936621,118.552664 C60.2936621,117.899442 60.2936621,117.654658 60.5391304,117.246219 C59.8846148,117.409674 59.5572572,116.838179 59.2300993,116.838179 L59.2300993,116.838179 Z M34.1146391,104.34602 C34.0327498,104.509276 34.1146391,104.591003 34.1146391,104.672532 C34.1146391,104.591003 34.1146391,104.591003 34.1963287,104.509276 C34.1963287,104.427548 34.1963287,104.34602 34.1146391,104.34602 L34.1146391,104.34602 Z" id="Fill-13" fill="#EDAC5B"></path>
                <path d="M18.161797,56.4187774 C18.161797,56.3370498 18.2434866,56.3370498 18.2434866,56.2553223 C18.2434866,56.2553223 18.161797,56.173794 18.161797,56.0920664 C17.7527498,56.0920664 17.5072815,56.173794 17.2618132,56.2553223 C17.3437026,56.5820332 17.5072815,56.9085449 17.5891709,57.1535282 C17.6708605,56.9902724 17.8344394,56.8270166 17.9163287,56.6635615 L17.9163287,56.745289 C18.4889549,56.745289 18.7344232,56.6635615 18.8980022,56.4187774 C18.6525339,56.4187774 18.4889549,56.3370498 18.325376,56.2553223 C18.325376,56.4187774 18.2434866,56.4187774 18.161797,56.4187774 M27.9789306,53.9693422 C27.9789306,53.6426312 28.3060885,53.6426312 28.3060885,53.3161196 C28.8787147,53.1528638 28.6334462,54.2958538 27.9789306,53.9693422 M42.86821,48.6622326 C40.1684583,49.3152558 37.4687066,50.4584452 34.605376,50.7034286 C32.5601398,51.3564518 30.1877457,51.8464186 28.0606202,52.4996412 C27.7334623,52.8261528 28.0606202,53.1528638 27.7334623,53.1528638 C24.7065528,52.8261528 22.333959,54.6223654 19.4706283,54.9490764 C19.1434704,55.5205714 19.797986,55.1940598 19.797986,55.7655548 C19.5525177,55.7655548 18.8980022,55.9288106 18.8163126,55.4388439 C18.8163126,55.602299 18.6525339,55.7655548 18.4889549,56.0920664 L19.1434704,56.0920664 C19.1434704,56.3370498 19.0615811,56.5003056 18.9798915,56.6635615 C19.1434704,56.6635615 19.3070494,56.6635615 19.4706283,56.5820332 C19.4706283,56.2553223 19.1434704,56.2553223 19.1434704,55.9288106 C19.9615649,55.6838272 19.3889387,56.8270166 20.2887228,56.5820332 C20.6160804,56.0105382 19.9615649,56.3370498 19.9615649,55.7655548 C21.1068173,56.5820332 23.1520534,56.3370498 23.806569,55.1123322 C24.4610845,55.9288106 25.2791789,54.7858206 26.1791628,55.1123322 C26.5063206,54.5408372 25.5246472,54.8673488 25.8518051,54.2958538 L26.7517889,54.2958538 C26.7517889,54.6223654 26.7517889,54.9490764 27.0789468,54.9490764 C28.2243989,54.704093 29.124183,54.132598 30.596793,54.132598 C41.8046472,50.9482126 53.3398591,48.00901 64.7931816,45.069608 C64.465824,44.4163854 65.4476972,45.069608 65.1203395,44.4163854 C64.465824,44.0898738 65.1203395,45.069608 64.465824,44.7430963 L64.465824,43.599907 C64.1386661,43.599907 63.9750872,43.5183787 63.8115082,43.3551229 C63.1569927,43.599907 62.4205879,43.8448904 61.6843827,43.8448904 C55.7941425,45.4778472 49.4129657,47.1925316 42.86821,48.6622326 M17.0982343,55.275588 C17.2618132,55.1940598 17.3437026,55.1940598 17.4253922,55.1940598 L17.3437026,55.1123322 L17.0982343,55.275588 C17.1801236,55.1123322 17.0982343,55.1940598 17.0982343,55.275588" id="Fill-15" fill="#EDAC5B"></path>
                <path d="M134.658269,26.3722525 L134.658269,26.2089967 C134.57658,26.2905249 134.57658,26.3722525 134.658269,26.3722525 C134.57658,26.3722525 134.57658,26.3722525 134.658269,26.3722525 L134.658269,26.3722525 Z M130.15895,26.8620199 C130.240639,26.8620199 130.322329,26.8620199 130.404218,26.9437475 C130.15895,26.8620199 130.07706,26.8620199 130.15895,26.8620199 L130.15895,26.8620199 Z M128.195603,28.0052093 L128.195603,27.3519867 L129.095187,27.3519867 C129.177276,27.6784983 128.522561,27.6784983 128.195603,28.0052093 L128.195603,28.0052093 Z M133.10397,26.2905249 C132.776612,26.1272691 132.449454,26.0455415 132.694923,25.6373023 C129.749703,26.2905249 127.377309,27.4337143 123.859662,27.6784983 L121.159711,28.4949767 C120.014658,28.7399601 118.950896,29.0666711 117.887333,29.3114551 L117.887333,29.9646777 C117.069438,29.6381661 117.314707,30.6179003 116.414723,30.2913887 C116.578501,30.0464053 116.660391,29.8014219 116.905659,29.6381661 C116.087565,29.8831495 115.105891,30.0464053 114.206107,30.2096611 C114.287797,30.2913887 114.287797,30.4546445 114.124218,30.6179003 C113.87875,30.6179003 113.633282,30.6179003 113.551392,30.2913887 L113.469703,30.2913887 C113.142345,30.8628837 114.124218,30.5361728 113.79686,31.1078671 C113.142345,31.3526512 113.469703,30.4546445 112.897076,30.4546445 C98.5804232,34.0470698 84.5090386,37.8844784 70.519743,41.5586312 L70.519743,42.048598 L69.6197592,42.048598 C70.2742748,42.2935814 69.4561803,42.7018206 69.2926013,43.191588 C68.3926175,43.4365714 68.6380858,42.7018206 68.2290386,42.4568372 C68.1471493,42.5385648 68.0654596,42.5385648 67.9018807,42.620093 C68.6380858,42.7018206 68.6380858,43.7632824 69.2926013,44.089794 L69.2926013,43.518299 L69.6197592,43.8448106 C69.9471169,43.5998272 69.6197592,43.0283322 69.9471169,43.0283322 C71.0923692,43.3550432 71.4195271,42.3751096 71.992353,43.0283322 C72.3195109,42.4568372 72.3195109,42.7833488 71.992353,42.2118538 L72.8921371,42.2118538 L72.8921371,43.0283322 C73.2194947,42.946804 73.5466526,42.7018206 73.8738105,42.5385648 C73.628542,42.4568372 73.1376054,42.5385648 73.1376054,42.048598 C74.0375892,42.2935814 74.3647471,41.7220864 74.3647471,41.8036146 C74.3647471,42.048598 73.8738105,42.048598 73.9556999,42.4568372 C74.6921047,42.1303256 75.5099995,41.8853422 76.0830251,42.2935814 C76.4099833,42.048598 76.4099833,41.7220864 76.7371412,41.477103 C77.9642829,42.620093 79.109735,40.8238804 80.9097026,41.150392 C92.1173571,37.6396944 103.898037,34.7002924 115.433049,31.8426179 C115.760407,31.0261395 115.433049,30.6996279 115.105891,30.3729169 C115.433049,30.3729169 115.433049,30.0464053 115.760407,30.0464053 L115.760407,31.1893953 C120.914242,30.2913887 125.65923,28.8216877 130.649886,27.5152425 C130.731376,27.5152425 130.731376,27.5152425 130.895155,27.4337143 C132.122496,27.1070033 133.349438,26.7804917 134.658269,26.5355083 L134.740159,26.4537807 C134.085643,26.5355083 133.10397,26.6987641 132.285875,26.7804917 L133.10397,26.2905249 Z M69.2926013,41.7220864 C69.1290224,41.8853422 68.9652437,41.9668704 68.7199752,42.1303256 C68.8835541,42.048598 69.0471331,42.048598 69.210712,41.9668704 C69.2926013,41.8853422 69.2926013,41.8036146 69.2926013,41.7220864 L69.2926013,41.7220864 Z M16.4436189,55.6837475 C16.2800399,55.6837475 16.0345717,55.7654751 15.7891034,55.9287309 C15.9528821,55.6837475 16.116461,55.3572359 16.4436189,55.3572359 L16.4436189,55.6837475 Z M15.4619455,56.2552425 C15.4619455,56.2552425 15.4619455,56.1737143 15.4619455,56.2552425 C15.6255244,56.1737143 15.7074138,56.1737143 15.8709927,56.1737143 C15.7074138,56.3369701 15.6255244,56.5819535 15.4619455,56.2552425 L15.4619455,56.2552425 Z M11.7805204,58.6231495 C11.4533625,58.6231495 10.5533787,58.9496611 10.8805366,58.2964385 C11.2078942,58.2964385 12.1076783,58.0516545 11.7805204,58.6231495 L11.7805204,58.6231495 Z M8.7536108,57.5616877 C9.24434764,57.3167043 9.6535946,57.8066711 10.1443314,58.2149103 C9.32623698,58.1331827 9.08096842,58.1331827 8.7536108,57.5616877 L8.7536108,57.5616877 Z M7.69004804,59.7661395 C7.03553252,59.7661395 7.03553252,59.4396279 7.03553252,59.1946445 L7.69004804,59.1946445 L7.69004804,59.7661395 Z M5.48123293,58.9496611 C5.80839082,58.9496611 6.05385911,59.1946445 6.05385911,59.7661395 C5.56312227,59.7661395 5.89028016,58.9496611 5.48123293,58.9496611 L5.48123293,58.9496611 Z M17.3436027,55.8470033 C17.589071,55.6837475 17.0981344,55.4387641 17.0981344,55.1939801 C16.9345555,55.2755083 16.6890872,55.2755083 16.4436189,55.3572359 L17.0981344,55.0305249 C17.0981344,55.0305249 17.1800238,55.0305249 17.1800238,54.9489967 C15.1347876,55.6837475 12.271457,55.7654751 10.635268,56.8269369 C10.3079104,56.8269369 10.3079104,56.5002259 10.0626418,56.5002259 C9.73528421,56.8269369 10.0626418,57.1534485 9.73528421,57.1534485 C9.08096842,56.3369701 7.93551633,57.1534485 7.69004804,57.8066711 C7.36289015,58.1331827 8.34456356,57.4799601 8.34456356,58.1331827 L8.34456356,58.7864053 L7.69004804,58.7864053 C8.01720594,57.9699269 7.11742186,58.2149103 7.36289015,57.6434153 C6.13574845,58.2149103 4.99049609,57.6434153 4.99049609,58.7864053 C4.99049609,58.4598937 4.99049609,57.8881993 4.33598057,58.1331827 C4.33598057,58.7046777 3.76335439,58.7046777 3.43599676,58.9496611 C2.53621269,58.1331827 1.88169717,59.2763721 0.736245074,58.9496611 C0.490776788,59.1946445 0.654555466,59.4396279 0.572666127,59.5211561 C0.899824022,59.6028837 0.98171336,59.8480664 1.39076059,59.8480664 L1.39076059,60.4193621 C2.2907444,60.6643455 1.39076059,59.8480664 2.04527611,59.8480664 L2.04527611,60.6643455 C2.61790229,60.8278007 2.86337058,60.6643455 3.10883887,60.5010897 C2.78148124,60.2561063 2.78148124,59.9293953 2.78148124,59.8480664 C3.19052848,59.8480664 3.43599676,59.9293953 3.5178861,60.1743787 C3.68146505,60.0111229 3.84504399,59.9293953 4.09051228,59.8480664 C4.09051228,60.1743787 4.41767018,61.0725847 4.41767018,60.5010897 C4.7450278,60.2561063 4.41767018,59.6846113 4.7450278,59.6846113 C5.39954332,59.6846113 5.0721857,60.2561063 5.0721857,60.5010897 C5.89028016,60.1743787 6.87195358,59.8480664 8.01720594,59.8480664 C8.34456356,59.6028837 8.34456356,59.2763721 8.59003185,59.0313887 C8.91718974,59.0313887 8.59003185,59.6846113 9.24434764,59.6846113 C9.89886316,59.3579003 9.89886316,58.8681329 10.1443314,58.2149103 C10.2262208,58.2964385 10.3897997,58.3781661 10.4716891,58.4598937 C10.1443314,58.7046777 10.1443314,58.7046777 10.1443314,59.2763721 C10.798847,58.9496611 11.9440993,58.9496611 12.8440831,58.6231495 C13.171241,58.2964385 12.1895676,57.9699269 12.8440831,57.9699269 C13.9893355,58.7864053 14.643851,57.3167043 16.3619293,56.5002259 C16.4436189,56.5002259 16.5255082,56.4186977 16.6071978,56.4186977 C16.5255082,56.3369701 16.4436189,56.3369701 16.3619293,56.2552425 L16.3619293,56.0104585 L16.4436189,55.9287309 L17.0981344,55.9287309 L17.0981344,56.3369701 L17.2617134,56.3369701 C17.1800238,56.0104585 17.1800238,55.8470033 17.3436027,55.8470033 L17.3436027,55.8470033 Z" id="Fill-17" fill="#EDAC5B"></path>
                <g id="Group-21" transform="translate(68.507422, 24.377342)">
                    <mask id="mask-2" fill="white">
                        <use xlink:href="#path-1"></use>
                    </mask>
                    <g id="Clip-20"></g>
                    <path d="M64.8420556,1.83169435 C64.7601663,1.91322259 64.6782769,1.91322259 64.514698,1.99495017 C64.5965873,1.99495017 64.6782769,2.07647841 64.7601663,2.15820598 C65.0056345,1.91322259 64.9237452,1.91322259 64.8420556,1.83169435 L64.8420556,1.83169435 Z M61.1606305,42.4106312 C60.5878046,42.6556146 60.342536,42.4106312 60.506115,41.7574086 L61.1606305,41.7574086 L61.1606305,42.4106312 Z M56.7428005,42.6556146 C56.7428005,42.002392 55.9247061,42.002392 55.8430165,41.2674419 C55.9247061,41.9206645 56.9882688,42.1656478 56.7428005,42.6556146 L56.7428005,42.6556146 Z M12.2385414,54.0863123 L12.2385414,53.4330897 C12.5656993,53.4330897 12.893057,53.7596013 12.893057,54.0863123 L12.2385414,54.0863123 Z M10.1933053,55.2293023 C9.62067908,55.2293023 9.3752108,54.9843189 9.62067908,54.4128239 L10.1933053,54.4128239 L10.1933053,55.2293023 Z M75.6408626,32.7761462 C75.9680205,32.1229236 75.9680205,31.6331561 76.2953781,31.6331561 C76.2953781,32.2046512 75.9680205,32.5311628 75.6408626,32.7761462 L75.6408626,32.7761462 Z M75.0682364,30.4899668 C75.0682364,30.1634551 74.7408788,30.1634551 74.4137209,30.1634551 C74.4137209,29.3469767 75.313505,29.5919601 75.0682364,28.6937542 L75.7225522,28.6937542 C75.7225522,28.9387375 75.7225522,29.2652492 75.3953943,29.5102326 L74.7408788,29.5102326 C74.7408788,29.8367442 75.3953943,29.8367442 75.3953943,30.0817276 C76.0499099,30.0817276 75.3953943,28.9387375 76.0499099,29.2652492 L76.0499099,30.0817276 C75.3953943,29.9184718 75.6408626,30.4899668 75.0682364,30.4899668 L75.0682364,30.4899668 Z M74.1682526,27.8772757 L74.8227682,27.8772757 L74.8227682,28.6937542 C74.4137209,28.4487708 73.9227843,28.4487708 74.1682526,27.8772757 L74.1682526,27.8772757 Z M70.8958748,17.6712957 C71.2230327,16.4465781 70.3232486,16.7730897 70.2413592,15.8750831 C70.5687169,16.2015947 70.5687169,16.2015947 71.141343,16.2015947 C71.2230327,16.7730897 71.5503903,17.6712957 70.8958748,17.6712957 L70.8958748,17.6712957 Z M70.4049382,14.9768771 L71.0594537,14.9768771 C71.0594537,15.303588 70.4049382,15.303588 70.1596696,15.6300997 C69.7506224,14.9768771 70.6504065,15.303588 70.4049382,14.9768771 L70.4049382,14.9768771 Z M67.3780286,4.52591362 C67.7053862,4.52591362 68.0325441,4.77089701 68.0325441,5.34239203 C67.3780286,5.09760797 67.3780286,4.44438538 67.3780286,4.52591362 L67.3780286,4.52591362 Z M77.1951622,30.1634551 C75.3953943,28.1222591 76.0499099,24.0398671 74.250142,21.9986711 C75.0682364,20.5289701 73.3501582,19.0592691 73.5956265,17.3447841 C72.6956426,17.0180731 73.5956265,18.1612625 72.9411109,18.1612625 C73.2682688,16.1200664 72.613953,13.9971429 71.141343,13.1806645 C71.7958586,12.8541528 71.4685009,13.5071761 72.0411271,13.5071761 C71.4685009,12.364186 71.4685009,10.32299 70.5687169,9.42478405 C71.3868113,7.62857143 69.6687331,5.66910299 69.6687331,3.62790698 C69.3415752,3.30119601 69.0142175,3.62790698 69.0142175,3.30119601 C69.6687331,2.40318937 68.6870596,1.50498339 68.6870596,0.117009967 C68.1961231,0.198737542 67.9504551,0.198737542 67.6234969,0.280265781 C67.9504551,0.280265781 68.1144335,0.525249169 68.1144335,0.933488372 C67.4599179,0.933488372 67.2144497,0.688504983 67.2144497,0.280265781 C67.1325603,0.280265781 67.0508707,0.280265781 66.9689814,0.361993355 L67.2144497,0.525249169 C66.9689814,0.525249169 66.8054024,0.606976744 66.8054024,0.770232558 L66.8872918,0.770232558 L66.8872918,1.91322259 L66.9689814,1.91322259 C66.9689814,1.58671096 66.9689814,1.34172757 67.1325603,1.34172757 C67.4599179,1.91322259 67.4599179,2.15820598 68.0325441,2.15820598 C67.2144497,2.15820598 67.4599179,3.62790698 66.5599341,2.97468439 C67.4599179,6.4855814 68.359702,9.42478405 69.2596858,12.9356811 C69.5868437,13.262392 69.9142013,12.9356811 69.9142013,13.262392 C69.9142013,13.5889037 69.2596858,13.833887 69.5868437,14.4053821 C71.0594537,17.9162791 71.6320799,22.3251827 73.1046899,25.5095681 C73.4320475,25.2645847 73.1046899,24.6930897 73.4320475,24.6930897 C73.7592054,25.0196013 74.3318316,24.6930897 74.3318316,25.0196013 C74.3318316,25.346113 74.3318316,25.346113 74.0046737,25.346113 C74.0046737,25.5910963 74.9044578,25.9178073 74.3318316,26.1625914 C73.6773161,26.1625914 74.3318316,25.2645847 73.6773161,25.5095681 C72.777532,28.9387375 75.4772837,31.8779402 75.4772837,35.7155482 C76.3770677,36.0420598 75.4772837,34.8990698 76.1315995,34.8990698 C77.0315833,35.2255814 76.786115,36.3685714 76.1315995,36.6952824 C73.5137371,35.552093 70.8139854,38.491495 67.296339,38.1649834 C66.9689814,38.1649834 66.9689814,38.9814618 66.3963552,38.9814618 C66.0691973,38.3282392 67.0508707,38.9814618 66.7235131,38.3282392 C66.0691973,38.491495 65.823729,38.6547508 65.7418397,38.7364784 C65.5782607,38.7364784 65.4146818,38.6547508 65.2511028,38.6547508 C65.2511028,39.3079734 64.4330084,38.9814618 64.105451,38.9814618 C63.7784928,39.634485 64.7601663,38.9814618 64.4330084,39.634485 C62.9603984,39.3079734 60.2608464,40.2061794 58.869926,40.7776744 C58.869926,40.1244518 58.0518316,41.104186 57.0701582,40.7776744 C56.7428005,41.0226578 57.0701582,41.5941528 56.7428005,41.5941528 C56.4156426,41.5941528 56.7428005,40.6959468 55.8430165,40.9409302 L55.8430165,41.2674419 C53.4704227,41.2674419 51.4251865,43.0638538 49.9525765,42.4106312 C48.8073242,43.3086379 46.1075725,43.3086379 44.9623201,44.4518272 C40.2173323,44.7783389 36.9449544,46.2480399 33.1816399,47.0645183 C32.8544821,47.3095017 33.1816399,47.8809967 32.8544821,47.8809967 C32.1999665,47.8809967 32.5273242,47.3095017 32.5273242,47.0645183 C32.1999665,47.7177409 31.7092297,47.0645183 31.0547142,47.3910299 C30.2366197,48.0442525 29.9092621,49.1874419 29.2549463,48.8607309 C29.5821042,48.5344186 30.1547304,48.8607309 29.9092621,48.2075083 C28.4368518,48.2075083 27.2913997,49.4322259 26.3916157,48.8607309 C24.8371163,49.6772093 23.3645063,50.3304319 21.6464281,50.3304319 C17.2287978,51.5551495 13.1383255,53.0248505 8.72069528,53.8415282 C8.39353738,54.1678405 8.72069528,54.4945515 8.39353738,54.4945515 C8.39353738,54.1678405 7.82071147,54.1678405 7.24808529,54.1678405 C7.24808529,54.8210631 6.9209274,55.0660465 6.59356977,54.4945515 C6.59356977,55.1475748 6.9209274,55.6375415 6.9209274,55.9640532 C6.26641188,55.7192691 6.59356977,56.6172757 6.26641188,56.6172757 C5.93925398,56.6172757 5.93925398,56.2907641 5.36642807,56.2907641 C5.61189636,57.1072425 4.46664399,56.5357475 4.46664399,57.1072425 C6.26641188,57.4337542 7.98449015,56.5357475 10.3568842,56.2907641 C10.6840421,56.0457807 10.3568842,55.4742857 10.6840421,55.4742857 C11.0113997,55.4742857 10.6840421,56.1275083 11.3385576,56.1275083 C21.7283174,53.1063787 32.2818559,50.5754153 42.6716157,47.6360133 C42.9987735,47.3095017 42.6716157,46.9827907 42.9987735,46.9827907 C45.6985252,47.7992691 48.5618559,45.8398007 51.2616076,45.513289 C51.5887655,44.9415947 50.9344497,44.6968106 50.9344497,44.3700997 C51.5887655,44.3700997 51.8342337,44.6150831 51.8342337,45.1865781 C54.8611433,44.9415947 57.3973161,44.043588 59.8515995,42.9003987 C59.1970839,43.1453821 59.1970839,42.2473754 59.5244416,42.2473754 C59.5244416,42.8188704 60.4242256,42.4921595 60.1787574,43.0638538 C60.9968518,43.0638538 60.9968518,42.7371429 61.978725,42.7371429 L61.978725,42.8188704 L66.2327762,42.8188704 C72.777532,41.0226578 72.777532,40.532691 79.4858667,38.7364784 C78.6677722,35.7155482 77.5225198,33.7558804 77.1951622,30.1634551 L77.1951622,30.1634551 Z M44.9623201,5.58737542 C44.9623201,5.75063123 44.9623201,5.8323588 45.0440097,5.91408638 C45.2892783,5.91408638 45.453057,5.8323588 45.6985252,5.8323588 C45.5349463,5.58737542 45.2077884,5.58737542 44.9623201,5.58737542 L44.9623201,5.58737542 Z M0.130703374,18.1612625 C0.703329555,18.1612625 0.785218893,17.7530233 0.866908502,17.5080399 C0.785218893,17.5080399 0.703329555,17.5080399 0.621639946,17.5895681 C0.703329555,17.8345515 0.37617166,17.8345515 0.130703374,18.1612625 L0.130703374,18.1612625 Z" id="Fill-19" fill="#EDAC5B" mask="url(#mask-2)"></path>
                </g>
                <g id="Group-24" transform="translate(0.000000, 23.978671)" fill="#EDAC5B">
                    <path d="M0.40902726,35.5425648 C0.490916599,35.5425648 0.490916599,35.6242924 0.572606208,35.6242924 C0.654495547,35.6242924 0.654495547,35.6242924 0.736384885,35.5425648 L0.40902726,35.5425648 Z M0.245448313,37.8287442 C0.163558974,37.5837608 0.0818693657,37.4203056 -1.99730094e-05,37.1755216 L-1.99730094e-05,37.8287442 L0.245448313,37.8287442 Z M135.394814,3.21013953 C135.558193,2.88342857 135.558193,2.55691694 135.558193,2.31193355 C135.476504,2.31193355 135.149146,2.39366113 134.740099,2.47518937 C134.658209,2.88342857 134.658209,3.37339535 135.394814,3.21013953 L135.394814,3.21013953 Z M74.037729,18.6415017 C74.037729,18.5599734 73.9556399,18.5599734 73.9556399,18.4782458 L73.8737506,18.4782458 C73.9556399,18.4782458 74.037729,18.5599734 74.037729,18.6415017 L74.037729,18.6415017 Z M3.84498408,36.6857542 C3.84498408,36.4405714 3.76329447,36.277515 3.68140513,36.1142591 C3.51782618,36.277515 3.35424723,36.4405714 3.19066829,36.5224983 C3.35424723,36.6857542 3.51782618,36.6857542 3.84498408,36.6857542 L3.84498408,36.6857542 Z M64.9568005,59.6286777 C64.8749112,59.7921329 64.8749112,59.8736611 64.9568005,59.9553887 C64.7930219,59.7104053 64.5475536,59.6286777 64.9568005,59.6286777 L64.9568005,59.6286777 Z M67.9837101,57.4242259 C68.3110677,57.7509369 68.8018046,57.7509369 69.1289625,58.0774485 C68.5563363,58.4039601 68.1470893,58.7306711 67.6563525,59.2204385 C67.9837101,58.0774485 67.9837101,58.0774485 67.9837101,57.4242259 L67.9837101,57.4242259 Z M27.2425657,69.6712027 C35.750868,68.201701 43.4408761,65.58901 51.7035104,63.547814 C52.030868,63.2213023 51.7035104,62.8945914 52.030868,62.8945914 C53.1761204,63.547814 54.4032621,62.5680797 55.5485144,62.5680797 C55.8756723,62.2415681 55.5485144,61.9148571 55.8756723,61.9148571 C57.6758397,62.5680797 61.766312,60.4451561 65.0384901,60.1186445 C65.1203795,60.0367176 65.1203795,59.8736611 65.0384901,59.7921329 C65.2022688,59.9553887 65.6928059,59.7921329 65.9382742,59.7921329 C66.2658316,59.4654219 66.2658316,58.6489435 66.8384578,57.9957209 C67.1654159,57.9957209 67.1654159,59.1389103 66.8384578,59.1389103 C68.6380259,59.4654219 69.2108518,58.4856877 70.6834618,58.4856877 C71.01042,57.8324651 69.7832783,58.4856877 70.0287466,57.8324651 C69.374231,57.5059535 70.0287466,58.4856877 69.374231,58.1589767 C69.0472729,57.5059535 70.0287466,58.1589767 69.7017884,57.5059535 C69.4563201,57.5874817 69.2108518,57.66901 69.0472729,57.7509369 C69.0472729,56.9344585 69.7017884,56.6077475 70.1925252,56.3627641 C70.5196831,57.5059535 71.6651352,57.0159867 72.8922769,57.0159867 C72.6468086,56.6077475 72.8922769,56.4444917 73.0558559,56.5262193 C72.8922769,56.199309 72.7284982,55.8729967 72.3196507,55.8729967 C72.3196507,56.199309 72.3196507,56.199309 71.9922931,56.199309 C71.6651352,56.8527309 72.6468086,56.199309 72.3196507,56.8527309 C71.9922931,56.5262193 71.4196669,56.8527309 71.4196669,56.5262193 C71.4196669,56.199309 71.7468248,56.199309 71.7468248,55.8729967 C70.2742148,56.199309 69.0472729,56.6892757 67.3291946,56.6892757 C67.6563525,57.8324651 65.8567843,57.0159867 66.6746791,57.8324651 C66.0203633,57.8324651 65.5294267,57.5059535 66.0203633,57.1790432 C65.1203795,57.1790432 63.9751271,57.5059535 64.5475536,57.9957209 C64.5475536,57.66901 64.5475536,57.66901 64.8749112,57.66901 C64.5475536,57.9957209 64.8749112,58.4856877 64.5475536,58.4856877 C64.2205954,58.1589767 63.8932378,58.1589767 63.6477695,57.8324651 C63.6477695,57.5059535 63.9751271,57.5059535 63.9751271,57.1790432 C63.0749436,56.8527309 62.8294753,57.5059535 62.5025171,57.8324651 C61.357065,57.1790432 59.3120286,58.6489435 57.5118613,58.6489435 C57.1849031,58.9756545 57.5118613,59.3021661 57.1849031,59.3021661 C56.5301879,59.6286777 56.2847196,58.9756545 56.039451,58.9756545 C56.039451,59.7921329 54.8939989,59.7921329 54.5670408,60.4451561 C54.2396831,59.7921329 54.8939989,60.1186445 54.8939989,59.6286777 C54.2396831,59.9553887 53.7489463,60.4451561 53.0944308,59.9553887 C52.7672729,60.6086113 51.9489787,60.6086113 51.0489949,60.6086113 C47.8585063,61.4250897 44.3408599,62.6498073 40.4958559,63.2213023 C39.9228302,63.547814 40.4958559,63.8745249 40.1682985,64.0377807 C40.1682985,63.7110698 39.8413404,63.3843588 39.5139827,63.3843588 C39.1866251,63.7110698 39.5139827,64.0377807 39.1866251,64.0377807 C39.1866251,63.7110698 38.8596669,63.7110698 38.286841,63.7110698 C27.4061447,66.8954551 25.0337506,66.6504718 13.8258964,69.8346578 C14.1530543,69.8346578 14.1530543,69.8346578 14.1530543,70.1611694 C13.2532702,70.4878804 13.4987385,69.5081462 12.6804443,69.8346578 L11.7806602,71.6308704 C10.6352081,70.8145914 11.7806602,69.5898738 11.1261447,68.4466844 C10.7989868,68.7733953 10.2261609,69.2631628 9.98069258,68.7733953 C9.98069258,68.1201728 10.5535185,68.4466844 10.8806764,68.4466844 L10.8806764,67.303495 C10.5535185,67.303495 10.5535185,67.630206 10.2261609,67.630206 C10.8806764,65.58901 9.32617706,63.7927973 9.32617706,61.5064186 C8.99901916,61.1801063 8.75355088,61.5064186 8.75355088,61.1801063 C8.75355088,60.8533953 8.42639298,60.5266844 8.42639298,60.8533953 C8.75355088,61.9963854 7.52640918,61.9963854 7.52640918,62.8945914 L7.36283023,62.8945914 L9.16259811,69.0181794 C9.48995574,69.3448904 10.0625819,69.0181794 10.0625819,69.3448904 C9.73522429,69.6712027 10.0625819,69.998113 9.73522429,69.998113 C9.4080664,69.998113 9.4080664,69.6712027 9.0809085,69.6712027 C9.0809085,70.8145914 9.0809085,71.712598 9.98069258,71.9575814 C9.0809085,72.6106047 9.98069258,73.4272824 9.98069258,73.9985781 C16.5254483,72.5290764 12.9257128,73.6722658 19.3887789,72.2025648 L22.0885306,71.0593754 C23.5611406,70.4063522 25.2792189,69.9163854 27.0789868,69.5898738 C27.0789868,68.9366512 25.9335347,68.9366512 26.4242715,68.4466844 C26.9152081,69.099907 27.2425657,69.4264186 27.2425657,69.6712027 L27.2425657,69.6712027 Z M2.12710553,38.8084784 C2.12710553,38.7269502 2.12710553,38.6452226 2.04521619,38.4819668 C2.12710553,38.6452226 2.12710553,38.7269502 2.12710553,38.8084784 L2.12710553,38.8084784 Z M1.47259001,39.3799734 C1.79974791,39.0534618 1.47259001,38.7269502 1.79974791,38.7269502 L2.12710553,38.7269502 C2.04521619,38.8084784 1.79974791,38.8900066 1.79974791,39.2984452 L1.96352659,39.2984452 C1.96352659,39.6249568 2.29068448,39.6249568 2.29068448,39.6249568 C2.29068448,39.2984452 2.29068448,39.0534618 2.20879514,38.8900066 C2.45426343,38.9719336 2.37257382,38.9719336 2.12710553,38.5636944 C2.04521619,38.1554551 1.96352659,37.7472159 1.96352659,37.0939934 C1.63616896,37.0939934 1.63616896,36.4405714 1.06354278,36.7672824 C0.736384885,37.0939934 1.06354278,37.9102724 0.736384885,37.9102724 L0.245448313,37.9102724 C0.40902726,38.4000399 0.572606208,38.8084784 0.572606208,39.461701 L1.47259001,39.3799734 Z M17.5892108,33.1748571 C17.4254321,33.4198405 17.3437425,33.5830963 17.3437425,33.5830963 C17.6709004,33.7463522 17.6709004,33.5013688 17.5892108,33.1748571 L17.5892108,33.1748571 Z M17.0982742,32.6033621 L17.0982742,32.3583787 C16.9346953,32.4401063 16.7709166,32.4401063 16.6073377,32.5216346 C16.689227,32.5216346 16.9346953,32.6033621 17.0982742,32.6033621 L17.0982742,32.6033621 Z M68.3110677,18.2332625 C68.1470893,18.31499 67.9018208,18.31499 67.7382418,18.31499 C67.9018208,18.31499 67.9837101,18.3965183 68.0655995,18.3965183 C68.2291784,18.31499 68.2291784,18.31499 68.3110677,18.2332625 L68.3110677,18.2332625 Z M135.639883,0.760704319 L135.067257,0.189209302 C134.412941,0.189209302 135.067257,1.00568771 134.740099,0.760704319 C134.085583,0.760704319 134.740099,0.433993355 134.412941,0.189209302 C133.513157,-0.137501661 133.513157,0.760704319 132.940531,0.760704319 C132.940531,1.16894352 133.185599,1.33219934 133.349578,1.41392691 C134.003894,1.25047176 134.412941,1.08721595 134.740099,1.00568771 C134.658209,1.08721595 134.658209,1.25047176 134.658209,1.49545515 C134.903877,1.57718272 135.149146,1.57718272 135.149146,1.57718272 C135.312925,1.41392691 135.312925,1.08721595 135.394814,0.923960133 L134.985767,0.923960133 C135.312925,1.00568771 135.149146,0.923960133 135.639883,0.760704319 L135.639883,0.760704319 Z M133.431267,1.49545515 C133.267489,1.49545515 133.10391,1.57718272 132.940531,1.57718272 C132.776552,1.90369435 133.10391,2.06695017 133.349578,2.14867774 C133.431267,2.06695017 133.594647,2.06695017 133.676536,1.98542193 C133.676536,1.82216611 133.594647,1.65871096 133.431267,1.49545515 L133.431267,1.49545515 Z M134.249162,1.74043854 C134.57652,1.82216611 134.658209,2.14867774 134.658209,2.39366113 C134.740099,2.14867774 134.658209,1.90369435 134.740099,1.74043854 C134.412941,1.57718272 134.249162,1.57718272 134.249162,1.74043854 L134.249162,1.74043854 Z M117.887473,5.41459136 C117.396736,5.25133555 117.151267,5.41459136 116.905799,5.74110299 C117.151267,5.57784718 117.560315,5.49631894 117.887473,5.41459136 L117.887473,5.41459136 Z M135.885551,0.760704319 C136.04893,0.760704319 136.212909,0.678976744 136.376487,0.678976744 C136.212909,0.678976744 136.04893,0.678976744 135.885551,0.760704319 L135.885551,0.760704319 Z" id="Fill-22"></path>
                </g>
                <path d="M8.42641296,84.2605515 C8.09905533,81.3213488 7.52642915,78.7082591 6.05401889,76.6672625 L6.05401889,76.0142392 C6.21739811,75.9325116 6.38117679,75.8507841 6.38117679,75.5242724 L6.29928745,75.5242724 L6.29928745,74.3812824 C5.97212955,74.3812824 5.97212955,75.1977608 5.64477193,74.707794 C6.29928745,71.196897 4.17236167,67.7677276 3.59953576,64.2568306 C3.02690958,63.9303189 3.59953576,64.9100532 3.02690958,64.5835415 C3.02690958,63.9303189 3.92689339,62.7871296 3.02690958,62.5423455 L3.02690958,64.0118472 C2.69975169,64.0118472 2.69975169,64.3385581 2.4542834,64.3385581 C2.4542834,63.6853355 2.12692578,63.6853355 1.79976788,63.6853355 C1.47260999,64.3385581 1.47260999,64.8283256 0.899784076,64.3385581 C1.2271417,64.9917807 1.2271417,65.1550365 1.2271417,66.1347708 C1.5542996,66.4612824 2.12692578,66.1347708 2.12692578,66.4612824 C2.12692578,67.114505 1.2271417,66.4612824 1.47260999,67.114505 C2.61786235,68.9107176 2.37239406,72.095103 4.17236167,73.238093 C3.59953576,74.0545714 4.49951957,76.4224784 5.07214575,77.0755017 C5.07214575,77.4022126 4.74498785,77.4022126 4.74498785,77.7287243 L7.28116059,86.8732425 C7.85378677,86.0567641 7.77189744,84.7505183 8.42641296,84.2605515" id="Fill-27" fill="#EDAC5B"></path>
            </g>
            <text id="Urge" transform="translate(72.357821, 60.524775) rotate(-14.000000) translate(-72.357821, -60.524775) " font-family="PingFang-SC-Regular, PingFang SC" font-size="26" font-weight="normal" fill="#EDAC5B">
                <tspan x="43.3578214" y="70.0247747">Urge</tspan>
            </text>
        </g>
    </g>
</svg>