<?xml version="1.0" encoding="UTF-8"?>
<svg width="44px" height="44px" viewBox="0 0 44 44" version="1.1" xmlns="http://www.w3.org/2000/svg" xmlns:xlink="http://www.w3.org/1999/xlink">
    <!-- Generator: Sketch 44 (41411) - http://www.bohemiancoding.com/sketch -->
    <title>faqi</title>
    <desc>Created with Sketch.</desc>
    <defs></defs>
    <g id="Page-1" stroke="none" stroke-width="1" fill="none" fill-rule="evenodd">
        <g id="1首页" transform="translate(-257.000000, -1248.000000)" fill="#D4D4D6">
            <g id="底部" transform="translate(0.000000, 1236.000000)">
                <g id="发起" transform="translate(231.000000, 4.000000)">
                    <g id="faqi" transform="translate(18.000000, 0.000000)">
                        <g transform="translate(8.000000, 8.000000)" id="Fill-1">
                            <path d="M43.9999,1.5398 L43.9999,1.5338 C43.9999,1.4908 43.9979,1.4498 43.9949,1.4078 C43.9939,1.3958 43.9919,1.3838 43.9909,1.3718 C43.9869,1.3368 43.9819,1.3018 43.9769,1.2678 C43.9749,1.2578 43.9739,1.2478 43.9719,1.2388 C43.9639,1.1968 43.9539,1.1558 43.9419,1.1148 C43.9389,1.1028 43.9349,1.0898 43.9309,1.0778 C43.9219,1.0488 43.9119,1.0188 43.9009,0.9908 C43.8959,0.9758 43.8899,0.9608 43.8839,0.9458 C43.8699,0.9108 43.8539,0.8748 43.8359,0.8408 C43.8299,0.8268 43.8219,0.8138 43.8139,0.8008 C43.7999,0.7738 43.7849,0.7478 43.7699,0.7228 C43.7599,0.7078 43.7509,0.6928 43.7419,0.6788 C43.7229,0.6498 43.7029,0.6228 43.6819,0.5948 C43.6749,0.5868 43.6689,0.5788 43.6629,0.5698 C43.6359,0.5368 43.6069,0.5048 43.5779,0.4748 C43.5689,0.4648 43.5599,0.4568 43.5509,0.4468 C43.5219,0.4178 43.4929,0.3908 43.4619,0.3648 L43.4519,0.3548 C43.4509,0.3538 43.4489,0.3528 43.4479,0.3528 C43.4189,0.3288 43.3899,0.3048 43.3579,0.2828 C43.3519,0.2788 43.3459,0.2748 43.3389,0.2698 C43.3279,0.2628 43.3169,0.2548 43.3059,0.2478 C43.2769,0.2298 43.2489,0.2118 43.2199,0.1958 C43.2079,0.1888 43.1959,0.1828 43.1849,0.1758 C43.1479,0.1568 43.1099,0.1388 43.0729,0.1228 L43.0279,0.1048 C43.0009,0.0948 42.9749,0.0848 42.9479,0.0768 C42.9319,0.0708 42.9159,0.0658 42.8999,0.0608 C42.8609,0.0498 42.8219,0.0398 42.7819,0.0318 C42.7709,0.0288 42.7599,0.0278 42.7489,0.0258 C42.7159,0.0198 42.6839,0.0148 42.6509,0.0108 C42.6369,0.0088 42.6229,0.0078 42.6079,0.0068 C42.5719,0.0028 42.5349,0.0008 42.4989,0.0008 C42.4919,-0.0002 42.4859,-0.0002 42.4789,-0.0002 C42.4359,-0.0002 42.3929,0.0018 42.3499,0.0058 C42.3379,0.0058 42.3279,0.0078 42.3159,0.0088 C42.2819,0.0128 42.2469,0.0178 42.2129,0.0228 C42.2029,0.0248 42.1919,0.0268 42.1819,0.0288 C42.1399,0.0368 42.0979,0.0468 42.0559,0.0588 C42.0459,0.0608 42.0369,0.0648 42.0269,0.0678 C41.9959,0.0778 41.9639,0.0878 41.9339,0.0998 C41.9179,0.1058 41.9029,0.1118 41.8889,0.1178 C41.8599,0.1288 41.8329,0.1238 41.8049,0.1378 C41.7929,0.1438 41.7799,0.1378 41.7679,0.1378 L0.8189,21.6078 C0.3119,21.8728 -0.0041,22.4108 -0.0001,22.9838 C0.0039,23.5578 0.3279,24.0848 0.8379,24.3438 L11.8349,29.9118 C12.5869,30.2918 13.5049,29.9908 13.8849,29.2358 C14.2649,28.4818 13.9619,27.5618 13.2099,27.1808 L4.8659,22.9578 L36.4059,6.4348 L16.9639,29.8048 C16.7349,30.0798 16.6089,30.4268 16.6089,30.7848 L16.6089,42.4698 C16.6089,43.3148 17.2919,43.9998 18.1349,43.9998 C18.9779,43.9998 19.6619,43.3148 19.6619,42.4698 L19.6619,31.3388 L40.1699,6.6868 L35.4989,38.3418 L24.4949,32.8658 C23.7399,32.4908 22.8239,32.7998 22.4499,33.5568 C22.0749,34.3128 22.3829,35.2318 23.1379,35.6068 L36.0219,42.0188 C36.2359,42.1258 36.4679,42.1788 36.7009,42.1788 C36.9429,42.1788 37.1869,42.1208 37.4079,42.0048 C37.8399,41.7778 38.1389,41.3568 38.2099,40.8728 L43.9829,1.7538 C43.9859,1.7398 43.9869,1.7268 43.9879,1.7118 C43.9899,1.6978 43.9919,1.6838 43.9929,1.6688 C43.9969,1.6248 43.9999,1.5818 43.9999,1.5398"></path>
                        </g>
                    </g>
                </g>
            </g>
        </g>
    </g>
</svg>