<?xml version="1.0" encoding="UTF-8"?>
<svg width="60px" height="60px" viewBox="0 0 60 60" version="1.1" xmlns="http://www.w3.org/2000/svg" xmlns:xlink="http://www.w3.org/1999/xlink">
    <!-- Generator: Sketch 44 (41411) - http://www.bohemiancoding.com/sketch -->
    <title>faqixuanzhong</title>
    <desc>Created with Sketch.</desc>
    <defs>
        <polygon id="path-1" points="21.99995 -0.0002 0 -0.0002 0 43.9998 21.99995 43.9998 43.9999 43.9998 43.9999 -0.0002 21.99995 -0.0002"></polygon>
    </defs>
    <g id="Page-1" stroke="none" stroke-width="1" fill="none" fill-rule="evenodd">
        <g id="2发起-常用" transform="translate(-249.000000, -1240.000000)">
            <g id="底部" transform="translate(0.000000, 1236.000000)">
                <g id="发起" transform="translate(231.000000, 4.000000)">
                    <rect id="Rectangle-4" x="18" y="0" width="60" height="60"></rect>
                    <path d="M49.1380375,47.607 L62.0220375,54.019 C62.2360375,54.126 62.4680375,54.179 62.7010375,54.179 C62.9430375,54.179 63.1860375,54.121 63.4080375,54.004 C63.8400375,53.778 64.1380375,53.357 64.2100375,52.873 L69.9830375,13.753 C69.9860375,13.74 69.9870375,13.726 69.9880375,13.712 C69.9900375,13.697 69.9920375,13.683 69.9930375,13.669 C69.9970375,13.625 69.9990375,13.582 70.0000375,13.54 L70.0000375,13.533 C70.0000375,13.491 69.9970375,13.449 69.9940375,13.408 C69.9930375,13.396 69.9920375,13.384 69.9910375,13.372 C69.9870375,13.337 69.9820375,13.302 69.9760375,13.267 C69.9750375,13.258 69.9730375,13.248 69.9710375,13.238 C69.9640375,13.197 69.9540375,13.155 69.9420375,13.115 C69.9390375,13.102 69.9340375,13.09 69.9300375,13.077 C69.9220375,13.048 69.9120375,13.019 69.9010375,12.991 C69.8950375,12.976 69.8900375,12.961 69.8840375,12.946 C69.8690375,12.91 69.8530375,12.875 69.8360375,12.84 C69.8290375,12.827 69.8220375,12.814 69.8140375,12.8 C69.8000375,12.774 69.7850375,12.748 69.7690375,12.722 C69.7600375,12.708 69.7510375,12.693 69.7420375,12.679 C69.7220375,12.65 69.7020375,12.622 69.6810375,12.595 C69.6750375,12.586 69.6690375,12.578 69.6620375,12.57 C69.6360375,12.537 69.6070375,12.505 69.5780375,12.474 C69.5690375,12.465 69.5600375,12.456 69.5510375,12.447 C69.5220375,12.418 69.4920375,12.391 69.4620375,12.364 C69.4580375,12.361 69.4550375,12.357 69.4510375,12.355 C69.4500375,12.354 69.4490375,12.353 69.4480375,12.352 C69.4190375,12.328 69.3890375,12.305 69.3580375,12.283 C69.3520375,12.278 69.3460375,12.274 69.3390375,12.27 C69.3280375,12.262 69.3170375,12.255 69.3050375,12.248 C69.2770375,12.23 69.2490375,12.212 69.2200375,12.196 C69.2080375,12.189 69.1960375,12.182 69.1840375,12.176 C69.1480375,12.156 69.1100375,12.139 69.0730375,12.123 C69.0580375,12.116 69.0430375,12.111 69.0280375,12.105 C69.0010375,12.095 68.9750375,12.085 68.9480375,12.076 C68.9310375,12.071 68.9160375,12.065 68.9000375,12.061 C68.8610375,12.049 68.8220375,12.04 68.7820375,12.031 C68.7710375,12.029 68.7600375,12.027 68.7490375,12.025 C68.7160375,12.02 68.6840375,12.015 68.6510375,12.011 C68.6370375,12.009 68.6230375,12.007 68.6080375,12.006 C68.5720375,12.003 68.5350375,12.001 68.4980375,12.001 C68.4920375,12 68.4860375,12 68.4790375,12 C68.4360375,12 68.3930375,12.002 68.3490375,12.005 C68.3380375,12.006 68.3270375,12.007 68.3160375,12.008 C68.2820375,12.012 68.2470375,12.017 68.2130375,12.023 C68.2020375,12.025 68.1920375,12.026 68.1810375,12.028 C68.1390375,12.037 68.0970375,12.046 68.0560375,12.058 C68.0460375,12.061 68.0360375,12.065 68.0270375,12.067 C67.9950375,12.077 67.9640375,12.088 67.9330375,12.1 C67.9180375,12.106 67.9030375,12.111 67.8880375,12.117 C67.8600375,12.129 67.8330375,12.124 67.8050375,12.137 C67.7930375,12.144 67.7800375,12.137 67.7670375,12.137 L26.8190375,33.607 C26.3120375,33.873 25.9960375,34.41 26.0000375,34.983 C26.0040375,35.557 26.3270375,36.085 26.8380375,36.343 L37.8350375,41.911" id="Fill-1" fill="#9FCFEB"></path>
                    <g id="Page-1" transform="translate(24.000000, 7.000000)">
                        <mask id="mask-2" fill="white">
                            <use xlink:href="#path-1"></use>
                        </mask>
                        <g id="Clip-2"></g>
                        <path d="M43.9999,1.5398 L43.9999,1.5338 C43.9999,1.4908 43.9979,1.4498 43.9949,1.4078 C43.9939,1.3958 43.9919,1.3838 43.9909,1.3718 C43.9869,1.3368 43.9819,1.3018 43.9769,1.2678 C43.9749,1.2578 43.9739,1.2478 43.9719,1.2388 C43.9639,1.1968 43.9539,1.1558 43.9419,1.1148 C43.9389,1.1028 43.9349,1.0898 43.9309,1.0778 C43.9219,1.0488 43.9119,1.0188 43.9009,0.9908 C43.8959,0.9758 43.8899,0.9608 43.8839,0.9458 C43.8699,0.9108 43.8539,0.8748 43.8359,0.8408 C43.8299,0.8268 43.8219,0.8138 43.8139,0.8008 C43.7999,0.7738 43.7849,0.7478 43.7699,0.7228 C43.7599,0.7078 43.7509,0.6928 43.7419,0.6788 C43.7229,0.6498 43.7029,0.6228 43.6819,0.5948 C43.6749,0.5868 43.6689,0.5788 43.6629,0.5698 C43.6359,0.5368 43.6069,0.5048 43.5779,0.4748 C43.5689,0.4648 43.5599,0.4568 43.5509,0.4468 C43.5219,0.4178 43.4929,0.3908 43.4619,0.3648 L43.4519,0.3548 C43.4509,0.3538 43.4489,0.3528 43.4479,0.3528 C43.4189,0.3288 43.3899,0.3048 43.3579,0.2828 C43.3519,0.2788 43.3459,0.2748 43.3389,0.2698 C43.3279,0.2628 43.3169,0.2548 43.3059,0.2478 C43.2769,0.2298 43.2489,0.2118 43.2199,0.1958 C43.2079,0.1888 43.1959,0.1828 43.1849,0.1758 C43.1479,0.1568 43.1099,0.1388 43.0729,0.1228 L43.0279,0.1048 C43.0009,0.0948 42.9749,0.0848 42.9479,0.0768 C42.9319,0.0708 42.9159,0.0658 42.8999,0.0608 C42.8609,0.0498 42.8219,0.0398 42.7819,0.0318 C42.7709,0.0288 42.7599,0.0278 42.7489,0.0258 C42.7159,0.0198 42.6839,0.0148 42.6509,0.0108 C42.6369,0.0088 42.6229,0.0078 42.6079,0.0068 C42.5719,0.0028 42.5349,0.0008 42.4989,0.0008 C42.4919,-0.0002 42.4859,-0.0002 42.4789,-0.0002 C42.4359,-0.0002 42.3929,0.0018 42.3499,0.0058 C42.3379,0.0058 42.3279,0.0078 42.3159,0.0088 C42.2819,0.0128 42.2469,0.0178 42.2129,0.0228 C42.2029,0.0248 42.1919,0.0268 42.1819,0.0288 C42.1399,0.0368 42.0979,0.0468 42.0559,0.0588 C42.0459,0.0608 42.0369,0.0648 42.0269,0.0678 C41.9959,0.0778 41.9639,0.0878 41.9339,0.0998 C41.9179,0.1058 41.9029,0.1118 41.8889,0.1178 C41.8599,0.1288 41.8329,0.1238 41.8049,0.1378 C41.7929,0.1438 41.7799,0.1378 41.7679,0.1378 L0.8189,21.6078 C0.3119,21.8728 -0.0041,22.4108 -0.0001,22.9838 C0.0039,23.5578 0.3279,24.0848 0.8379,24.3438 L11.8349,29.9118 C12.5869,30.2918 13.5049,29.9908 13.8849,29.2358 C14.2649,28.4818 13.9619,27.5618 13.2099,27.1808 L4.8659,22.9578 L36.4059,6.4348 L16.9639,29.8048 C16.7349,30.0798 16.6089,30.4268 16.6089,30.7848 L16.6089,42.4698 C16.6089,43.3148 17.2919,43.9998 18.1349,43.9998 C18.9779,43.9998 19.6619,43.3148 19.6619,42.4698 L19.6619,31.3388 L40.1699,6.6868 L35.4989,38.3418 L24.4949,32.8658 C23.7399,32.4908 22.8239,32.7998 22.4499,33.5568 C22.0749,34.3128 22.3829,35.2318 23.1379,35.6068 L36.0219,42.0188 C36.2359,42.1258 36.4679,42.1788 36.7009,42.1788 C36.9429,42.1788 37.1869,42.1208 37.4079,42.0048 C37.8399,41.7778 38.1389,41.3568 38.2099,40.8728 L43.9829,1.7538 C43.9859,1.7398 43.9869,1.7268 43.9879,1.7118 C43.9899,1.6978 43.9919,1.6838 43.9929,1.6688 C43.9969,1.6248 43.9999,1.5818 43.9999,1.5398" id="Fill-1" fill="#78828F" mask="url(#mask-2)"></path>
                    </g>
                </g>
            </g>
        </g>
    </g>
</svg>