<?xml version="1.0" encoding="UTF-8"?>
<svg width="41px" height="42px" viewBox="0 0 41 42" version="1.1" xmlns="http://www.w3.org/2000/svg" xmlns:xlink="http://www.w3.org/1999/xlink">
    <!-- Generator: Sketch 44 (41411) - http://www.bohemiancoding.com/sketch -->
    <title>liucheng</title>
    <desc>Created with Sketch.</desc>
    <defs></defs>
    <g id="Page-1" stroke="none" stroke-width="1" fill="none" fill-rule="evenodd">
        <g id="1首页" transform="translate(-644.000000, -1250.000000)" fill="#D4D4D6">
            <g id="底部" transform="translate(0.000000, 1236.000000)">
                <g id="我的" transform="translate(616.000000, 4.000000)">
                    <path d="M66.139459,36.7462698 L61.3720052,36.7462698 L61.3720052,30.0249974 L49.9302419,30.0249974 L49.9302419,25.2572417 L57.5581222,25.2572417 C58.9389428,25.2572417 60.4184915,23.785956 60.4184915,22.3966341 L60.4184915,12.86118 C60.4184915,11.4792417 58.9342496,10 57.5581222,10 L39.4418205,10 C38.0609427,10 36.581394,11.469912 36.581394,12.86118 L36.581394,22.3966341 C36.581394,23.7766263 38.0609427,25.2572417 39.4418205,25.2572417 L47.0697009,25.2572417 L47.0697009,30.0249974 L35.6279376,30.0249974 L35.6279376,36.7462698 L30.8604838,36.7462698 C29.4702769,36.7462698 28,38.2306057 28,39.6069347 L28,48.1888148 C28,49.5558141 29.4749128,51.0494796 30.8604838,51.0494796 L43.2558179,51.0494796 C44.6459676,51.0494796 46.1163017,49.5651438 46.1163017,48.1888148 L46.1163017,39.6069347 C46.1163017,38.2381038 44.6413889,36.7462698 43.2558179,36.7462698 L38.4884213,36.7462698 L38.4884213,32.885605 L58.5116359,32.885605 L58.5116359,36.7462698 L53.7442393,36.7462698 C52.3539752,36.7462698 50.8837555,38.2306057 50.8837555,39.6069347 L50.8837555,48.1888148 C50.8837555,49.5558141 52.3586683,51.0494796 53.7442393,51.0494796 L66.1395162,51.0494796 C67.5296659,51.0494796 69,49.5651438 69,48.1888148 L69,39.6069347 C68.9999428,38.2381038 67.5249727,36.7462698 66.139459,36.7462698 Z M43.2557607,39.6069347 L43.2557607,48.1888148 C43.2557607,48.1795423 30.8604265,48.1888148 30.8604265,48.1888148 C30.8604265,48.1888148 30.8510974,39.6069347 30.8604265,39.6069347 C30.8604838,39.6069347 43.2557607,39.6199276 43.2557607,39.6069347 Z M39.4418205,22.3966341 L57.5581222,22.3966341 L57.5581222,12.86118 L39.4418205,12.86118 L39.4418205,22.3966341 Z M53.7441248,48.1888148 L53.7441248,39.6069347 C53.7441248,39.6069347 66.139459,39.6199276 66.139459,39.6069347 L66.139459,48.1888148 C66.139459,48.1888148 53.7441248,48.1758219 53.7441248,48.1888148 Z" id="liucheng"></path>
                </g>
            </g>
        </g>
    </g>
</svg>