<?xml version="1.0" encoding="UTF-8"?>
<svg width="42px" height="44px" viewBox="0 0 42 44" version="1.1" xmlns="http://www.w3.org/2000/svg" xmlns:xlink="http://www.w3.org/1999/xlink">
    <!-- Generator: Sketch 44 (41411) - http://www.bohemiancoding.com/sketch -->
    <title>shouye</title>
    <desc>Created with Sketch.</desc>
    <defs>
        <polygon id="path-1" points="42 21.9998 42 0 0 0 0 21.9998 0 43.9996 42 43.9996 42 21.9998"></polygon>
    </defs>
    <g id="Page-1" stroke="none" stroke-width="1" fill="none" fill-rule="evenodd">
        <g id="2发起-常用" transform="translate(-65.000000, -1248.000000)">
            <g id="底部" transform="translate(0.000000, 1236.000000)">
                <g id="待办" transform="translate(62.000000, 12.000000)">
                    <g id="shouye" transform="translate(3.000000, 0.000000)">
                        <mask id="mask-2" fill="white">
                            <use xlink:href="#path-1"></use>
                        </mask>
                        <g id="Clip-2"></g>
                        <path d="M42,37.0186 C42,37.9086 41.299,38.6336 40.42,38.6336 C39.557,38.6336 38.856,37.9086 38.856,37.0186 L38.856,4.1866 C38.856,3.6566 38.431,3.2176 37.904,3.2176 L4.096,3.2176 C3.573,3.2176 3.152,3.6566 3.152,4.1866 L3.152,39.8056 C3.152,40.3436 3.573,40.7786 4.096,40.7786 L34.116,40.7786 C34.995,40.7786 35.696,41.5026 35.696,42.3936 C35.696,43.2836 34.995,43.9996 34.116,43.9996 L2.099,43.9996 C0.94,43.9996 0,43.0396 0,41.8546 L0,2.1446 C0,0.9606 0.94,-0.0004 2.099,-0.0004 L39.893,-0.0004 C41.064,-0.0004 42,0.9566 42,2.1446 L42,37.0186 Z M32.03,23.6066 L18.373,23.6066 C17.51,23.6066 16.809,22.8906 16.809,21.9996 C16.809,21.1096 17.51,20.3856 18.373,20.3856 L32.03,20.3856 C32.893,20.3856 33.61,21.1096 33.61,21.9996 C33.61,22.8906 32.893,23.6066 32.03,23.6066 L32.03,23.6066 Z M32.03,13.9546 L18.373,13.9546 C17.51,13.9546 16.809,13.2296 16.809,12.3396 C16.809,11.4496 17.51,10.7286 18.373,10.7286 L32.03,10.7286 C32.893,10.7286 33.61,11.4496 33.61,12.3396 C33.61,13.2296 32.893,13.9546 32.03,13.9546 L32.03,13.9546 Z M32.03,33.2706 L18.373,33.2706 C17.51,33.2706 16.809,32.5426 16.809,31.6526 C16.809,30.7666 17.51,30.0456 18.373,30.0456 L32.03,30.0456 C32.893,30.0456 33.61,30.7666 33.61,31.6526 C33.605,32.5426 32.893,33.2706 32.03,33.2706 L32.03,33.2706 Z M12.069,23.6066 L9.979,23.6066 C9.104,23.6066 8.398,22.8906 8.398,21.9996 C8.398,21.1096 9.099,20.3856 9.979,20.3856 L12.069,20.3856 C12.948,20.3856 13.649,21.1096 13.649,21.9996 C13.649,22.8906 12.948,23.6066 12.069,23.6066 L12.069,23.6066 Z M12.069,13.9546 L9.979,13.9546 C9.104,13.9546 8.398,13.2296 8.398,12.3396 C8.398,11.4496 9.099,10.7286 9.979,10.7286 L12.069,10.7286 C12.948,10.7286 13.649,11.4496 13.649,12.3396 C13.649,13.2296 12.948,13.9546 12.069,13.9546 L12.069,13.9546 Z M12.069,33.2706 L9.979,33.2706 C9.104,33.2706 8.398,32.5426 8.398,31.6526 C8.398,30.7666 9.099,30.0456 9.979,30.0456 L12.069,30.0456 C12.948,30.0456 13.649,30.7666 13.649,31.6526 C13.649,32.5426 12.948,33.2706 12.069,33.2706 L12.069,33.2706 Z" id="Fill-1" fill="#D4D4D6" mask="url(#mask-2)"></path>
                    </g>
                </g>
            </g>
        </g>
    </g>
</svg>