<?xml version="1.0" encoding="utf-8"?>
<!-- Generator: Adobe Illustrator 19.0.0, SVG Export Plug-In . SVG Version: 6.00 Build 0)  -->
<svg version="1.1" id="图层_1" xmlns="http://www.w3.org/2000/svg" xmlns:xlink="http://www.w3.org/1999/xlink" x="0px" y="0px"
	 viewBox="-4 6 60 60" style="enable-background:new -4 6 60 60;" xml:space="preserve">
<style type="text/css">
	.st0{fill:none;}
	.st1{filter:url(#Adobe_OpacityMaskFilter);}
	.st2{fill:#FFFFFF;}
	.st3{mask:url(#mask-2);fill:#9FCFEB;}
	.st4{filter:url(#Adobe_OpacityMaskFilter_1_);}
	.st5{mask:url(#mask-4);fill:#78828F;}
</style>
<title>shouyexuanzhong</title>
<desc>Created with Sketch.</desc>
<g>
	<rect id="Rectangle-4" x="-4" y="6" class="st0" width="60" height="60"/>
	<g id="Page-1" transform="translate(8.000000, 8.000000)">
		<g id="Clip-2">
		</g>
		<defs>
			<filter id="Adobe_OpacityMaskFilter" filterUnits="userSpaceOnUse" x="5" y="12" width="38" height="42">
				<feColorMatrix  type="matrix" values="1 0 0 0 0  0 1 0 0 0  0 0 1 0 0  0 0 0 1 0"/>
			</filter>
		</defs>
		<mask maskUnits="userSpaceOnUse" x="5" y="12" width="38" height="42" id="mask-2">
			<g class="st1">
				<polygon id="path-1" class="st2" points="24,12 5,12 5,54 24,54 43,54 43,12 				"/>
			</g>
		</mask>
		<path id="Fill-1" class="st3" d="M35.1,54H6.8c-1,0-1.8-0.9-1.8-2V14c0-1.1,0.8-2,1.8-2h34.3c1,0,1.9,0.9,1.9,2v32.5"/>
	</g>
	<g id="Page-1_1_">
		<g id="Clip-2_1_">
		</g>
		<defs>
			<filter id="Adobe_OpacityMaskFilter_1_" filterUnits="userSpaceOnUse" x="5" y="12" width="42" height="44">
				<feColorMatrix  type="matrix" values="1 0 0 0 0  0 1 0 0 0  0 0 1 0 0  0 0 0 1 0"/>
			</filter>
		</defs>
		<mask maskUnits="userSpaceOnUse" x="5" y="12" width="42" height="44" id="mask-4">
			<g class="st4">
				<polygon id="path-3" class="st2" points="47,34 47,12 5,12 5,34 5,56 47,56 				"/>
			</g>
		</mask>
		<path id="Fill-1_1_" class="st5" d="M47,49c0,0.9-0.7,1.6-1.6,1.6c-0.9,0-1.6-0.7-1.6-1.6V16.2c0-0.5-0.4-1-1-1H9.1
			c-0.5,0-0.9,0.4-0.9,1v35.6c0,0.5,0.4,1,0.9,1h30c0.9,0,1.6,0.7,1.6,1.6c0,0.9-0.7,1.6-1.6,1.6h-32C5.9,56,5,55,5,53.9V14.1
			C5,13,5.9,12,7.1,12h37.8c1.2,0,2.1,1,2.1,2.1V49z M37,35.6H23.4c-0.9,0-1.6-0.7-1.6-1.6c0-0.9,0.7-1.6,1.6-1.6H37
			c0.9,0,1.6,0.7,1.6,1.6C38.6,34.9,37.9,35.6,37,35.6L37,35.6z M37,26H23.4c-0.9,0-1.6-0.7-1.6-1.6s0.7-1.6,1.6-1.6H37
			c0.9,0,1.6,0.7,1.6,1.6S37.9,26,37,26L37,26z M37,45.3H23.4c-0.9,0-1.6-0.7-1.6-1.6c0-0.9,0.7-1.6,1.6-1.6H37
			c0.9,0,1.6,0.7,1.6,1.6C38.6,44.5,37.9,45.3,37,45.3L37,45.3z M17.1,35.6H15c-0.9,0-1.6-0.7-1.6-1.6c0-0.9,0.7-1.6,1.6-1.6h2.1
			c0.9,0,1.6,0.7,1.6,1.6C18.6,34.9,17.9,35.6,17.1,35.6L17.1,35.6z M17.1,26H15c-0.9,0-1.6-0.7-1.6-1.6s0.7-1.6,1.6-1.6h2.1
			c0.9,0,1.6,0.7,1.6,1.6S17.9,26,17.1,26L17.1,26z M17.1,45.3H15c-0.9,0-1.6-0.7-1.6-1.6c0-0.9,0.7-1.6,1.6-1.6h2.1
			c0.9,0,1.6,0.7,1.6,1.6C18.6,44.5,17.9,45.3,17.1,45.3L17.1,45.3z"/>
	</g>
</g>
</svg>
