<?xml version="1.0" encoding="UTF-8"?>
<svg width="60px" height="60px" viewBox="0 0 60 60" version="1.1" xmlns="http://www.w3.org/2000/svg" xmlns:xlink="http://www.w3.org/1999/xlink">
    <!-- Generator: Sketch 44 (41411) - http://www.bohemiancoding.com/sketch -->
    <title>wodexuanzhong</title>
    <desc>Created with Sketch.</desc>
    <defs></defs>
    <g id="Page-1" stroke="none" stroke-width="1" fill="none" fill-rule="evenodd">
        <g id="4我的-" transform="translate(-634.000000, -1240.000000)">
            <g id="底部" transform="translate(0.000000, 1236.000000)">
                <g id="我的" transform="translate(616.000000, 4.000000)">
                    <g id="Group" transform="translate(27.000000, 9.000000)">
                        <rect id="Rectangle-5" fill="#9FCFEB" x="13" y="4" width="21" height="12" rx="2"></rect>
                        <rect id="Rectangle-5" fill="#9FCFEB" x="4" y="31" width="16" height="12" rx="2"></rect>
                        <rect id="Rectangle-5" fill="#9FCFEB" x="27" y="31" width="16" height="12" rx="2"></rect>
                        <path d="M38.139459,26.7462698 L33.3720052,26.7462698 L33.3720052,20.0249974 L21.9302419,20.0249974 L21.9302419,15.2572417 L29.5581222,15.2572417 C30.9389428,15.2572417 32.4184915,13.785956 32.4184915,12.3966341 L32.4184915,2.86117999 C32.4184915,1.47924173 30.9342496,0 29.5581222,0 L11.4418205,0 C10.0609427,0 8.58139402,1.46991204 8.58139402,2.86117999 L8.58139402,12.3966341 C8.58139402,13.7766263 10.0609427,15.2572417 11.4418205,15.2572417 L19.0697009,15.2572417 L19.0697009,20.0249974 L7.62793759,20.0249974 L7.62793759,26.7462698 L2.86048375,26.7462698 C1.47027686,26.7462698 0,28.2306057 0,29.6069347 L0,38.1888148 C0,39.5558141 1.47491279,41.0494796 2.86048375,41.0494796 L15.2558179,41.0494796 C16.6459676,41.0494796 18.1163017,39.5651438 18.1163017,38.1888148 L18.1163017,29.6069347 C18.1163017,28.2381038 16.6413889,26.7462698 15.2558179,26.7462698 L10.4884213,26.7462698 L10.4884213,22.885605 L30.5116359,22.885605 L30.5116359,26.7462698 L25.7442393,26.7462698 C24.3539752,26.7462698 22.8837555,28.2306057 22.8837555,29.6069347 L22.8837555,38.1888148 C22.8837555,39.5558141 24.3586683,41.0494796 25.7442393,41.0494796 L38.1395162,41.0494796 C39.5296659,41.0494796 41,39.5651438 41,38.1888148 L41,29.6069347 C40.9999428,28.2381038 39.5249727,26.7462698 38.139459,26.7462698 Z M15.2557607,29.6069347 L15.2557607,38.1888148 C15.2557607,38.1795423 2.86042652,38.1888148 2.86042652,38.1888148 C2.86042652,38.1888148 2.85109742,29.6069347 2.86042652,29.6069347 C2.86048375,29.6069347 15.2557607,29.6199276 15.2557607,29.6069347 Z M11.4418205,12.3966341 L29.5581222,12.3966341 L29.5581222,2.86117999 L11.4418205,2.86117999 L11.4418205,12.3966341 Z M25.7441248,38.1888148 L25.7441248,29.6069347 C25.7441248,29.6069347 38.139459,29.6199276 38.139459,29.6069347 L38.139459,38.1888148 C38.139459,38.1888148 25.7441248,38.1758219 25.7441248,38.1888148 Z" id="流程(3)" fill="#78828F"></path>
                    </g>
                </g>
            </g>
        </g>
    </g>
</svg>