<?xml version="1.0" encoding="UTF-8"?>
<svg width="54px" height="48px" viewBox="0 0 54 48" version="1.1" xmlns="http://www.w3.org/2000/svg" xmlns:xlink="http://www.w3.org/1999/xlink">
    <!-- Generator: Sketch 46.2 (44496) - http://www.bohemiancoding.com/sketch -->
    <title>caidan</title>
    <desc>Created with Sketch.</desc>
    <defs></defs>
    <g id="页面" stroke="none" stroke-width="1" fill="none" fill-rule="evenodd">
        <g id="6-应用图标" transform="translate(-347.000000, -786.000000)" fill="#FFFFFF">
            <g id="产品目录" transform="translate(324.000000, 760.000000)">
                <path d="M40.9127887,26.1052375 L27.4332654,26.1052375 C24.9751831,26.1379781 22.999766,28.1387186 23,30.5953715 L23,44.0657734 C22.999766,46.5224263 24.9751831,48.5231669 27.4332654,48.5559074 L40.9127887,48.5559074 C43.4041603,48.5561413 45.4331094,46.5552838 45.4658722,44.0657734 L45.4658722,30.5953715 C45.4290726,28.1076151 43.4025222,26.1090378 40.9127887,26.1052375 L40.9127887,26.1052375 Z M40.9726977,51.5493301 L27.4931744,51.5493301 C25.0116316,51.5493301 23,53.559659 23,56.0394641 L23,69.509866 C23,71.9897296 25.0116316,74 27.4931744,74 L40.9726977,74 C43.454182,74 45.4658722,71.9897296 45.4658722,69.509866 L45.4658722,56.0394641 C45.4658722,53.559659 43.454182,51.5493301 40.9726977,51.5493301 L40.9726977,51.5493301 Z M74.671506,30.5953715 L52.2056338,30.5953715 C50.9452048,30.6515566 49.9537811,31.6918295 49.9590466,32.9526918 L49.9590466,32.8928234 C49.9875385,34.1122339 50.9850466,35.0858563 52.2056338,35.0855055 L74.671506,35.0855055 C75.2544485,35.1077223 75.8217118,34.8938563 76.2446436,34.4923167 C76.6676338,34.0907771 76.910429,33.5356492 76.9180932,32.9526918 L76.9180932,32.8928234 C76.9184442,31.6441803 75.9207021,30.6238441 74.671506,30.5953715 L74.671506,30.5953715 Z M74.671506,39.5756395 L52.2056338,39.5756395 C51.6214041,39.5533642 51.0529707,39.7682826 50.629805,40.1714592 C50.2066392,40.5745773 49.9646631,41.1316931 49.9590466,41.7159367 L49.9590466,41.7683216 C49.9586956,43.0169647 50.9564377,44.0373009 52.2056338,44.0657734 L74.671506,44.0657734 C75.9307649,44.013447 76.9231831,42.9753959 76.9180932,41.7159367 L76.9180932,41.7683216 C76.8896013,40.5489111 75.8920932,39.5752887 74.671506,39.5756395 L74.671506,39.5756395 Z M74.671506,56.0394641 L52.2056338,56.0394641 C50.9648624,56.0394641 49.9590466,57.0445993 49.9590466,58.2845311 C49.9590466,59.5244629 50.9648624,60.5295981 52.2056338,60.5295981 L74.671506,60.5295981 C75.9122774,60.5295981 76.9180932,59.5244629 76.9180932,58.2845311 C76.9180932,57.0445993 75.9122774,56.0394641 74.671506,56.0394641 L74.671506,56.0394641 Z M74.671506,65.019732 L52.2056338,65.019732 C50.9648624,65.019732 49.9590466,66.0248672 49.9590466,67.264799 C49.9590466,68.5047308 50.9648624,69.509866 52.2056338,69.509866 L74.671506,69.509866 C75.9122774,69.509866 76.9180932,68.5047308 76.9180932,67.264799 C76.9180932,66.0248672 75.9122774,65.019732 74.671506,65.019732 L74.671506,65.019732 Z" id="caidan"></path>
            </g>
        </g>
    </g>
</svg>