<?xml version="1.0" encoding="UTF-8"?>
<svg width="34px" height="35px" viewBox="0 0 34 35" version="1.1" xmlns="http://www.w3.org/2000/svg" xmlns:xlink="http://www.w3.org/1999/xlink">
    <!-- Generator: Sketch 46.2 (44496) - http://www.bohemiancoding.com/sketch -->
    <title>shijian</title>
    <desc>Created with Sketch.</desc>
    <defs></defs>
    <g id="Page-1" stroke="none" stroke-width="1" fill="none" fill-rule="evenodd">
        <g id="5已办-筛选1" transform="translate(-322.000000, -579.000000)" fill-rule="nonzero" stroke="#77BCFA" fill="#77BCFA">
            <g id="Group-4" transform="translate(92.000000, 224.000000)">
                <g id="上" transform="translate(23.500000, 30.000000)">
                    <g id="创建日期" transform="translate(0.000000, 239.000000)">
                        <g id="Group-6" transform="translate(0.000000, 67.000000)">
                            <g id="Group-5">
                                <g id="shijian" transform="translate(207.000000, 20.000000)">
                                    <path d="M27.4999865,16.4999189 L23.8333378,16.4999189 L23.8333378,20.1666683 L27.5000234,20.1666683 L27.5000234,16.4999189 L27.4999865,16.4999189 Z M9.16666216,0 L7.33333415,0 L7.33333415,5.49990656 L9.16666216,5.49990656 L9.16666216,0 Z M18.3333243,16.4999189 L14.6666757,16.4999189 L14.6666757,20.1666683 L18.3333612,20.1666683 L18.3333612,16.4999189 L18.3333243,16.4999189 Z M22.0000098,1.8333563 L10.9999902,1.8333563 L10.9999902,3.66657979 L22.0000098,3.66657979 L22.0000098,1.8333563 Z M9.16666216,16.4999189 L5.49997662,16.4999189 L5.49997662,20.1666683 L9.16666216,20.1666683 L9.16666216,16.4999189 Z M31.1666794,1.8333563 L27.4999938,1.8333563 L27.4999938,3.66657979 L29.3333218,3.66657979 C30.345787,3.66657979 31.1666425,4.48744211 31.1666425,5.49990656 L31.1666425,11.0000123 L1.833328,11.0000123 L1.833328,5.49990656 C1.833328,4.48744211 2.65412446,3.66657979 3.666656,3.66657979 L5.499984,3.66657979 L5.499984,1.8333563 L1.833328,1.8333563 C0.820759548,1.8333563 0,2.65415221 0,3.66657979 L0,31.1666806 C0,32.1791451 0.820796461,33 1.833328,33 L31.166672,33 C32.1792405,33 33,32.1791451 33,31.1666806 L33,3.66657979 C33,2.6541153 32.1792404,1.8333563 31.1666794,1.8333563 Z M31.1666794,29.3332579 C31.1666794,30.3458257 30.3458165,31.1666806 29.3333514,31.1666806 L3.66664862,31.1666806 C2.65408017,31.1666806 1.83332062,30.3458183 1.83332062,29.3332579 L1.83332062,12.8333391 L31.166672,12.8333391 L31.1666794,29.3332579 Z M9.16666216,23.8333514 L5.49997662,23.8333514 L5.49997662,27.4999312 L9.16666216,27.4999312 L9.16666216,23.8333514 Z M18.3333243,23.8333514 L14.6666757,23.8333514 L14.6666757,27.4999312 L18.3333612,27.4999312 L18.3333612,23.8333514 L18.3333243,23.8333514 Z M25.6666585,0 L23.8333305,0 L23.8333305,5.49990656 L25.6666585,5.49990656 L25.6666585,0 Z M27.4999865,23.8333514 L23.8333378,23.8333514 L23.8333378,27.4999312 L27.5000234,27.4999312 L27.5000234,23.8333514 L27.4999865,23.8333514 Z" id="Shape"></path>
                                </g>
                            </g>
                        </g>
                    </g>
                </g>
            </g>
        </g>
    </g>
</svg>