<?xml version="1.0" encoding="UTF-8"?>
<svg width="47px" height="47px" viewBox="0 0 47 47" version="1.1" xmlns="http://www.w3.org/2000/svg" xmlns:xlink="http://www.w3.org/1999/xlink">
    <!-- Generator: Sketch 46.2 (44496) - http://www.bohemiancoding.com/sketch -->
    <title>yingyong</title>
    <desc>Created with Sketch.</desc>
    <defs></defs>
    <g id="页面" stroke="none" stroke-width="1" fill="none" fill-rule="evenodd">
        <g id="6-应用图标" transform="translate(-168.000000, -787.000000)" fill="#FFFFFF">
            <g id="产品分类" transform="translate(141.000000, 760.000000)">
                <g id="morenyingyong">
                    <path d="M46.4915621,27.1296483 L29.6801144,27.1296483 C28.2000404,27.1296483 27,28.3372429 27,29.8266384 L27,46.5983362 C27,48.0879308 28.2000404,49.2955254 29.6801144,49.2955254 L46.4915621,49.2955254 C47.9718982,49.2955254 49.1716764,48.0879972 49.1716764,46.5983362 L49.1716764,29.8266384 C49.1716764,28.3372429 47.9718982,27.1296483 46.4915621,27.1296483 Z M46.4915621,51.8340565 L29.6801144,51.8340565 C28.2000404,51.8340565 27,53.0417175 27,54.5311794 L27,71.3031427 C27,72.7926045 28.2000404,74 29.6801144,74 L46.4915621,74 C47.9718982,74 49.1716764,72.7926045 49.1716764,71.3031427 L49.1716764,54.5311794 C49.1716764,53.0416511 47.9718982,51.8340565 46.4915621,51.8340565 Z M71.2013696,51.8340565 L54.3895941,51.8340565 C52.9095202,51.8340565 51.7096109,53.0417175 51.7096109,54.5311794 L51.7096109,71.3031427 C51.7096109,72.7926045 52.9095202,74 54.3895941,74 L71.2013696,74 C72.6814435,74 73.8811562,72.7926045 73.8811562,71.3031427 L73.8811562,54.5311794 C73.8811562,53.0416511 72.6814435,51.8340565 71.2013696,51.8340565 Z M55.6044491,49.4571045 L69.9512483,49.4571045 C72.0990237,49.4571045 73.8464142,47.6989195 73.8464142,45.5375169 L73.8464142,31.2246893 C73.8464142,29.0632203 72.0990237,27.3051017 69.9512483,27.3051017 L55.6044491,27.3051017 C53.4568703,27.3051017 51.7096109,29.0632867 51.7096109,31.2246893 L51.7096109,45.5375169 C51.7096109,47.6988531 53.4568703,49.4571045 55.6044491,49.4571045 Z M54.9254073,31.2246893 C54.9254073,30.8480254 55.2303501,30.5415297 55.6044491,30.5415297 L69.9512483,30.5415297 C70.3256095,30.5415297 70.6302901,30.847959 70.6302901,31.2246893 L70.6302901,45.5375169 C70.6302901,45.9142472 70.3256095,46.2208757 69.9512483,46.2208757 L55.6044491,46.2208757 C55.2303501,46.2208757 54.9254073,45.9142472 54.9254073,45.5375169 L54.9254073,31.2246893 L54.9254073,31.2246893 Z" id="yingyong"></path>
                </g>
            </g>
        </g>
    </g>
</svg>