<?xml version="1.0" encoding="UTF-8"?>
<svg width="40px" height="40px" viewBox="0 0 40 40" version="1.1" xmlns="http://www.w3.org/2000/svg" xmlns:xlink="http://www.w3.org/1999/xlink">
    <!-- Generator: Sketch 44 (41411) - http://www.bohemiancoding.com/sketch -->
    <title>download</title>
    <desc>Created with Sketch.</desc>
    <defs></defs>
    <g id="Page-1" stroke="none" stroke-width="1" fill="none" fill-rule="evenodd">
        <g id="6流程详情页_进行中" transform="translate(-681.000000, -1313.000000)" fill="#BDBDBD">
            <g id="Group-4" transform="translate(0.000000, 444.000000)">
                <g id="跳转-文-文-copy-3" transform="translate(23.000000, 782.000000)">
                    <g id="Group-2" transform="translate(13.000000, 74.000000)">
                        <g id="download" transform="translate(645.000000, 13.000000)">
                            <path d="M38.815046,19.0377102 C38.1653908,19.0377102 37.6388391,19.5635638 37.6388391,20.2122296 L37.6388391,36.9375093 C37.6388391,37.326089 37.3222299,37.6422439 36.933092,37.6422439 L3.05814943,37.6422439 C2.66901149,37.6422439 2.3524023,37.326089 2.3524023,36.9375093 L2.3524023,20.2122296 C2.3524023,19.5635638 1.8257931,19.0377102 1.1761954,19.0377102 C0.526597701,19.0377102 -1.14942529e-05,19.5635638 -1.14942529e-05,20.2122296 L-1.14942529e-05,36.9375093 C-1.14942529e-05,38.6213544 1.37188506,39.9912826 3.05814943,39.9912826 L36.933092,39.9912826 C38.6193563,39.9912826 39.9912529,38.6213544 39.9912529,36.9375093 L39.9912529,20.2122296 C39.9912529,19.5635638 39.4647011,19.0377102 38.815046,19.0377102" id="Fill-1"></path>
                            <path d="M19.1639713,32.1303472 C19.3936839,32.3596729 19.6946034,32.4743357 19.9956954,32.4743357 C20.2967299,32.4743357 20.5977069,32.3596729 20.8274195,32.1303472 L31.9308678,21.0427719 C32.3902356,20.5841205 32.3902356,19.8404763 31.9308678,19.3817676 C31.4714425,18.9231162 30.7267874,18.9231162 30.267477,19.3817676 L21.1718448,28.4642353 L21.1718448,1.23192539 C21.1718448,0.583259684 20.6451782,0.0574060258 19.9956379,0.0574060258 C19.3460402,0.0574060258 18.819431,0.583259684 18.819431,1.23192539 L18.819431,28.4642353 L9.72391379,19.3817102 C9.26454598,18.9230588 8.51983333,18.9230588 8.06052299,19.3817102 C7.60115517,19.8404189 7.60115517,20.5840631 8.06052299,21.0427145 L19.1639713,32.1303472 Z" id="Fill-4"></path>
                        </g>
                    </g>
                </g>
            </g>
        </g>
    </g>
</svg>