<?xml version="1.0" encoding="UTF-8"?>
<svg width="267px" height="281px" viewBox="0 0 267 281" version="1.1" xmlns="http://www.w3.org/2000/svg" xmlns:xlink="http://www.w3.org/1999/xlink">
    <!-- Generator: Sketch 44 (41411) - http://www.bohemiancoding.com/sketch -->
    <title>empty</title>
    <desc>Created with Sketch.</desc>
    <defs></defs>
    <g id="Page-1" stroke="none" stroke-width="1" fill="none" fill-rule="evenodd">
        <g id="5列表页-数据为空-" transform="translate(-242.000000, -328.000000)">
            <g id="empty" transform="translate(242.000000, 328.000000)">
                <g id="Group-3" transform="translate(0.000000, 59.000000)" fill="#F6F9FD">
                    <path d="M260.7102,130.7148 L235.8402,108.6698 C235.1122,48.9718 186.5012,0.7978 126.6302,0.7978 C101.1022,0.7978 77.6242,9.5608 59.0272,24.2358 L49.3132,15.6248 C46.1412,12.8148 41.2932,13.1068 38.4822,16.2768 C35.6712,19.4478 35.9642,24.2968 39.1352,27.1078 L47.6092,34.6198 L47.5712,34.6588 L54.1452,40.4868 C58.1082,44.0008 58.4742,50.0608 54.9602,54.0258 C52.3742,56.9488 48.2712,58.0088 44.5922,56.7028 L25.5222,39.7988 C19.1812,34.1788 9.4842,34.7608 3.8612,41.1038 C-1.7598,47.4448 -1.1748,57.1428 5.1662,62.7638 L22.2162,77.8778 C19.0882,88.0408 17.4032,98.8358 17.4032,110.0258 C17.4032,170.3498 66.3062,219.2528 126.6302,219.2528 C159.5532,219.2528 189.0682,204.6838 209.0922,181.6448 L221.1542,192.3368 C223.9572,194.8278 227.5772,196.2018 231.3262,196.1988 C235.5642,196.1988 239.7832,194.4518 242.8142,191.0328 C248.4362,184.6918 247.8522,174.9938 241.5112,169.3728 L214.2312,145.1928 C210.8392,140.9008 210.8922,134.6718 214.6472,130.4358 C218.2332,126.3878 224.0312,125.4808 228.6112,127.8938 L247.9862,145.0678 C249.7372,146.6258 252.0002,147.4848 254.3442,147.4818 C256.9922,147.4818 259.6292,146.3908 261.5242,144.2528 C265.0382,140.2888 264.6732,134.2288 260.7102,130.7148" id="Fill-1"></path>
                </g>
                <path d="M217.4387,234.333 L217.4387,268 C217.4387,274.6 212.0387,280 205.4387,280 L53.4387,280 C46.8387,280 41.4387,274.6 41.4387,268 L41.4387,71 C41.4387,64.4 46.8387,59 53.4387,59 L205.4387,59 C212.0387,59 217.4387,64.4 217.4387,71 L217.4387,193" id="Stroke-4" stroke="#767E8D" stroke-width="2" stroke-linecap="round" stroke-linejoin="round"></path>
                <path d="M217.4387,215.9995 L217.4387,225.3325" id="Stroke-6" stroke="#767E8D" stroke-width="2" stroke-linecap="round" stroke-linejoin="round"></path>
                <path d="M153.4387,48.5 L139.9137,48.5 C139.6517,43.211 135.2927,39 129.9387,39 C124.5847,39 120.2257,43.211 119.9637,48.5 L105.4387,48.5 C104.3387,48.5 103.4387,49.4 103.4387,50.5 L103.4387,66.5 C103.4387,67.6 104.3387,68.5 105.4387,68.5 L153.4387,68.5 C154.5387,68.5 155.4387,67.6 155.4387,66.5 L155.4387,50.5 C155.4387,49.4 154.5387,48.5 153.4387,48.5" id="Fill-8" fill="#FFFFFF"></path>
                <path d="M153.4387,48.5 L139.9137,48.5 C139.6517,43.211 135.2927,39 129.9387,39 C124.5847,39 120.2257,43.211 119.9637,48.5 L105.4387,48.5 C104.3387,48.5 103.4387,49.4 103.4387,50.5 L103.4387,66.5 C103.4387,67.6 104.3387,68.5 105.4387,68.5 L153.4387,68.5 C154.5387,68.5 155.4387,67.6 155.4387,66.5 L155.4387,50.5 C155.4387,49.4 154.5387,48.5 153.4387,48.5 Z" id="Stroke-10" stroke="#757E8D" stroke-width="2"></path>
                <path d="M192.9387,264 L66.9387,264 C62.5387,264 58.9387,260.4 58.9387,256 L58.9387,96 C58.9387,91.6 62.5387,88 66.9387,88 L192.9387,88 C197.3387,88 200.9387,91.6 200.9387,96 L200.9387,256 C200.9387,260.4 197.3387,264 192.9387,264 Z" id="Stroke-12" stroke="#767E8D" stroke-width="2" stroke-linecap="round" stroke-linejoin="round"></path>
                <path d="M104.9387,122.5 L79.9387,122.5 C78.8347,122.5 77.9387,121.604 77.9387,120.5 L77.9387,106.5 C77.9387,105.396 78.8347,104.5 79.9387,104.5 L104.9387,104.5 C106.0427,104.5 106.9387,105.396 106.9387,106.5 L106.9387,120.5 C106.9387,121.604 106.0427,122.5 104.9387,122.5" id="Fill-14" fill="#D6F0F9"></path>
                <path d="M104.9387,122.5 L79.9387,122.5 C78.8347,122.5 77.9387,121.604 77.9387,120.5 L77.9387,106.5 C77.9387,105.396 78.8347,104.5 79.9387,104.5 L104.9387,104.5 C106.0427,104.5 106.9387,105.396 106.9387,106.5 L106.9387,120.5 C106.9387,121.604 106.0427,122.5 104.9387,122.5 Z" id="Stroke-16" stroke="#757E8D" stroke-width="2"></path>
                <path d="M117.9387,108 L180.9387,109" id="Stroke-18" stroke="#757E8D" stroke-width="2" stroke-linecap="round" stroke-linejoin="round"></path>
                <path d="M117.9387,119 L154.9387,119" id="Stroke-20" stroke="#757E8D" stroke-width="2" stroke-linecap="round" stroke-linejoin="round"></path>
                <path d="M26.9289,20.8818 C26.9289,22.3188 27.6959,23.6468 28.9399,24.3658 C30.1839,25.0838 31.7179,25.0838 32.9629,24.3658 C34.2069,23.6468 34.9729,22.3188 34.9729,20.8818 C34.9729,18.6608 33.1729,16.8598 30.9509,16.8598 C28.7299,16.8598 26.9289,18.6608 26.9289,20.8818 L26.9289,20.8818 Z" id="Fill-22" fill="#F6F9FD"></path>
                <path d="M184.3381,16.3521 C181.9671,16.3551 180.0461,18.2761 180.0441,20.6471 C180.0461,23.0181 181.9671,24.9401 184.3381,24.9431 C186.7091,24.9401 188.6311,23.0191 188.6341,20.6471 C188.6311,18.2761 186.7091,16.3551 184.3381,16.3521 M184.3381,26.3741 C181.1811,26.3741 178.6121,23.8061 178.6121,20.6481 C178.6121,17.4901 181.1811,14.9221 184.3381,14.9221 C187.4961,14.9221 190.0651,17.4911 190.0651,20.6481 C190.0651,23.8051 187.4961,26.3741 184.3381,26.3741" id="Fill-24" fill="#F6F9FD"></path>
                <path d="M263.1379,87.7412 C263.1379,87.7412 262.0649,91.3642 259.9169,91.9012 C259.9169,91.9012 262.6009,92.9742 263.1379,95.6572 C263.1379,95.6572 263.5389,91.7662 266.6249,91.7002 C266.6249,91.6992 263.2729,89.8882 263.1379,87.7412 M254.1929,103.5562 C254.1929,103.5562 251.3299,113.2182 245.6059,114.6492 C245.6059,114.6492 252.7619,117.5112 254.1929,124.6672 C254.1929,124.6672 255.2659,114.2912 263.4949,114.1122 C263.4949,114.1122 254.5509,109.2822 254.1929,103.5562" id="Fill-26" fill="#F6F9FD"></path>
                <path d="M88.257,0 C88.257,0 86.065,7.399 81.68,8.496 C81.68,8.496 87.161,10.688 88.257,16.169 C88.257,16.169 89.079,8.221 95.382,8.084 C95.382,8.084 88.531,4.384 88.257,0" id="Fill-28" fill="#F6F9FD"></path>
                <path d="M159.4192,193.7627 C159.2122,193.6757 158.9792,193.6747 158.7712,193.7597 C158.5622,193.8447 158.3972,194.0077 158.3092,194.2157 C158.2982,194.2407 157.2042,196.8297 155.2772,200.5637 C155.0632,200.9797 155.2262,201.4907 155.6422,201.7047 C156.0592,201.9197 156.5692,201.7567 156.7842,201.3407 C158.7442,197.5427 159.8272,194.9787 159.8722,194.8717 C160.0542,194.4407 159.8512,193.9447 159.4192,193.7627 L159.4192,193.7627 Z M154.0962,204.5597 C153.9002,204.4487 153.6692,204.4197 153.4522,204.4787 C153.2352,204.5387 153.0512,204.6817 152.9402,204.8777 C151.6042,207.2377 150.1792,209.5467 148.6692,211.7997 C148.4892,212.0507 148.4592,212.3797 148.5932,212.6587 C148.7262,212.9367 149.0002,213.1207 149.3082,213.1397 C149.6152,213.1577 149.9092,213.0067 150.0742,212.7457 C151.6082,210.4567 153.0562,208.1117 154.4142,205.7137 C154.5252,205.5187 154.5552,205.2877 154.4942,205.0707 C154.4352,204.8547 154.2912,204.6707 154.0962,204.5597 L154.0962,204.5597 Z M147.0982,215.5077 C146.9192,215.3717 146.6932,215.3127 146.4702,215.3437 C146.2472,215.3747 146.0462,215.4927 145.9112,215.6727 C144.4722,217.5747 143.0082,219.3257 141.5592,220.8777 C141.2532,221.2207 141.2772,221.7457 141.6132,222.0607 C141.9492,222.3747 142.4752,222.3637 142.7972,222.0347 C144.2862,220.4407 145.7892,218.6447 147.2632,216.6947 C147.3982,216.5157 147.4572,216.2897 147.4272,216.0667 C147.3962,215.8447 147.2772,215.6427 147.0982,215.5077 L147.0982,215.5077 Z M138.4362,223.9357 C136.4802,225.6737 134.5142,227.0807 132.5912,228.1187 C132.1792,228.3417 132.0252,228.8557 132.2472,229.2677 C132.4702,229.6797 132.9842,229.8337 133.3972,229.6107 C135.4342,228.5107 137.5072,227.0277 139.5612,225.2027 C139.7962,225.0037 139.9042,224.6937 139.8462,224.3917 C139.7852,224.0897 139.5672,223.8437 139.2742,223.7487 C138.9822,223.6547 138.6602,223.7257 138.4362,223.9357 L138.4362,223.9357 Z M128.5052,229.7927 C128.1652,229.8877 127.8262,229.9707 127.4852,230.0417 C128.1052,228.0547 128.4992,226.0047 128.6642,223.9297 C128.6812,223.7047 128.6092,223.4827 128.4632,223.3117 C128.3162,223.1407 128.1082,223.0347 127.8852,223.0177 C127.4192,222.9847 127.0142,223.3327 126.9752,223.7977 C126.7982,226.0207 126.3422,228.2137 125.6152,230.3227 C125.2882,230.3507 124.9622,230.3697 124.6382,230.3777 C124.1702,230.3887 123.8002,230.7537 123.8112,231.2217 C123.8222,231.6817 124.1992,231.9997 124.6572,231.9997 L124.6782,231.9997 C124.7792,231.9997 124.8822,231.9917 124.9822,231.9887 C124.6482,232.7947 124.2772,233.5847 123.8712,234.3567 C123.6642,234.7687 123.8252,235.2707 124.2322,235.4857 C124.6412,235.7007 125.1462,235.5517 125.3692,235.1487 C125.9342,234.0747 126.4342,232.9687 126.8642,231.8347 C127.5732,231.7307 128.2752,231.5797 128.9662,231.3847 C129.4162,231.2577 129.6792,230.8347 129.5512,230.3837 C129.4252,229.9317 128.9572,229.6677 128.5052,229.7927 L128.5052,229.7927 Z M122.1162,231.9457 C122.5612,231.9457 122.9302,231.6007 122.9612,231.1577 C122.9932,230.7137 122.6762,230.3217 122.2352,230.2587 C120.5742,230.0197 118.9102,229.4787 117.2882,228.6517 C116.8712,228.4397 116.3602,228.6047 116.1482,229.0217 C115.9352,229.4387 116.1012,229.9497 116.5182,230.1627 C118.3062,231.0737 120.1482,231.6717 121.9932,231.9367 C122.0342,231.9427 122.0752,231.9457 122.1162,231.9457 L122.1162,231.9457 Z M108.7732,222.2067 C108.3852,222.4697 108.2842,222.9957 108.5462,223.3837 C109.4262,224.6827 110.6132,225.9627 112.0752,227.1837 C112.5962,227.6197 113.1342,228.0357 113.6862,228.4317 C114.0662,228.7037 114.5962,228.6157 114.8682,228.2347 C115.1412,227.8527 115.0522,227.3237 114.6712,227.0517 C114.1532,226.6807 113.6502,226.2907 113.1622,225.8827 C111.8212,224.7627 110.7412,223.6017 109.9502,222.4327 C109.6882,222.0467 109.1602,221.9447 108.7732,222.2067 L108.7732,222.2067 Z M108.5102,219.2387 C108.3562,218.5467 108.3102,217.8347 108.3742,217.1287 L109.1662,214.4967 C109.5232,213.8287 109.9722,213.2147 110.5002,212.6727 C110.8202,212.3357 110.8112,211.8047 110.4782,211.4807 C110.1462,211.1567 109.6142,211.1607 109.2862,211.4897 C107.0542,213.7797 106.1902,216.6647 106.8562,219.6117 C106.9662,220.0607 107.4152,220.3387 107.8652,220.2377 C108.3162,220.1357 108.6042,219.6917 108.5102,219.2387 L108.5102,219.2387 Z M113.1642,210.6447 C113.2832,210.6447 113.4032,210.6197 113.5192,210.5667 C115.7642,209.5317 118.2892,209.2937 120.4472,209.9147 C120.8982,210.0437 121.3672,209.7837 121.4962,209.3337 C121.6262,208.8847 121.3652,208.4147 120.9152,208.2847 C118.3722,207.5547 115.4182,207.8257 112.8102,209.0277 C112.4472,209.1937 112.2502,209.5897 112.3352,209.9787 C112.4212,210.3687 112.7662,210.6457 113.1642,210.6447 L113.1642,210.6447 Z M126.9172,219.1077 C126.9452,219.4137 127.1372,219.6797 127.4172,219.8047 C127.6982,219.9287 128.0242,219.8917 128.2702,219.7067 C128.5162,219.5227 128.6422,219.2197 128.6012,218.9157 C128.1692,215.1367 126.8292,212.2377 124.6172,210.2987 C124.2642,210.0087 123.7432,210.0507 123.4412,210.3947 C123.1412,210.7387 123.1662,211.2607 123.4992,211.5727 C125.3862,213.2257 126.5342,215.7607 126.9172,219.1077 L126.9172,219.1077 Z M123.0402,237.4357 C122.6552,237.1687 122.1282,237.2627 121.8602,237.6467 C120.4962,239.6067 118.8522,241.5217 116.9742,243.3357 C116.6372,243.6607 116.6272,244.1977 116.9522,244.5337 C117.2772,244.8707 117.8152,244.8807 118.1512,244.5547 C120.1092,242.6637 121.8252,240.6657 123.2522,238.6147 C123.3802,238.4307 123.4312,238.2027 123.3912,237.9817 C123.3512,237.7607 123.2252,237.5637 123.0402,237.4357 L123.0402,237.4357 Z M113.7822,246.1497 C112.1232,247.4827 110.3912,248.7197 108.5932,249.8557 C108.1972,250.1067 108.0792,250.6307 108.3302,251.0257 C108.5812,251.4217 109.1052,251.5387 109.5002,251.2877 C111.3532,250.1167 113.1382,248.8417 114.8462,247.4687 C115.0822,247.2787 115.1982,246.9767 115.1512,246.6777 C115.1052,246.3787 114.9012,246.1267 114.6192,246.0177 C114.3372,245.9087 114.0182,245.9587 113.7822,246.1497 L113.7822,246.1497 Z M105.8552,251.4947 C102.2582,253.5217 99.6112,254.5377 99.5852,254.5477 L100.1882,256.1317 C100.2992,256.0897 102.9712,255.0667 106.6882,252.9707 L105.8552,251.4947 Z" id="Fill-30" fill="#767E8D"></path>
                <path d="M104.9387,151.5 L79.9387,151.5 C78.8347,151.5 77.9387,150.604 77.9387,149.5 L77.9387,135.5 C77.9387,134.396 78.8347,133.5 79.9387,133.5 L104.9387,133.5 C106.0427,133.5 106.9387,134.396 106.9387,135.5 L106.9387,149.5 C106.9387,150.604 106.0427,151.5 104.9387,151.5" id="Fill-32" fill="#D6F0F9"></path>
                <path d="M104.9387,151.5 L79.9387,151.5 C78.8347,151.5 77.9387,150.604 77.9387,149.5 L77.9387,135.5 C77.9387,134.396 78.8347,133.5 79.9387,133.5 L104.9387,133.5 C106.0427,133.5 106.9387,134.396 106.9387,135.5 L106.9387,149.5 C106.9387,150.604 106.0427,151.5 104.9387,151.5 Z" id="Stroke-34" stroke="#757E8D" stroke-width="2"></path>
                <path d="M117.9387,137 L180.9387,138" id="Stroke-36" stroke="#757E8D" stroke-width="2" stroke-linecap="round" stroke-linejoin="round"></path>
                <path d="M117.9387,148 L154.9387,148" id="Stroke-38" stroke="#757E8D" stroke-width="2" stroke-linecap="round" stroke-linejoin="round"></path>
                <path d="M104.9387,180.5 L79.9387,180.5 C78.8347,180.5 77.9387,179.604 77.9387,178.5 L77.9387,164.5 C77.9387,163.396 78.8347,162.5 79.9387,162.5 L104.9387,162.5 C106.0427,162.5 106.9387,163.396 106.9387,164.5 L106.9387,178.5 C106.9387,179.604 106.0427,180.5 104.9387,180.5" id="Fill-40" fill="#D6F0F9"></path>
                <path d="M104.9387,180.5 L79.9387,180.5 C78.8347,180.5 77.9387,179.604 77.9387,178.5 L77.9387,164.5 C77.9387,163.396 78.8347,162.5 79.9387,162.5 L104.9387,162.5 C106.0427,162.5 106.9387,163.396 106.9387,164.5 L106.9387,178.5 C106.9387,179.604 106.0427,180.5 104.9387,180.5 Z" id="Stroke-42" stroke="#757E8D" stroke-width="2"></path>
                <path d="M117.9387,166 L180.9387,167" id="Stroke-44" stroke="#757E8D" stroke-width="2" stroke-linecap="round" stroke-linejoin="round"></path>
                <path d="M117.9387,177 L154.9387,177" id="Stroke-46" stroke="#757E8D" stroke-width="2" stroke-linecap="round" stroke-linejoin="round"></path>
            </g>
        </g>
    </g>
</svg>