<?xml version="1.0" encoding="UTF-8"?>
<svg width="62px" height="62px" viewBox="0 0 62 62" version="1.1" xmlns="http://www.w3.org/2000/svg" xmlns:xlink="http://www.w3.org/1999/xlink">
    <!-- Generator: Sketch 44 (41411) - http://www.bohemiancoding.com/sketch -->
    <title>lc_word_icon</title>
    <desc>Created with Sketch.</desc>
    <defs></defs>
    <g id="Page-1" stroke="none" stroke-width="1" fill="none" fill-rule="evenodd">
        <g id="6流程详情页_进行中" transform="translate(-36.000000, -1302.000000)" fill-rule="nonzero" fill="#77BCFA">
            <g id="Group-4" transform="translate(0.000000, 444.000000)">
                <g id="跳转-文-文-copy-3" transform="translate(23.000000, 782.000000)">
                    <g id="Group-2" transform="translate(13.000000, 74.000000)">
                        <g id="lc_word_icon" transform="translate(0.000000, 2.000000)">
                            <path d="M43.9759152,0.0287799018 L5.5228792,0.0287799018 C2.50489255,0.0287799018 0.0576277904,2.47877592 0.0576277904,5.50013092 L0.0576277904,56.5027466 C0.0576277904,59.5241723 2.50489248,61.9741684 5.5228792,61.9741684 L56.4686358,61.9741684 C59.4866931,61.9741684 61.9339579,59.5241724 61.9339579,56.5027466 L61.9339579,18.0060154 L43.9759152,0.0287799018 Z M58.8104418,19.3017517 L58.8104418,19.4235434 L46.6110393,19.4235434 C44.4584366,19.4235434 42.7075814,17.6699552 42.7075814,15.5151624 L42.7075814,3.17992796 L58.8104418,19.3017517 Z M56.4685651,58.8480159 L5.5228792,58.8480159 C4.23113367,58.8480159 3.18100248,57.7960046 3.18100248,56.5027465 L3.18100248,5.50013092 C3.18100248,4.20687292 4.23120438,3.15479077 5.5228792,3.15479077 L39.5590267,3.15479077 L39.5842774,3.15479077 L39.5842774,15.5151625 C39.5842774,19.394016 42.737005,22.5503332 46.6110393,22.5503332 L58.8104417,22.5503332 L58.8104417,56.5027466 C58.8104418,57.7960046 57.7603106,58.8480159 56.4685651,58.8480159 Z" id="Shape"></path>
                            <path d="M13.4126202,22.550404 L33.9999164,22.550404 C34.863037,22.550404 35.5620635,21.8498184 35.5620635,20.9873631 C35.5620635,20.1233501 34.863037,19.4235434 33.9999164,19.4235434 L13.4126202,19.4235434 C12.5503484,19.4235434 11.8513219,20.12335 11.8513219,20.9873631 C11.8513219,21.8498184 12.5502777,22.550404 13.4126202,22.550404 Z" id="Shape"></path>
                            <path d="M47.9958658,30.3916659 L13.4126202,30.3916659 C12.5503484,30.3916659 11.8513219,31.0914018 11.8513219,31.9546359 C11.8513219,32.8187198 12.5503484,33.5184556 13.4126202,33.5184556 L47.9958658,33.5184556 C48.8590571,33.5184556 49.5580836,32.818649 49.5580836,31.9547067 C49.5580836,31.0914017 48.8590571,30.3916659 47.9958658,30.3916659 Z" id="Shape"></path>
                            <path d="M47.9958658,41.3596467 L13.4126202,41.3596467 C12.5503484,41.3597175 11.8513219,42.0603739 11.8513219,42.9235373 C11.8513219,43.7868422 12.5503484,44.4865073 13.4126202,44.4865073 L47.9958658,44.4865073 C48.8590571,44.4865073 49.5580836,43.7868422 49.5580836,42.9235373 C49.5580836,42.0603739 48.8590571,41.3596467 47.9958658,41.3596467 Z" id="Shape"></path>
                        </g>
                    </g>
                </g>
            </g>
        </g>
    </g>
</svg>