<?xml version="1.0" encoding="UTF-8"?>
<svg width="62px" height="56px" viewBox="0 0 62 56" version="1.1" xmlns="http://www.w3.org/2000/svg" xmlns:xlink="http://www.w3.org/1999/xlink">
    <!-- Generator: Sketch 44 (41411) - http://www.bohemiancoding.com/sketch -->
    <title>lc_picture_icon</title>
    <desc>Created with Sketch.</desc>
    <defs>
        <polygon id="path-1" points="6.8131867e-05 55.7172683 61.9997275 55.7172683 61.9997275 9.70497395e-15 6.8131867e-05 0 6.8131867e-05 55.7172683"></polygon>
    </defs>
    <g id="Page-1" stroke="none" stroke-width="1" fill="none" fill-rule="evenodd">
        <g id="6流程详情页_进行中_展开" transform="translate(-35.000000, -1863.000000)">
            <g id="Group-4" transform="translate(0.000000, 999.000000)">
                <g id="跳转-文-文-copy-3" transform="translate(0.000000, 761.000000)">
                    <g id="Group-2" transform="translate(35.000000, 101.000000)">
                        <g id="lc_picture_icon" transform="translate(0.000000, 2.000000)">
                            <mask id="mask-2" fill="white">
                                <use xlink:href="#path-1"></use>
                            </mask>
                            <g id="Clip-2"></g>
                            <path d="M55.6477934,46.6252244 L21.676222,46.6252244 L21.676222,49.3569317 L55.6474527,49.3569317 L55.6477934,46.6252244 Z M34.0298923,43.1194195 L55.6477934,43.1194195 L55.6477934,40.3877122 L34.0298923,40.3877122 L34.0298923,43.1194195 Z M7.01765055,41.4121024 L18.4978703,32.7389317 L24.7319363,39.1584439 L40.1975297,23.6047854 L54.7099582,38.2023463 L56.549178,36.1535659 L40.2319363,19.7462488 L24.7319363,35.1291756 L18.7363319,29.1194195 L5.45061758,39.1584439 L7.01765055,41.4121024 Z M18.7588154,15.4762488 C18.7588154,17.2679073 17.3096505,18.7201512 15.5225516,18.7201512 C13.7351121,18.7201512 12.2862879,17.2679073 12.2862879,15.4762488 C12.2862879,13.6849317 13.7351121,12.2323463 15.5225516,12.2323463 C17.3099912,12.2323463 18.7588154,13.6849317 18.7588154,15.4762488 L18.7588154,15.4762488 Z M15.5225516,9.50063902 C12.2300791,9.50063902 9.56101319,12.1760049 9.56101319,15.4762488 C9.56101319,18.7764927 12.2300791,21.4518585 15.5225516,21.4518585 C18.8150242,21.4518585 21.4840901,18.7764927 21.4840901,15.4762488 C21.4840901,12.1760049 18.8150242,9.50063902 15.5225516,9.50063902 L15.5225516,9.50063902 Z M59.2744527,5.25283415 C59.2744527,3.76200488 58.0688593,2.55356585 56.5818813,2.55356585 L5.41825495,2.55356585 C3.93093626,2.55356585 2.72534286,3.76200488 2.72534286,5.25283415 L2.72534286,50.4639561 C2.72534286,51.9547854 3.93093626,53.1632244 5.41825495,53.1632244 L56.5818813,53.1632244 C58.0688593,53.1632244 59.2744527,51.9547854 59.2744527,50.4639561 L59.2744527,5.25283415 Z M61.9997275,52.1456634 C61.9997275,54.1182976 60.4047604,55.7173707 58.4367714,55.7173707 L3.56302418,55.7173707 C1.59537582,55.7173707 6.8131867e-05,54.1182976 6.8131867e-05,52.1456634 L6.8131867e-05,3.57146829 C6.8131867e-05,1.59883415 1.59537582,-0.00023902439 3.56302418,-0.00023902439 L58.4367714,-0.00023902439 C60.4047604,-0.00023902439 61.9997275,1.59883415 61.9997275,3.57146829 L61.9997275,52.1456634 Z" id="Fill-1" fill="#77BCFA" mask="url(#mask-2)"></path>
                        </g>
                    </g>
                </g>
            </g>
        </g>
    </g>
</svg>