<?xml version="1.0" encoding="UTF-8"?>
<svg width="21px" height="38px" viewBox="0 0 21 38" version="1.1" xmlns="http://www.w3.org/2000/svg" xmlns:xlink="http://www.w3.org/1999/xlink">
    <!-- Generator: Sketch 44 (41411) - http://www.bohemiancoding.com/sketch -->
    <title>Page 1</title>
    <desc>Created with Sketch.</desc>
    <defs></defs>
    <g id="Symbols" stroke="none" stroke-width="1" fill="none" fill-rule="evenodd">
        <g id="标题栏－右侧两个文案" transform="translate(-24.000000, -65.000000)" fill="#77BCFA">
            <g id="Page-1">
                <path d="M44.6809564,100.340676 L44.6831231,100.338474 L28.5966107,83.995667 L43.9074518,68.4419897 C43.9096185,68.4386879 43.9139519,68.4375873 43.9172019,68.4353861 L44.6831231,67.657262 C45.1056256,67.2269274 45.1056256,66.5302477 44.6831231,66.0999132 L43.9172019,65.3217891 C43.4946994,64.8936557 42.811112,64.8925551 42.3886095,65.3195879 L42.3864428,65.3173867 L26.298847,81.6612947 L26.2977637,81.6612947 L24,83.995667 L41.6107715,101.887018 C41.6140215,101.89032 41.6151049,101.895823 41.6194382,101.899125 L42.3853594,102.677249 C42.807862,103.107584 43.493616,103.107584 43.9172019,102.677249 L44.6831231,101.899125 C45.1056256,101.469891 45.1056256,100.773211 44.6831231,100.342877 L44.6809564,100.340676 Z"></path>
            </g>
        </g>
    </g>
</svg>