<?xml version="1.0" encoding="UTF-8"?>
<svg width="36px" height="35px" viewBox="0 0 36 35" version="1.1" xmlns="http://www.w3.org/2000/svg" xmlns:xlink="http://www.w3.org/1999/xlink">
    <!-- Generator: Sketch 44.1 (41455) - http://www.bohemiancoding.com/sketch -->
    <title>form_add_icon</title>
    <desc>Created with Sketch.</desc>
    <defs></defs>
    <g id="Page-1" stroke="none" stroke-width="1" fill="none" fill-rule="evenodd">
        <g id="5表单_所有控件_编辑1" transform="translate(-622.000000, -1785.000000)" fill="#8B939F">
            <g id="子表" transform="translate(0.000000, 1763.000000)">
                <g id="Group">
                    <g id="form_add_icon" transform="translate(622.000000, 22.000000)">
                        <g id="Group-3" transform="translate(0.051019, 0.036956)">
                            <path d="M13.554079,24.8735135 C16.8028942,24.8735135 20.0518091,24.8745637 23.3006243,24.8714632 C23.5586923,24.8712132 23.8183063,24.8547106 24.0743797,24.8231557 C24.5352119,24.766347 24.7639076,24.5560145 24.8334738,24.0994441 C24.8805993,23.7894462 24.9017933,23.4725473 24.9019429,23.1587489 C24.9056331,16.7541105 24.9051344,10.3495221 24.9030898,3.94488378 C24.9029901,3.68589381 24.8867829,3.42625374 24.8641926,3.16811391 C24.8153217,2.61237814 24.6102137,2.38234265 24.0658522,2.29172866 C23.8361591,2.25342275 23.5999832,2.23847044 23.3667495,2.23832042 C16.8320172,2.23557 10.2972849,2.23536996 3.76260251,2.23897052 C3.50518273,2.23917055 3.24531941,2.26597469 2.99099145,2.30748109 C2.57578861,2.37529156 2.36514522,2.57872295 2.3046052,2.99498719 C2.25583407,3.32988887 2.23015193,3.67119154 2.22995246,4.00959376 C2.22576353,10.3771764 2.22646169,16.7446591 2.22840655,23.1121917 C2.22850628,23.3712817 2.24321741,23.6309718 2.26500982,23.8891616 C2.3185683,24.5233095 2.54127979,24.7591459 3.16258802,24.8335573 C3.38824174,24.8605615 3.61703716,24.8716632 3.8443864,24.8718132 C7.08098385,24.8743136 10.3175813,24.8735135 13.554079,24.8735135 M13.569588,27.099107 C9.96935149,27.099107 6.36911493,27.099157 2.76902798,27.099057 C1.21543328,27.0990069 0.00577972736,25.8869699 0.00558025445,24.3242287 C0.00458288994,17.1469211 0.00463275817,9.96971354 0.00558025445,2.79245593 C0.00577972736,1.22201358 1.21722853,0.0130270103 2.78473647,0.0130270103 L24.3489042,0.0130270103 C25.9259869,0.0130270103 27.1306037,1.22041334 27.1310027,2.80805834 C27.1322993,8.10602593 27.1315014,13.4039435 27.1315014,18.7019111 C27.1315014,20.5750502 27.1328478,22.4481892 27.1310027,24.3212783 C27.1296562,25.6965905 26.1962228,26.8201139 24.8486836,27.066852 C24.6984306,27.0943562 24.5421436,27.0977568 24.3886492,27.0978068 C20.7822789,27.099407 17.1758586,27.099107 13.569588,27.099107" id="Fill-1"></path>
                        </g>
                        <g id="Group-6" transform="translate(21.289474, 21.690915) scale(-1, 1) translate(-21.289474, -21.690915) translate(7.289474, 7.690915)">
                            <path d="M13.5539294,27.1035977 C9.95404194,27.1035977 6.35415446,27.1036977 2.75426699,27.1035476 C1.22361167,27.1034476 0.00218921511,25.8903104 0.00169053285,24.3559736 C-0.00060340553,17.1608133 -0.000553537304,9.96550289 0.00164066463,2.77034252 C0.00213934688,1.23390542 1.22301325,0.0176177188 2.75097568,0.0175677111 C3.63244644,0.0175177033 4.5139172,0.0171676493 5.39538796,0.0176677265 C6.04766435,0.0180677882 6.52425498,0.489040469 6.52310801,1.13083951 C6.52201091,1.76118679 6.04367489,2.23180942 5.40566081,2.23861046 C4.68506495,2.24646168 3.96451896,2.26056385 3.24392309,2.27211564 C3.22547185,2.27246569 3.20692087,2.27341584 3.18856936,2.2751161 C2.57229783,2.33257497 2.32225855,2.58126334 2.2620676,3.21636135 C2.23703375,3.4804021 2.22411788,3.74669319 2.22401814,4.01188412 C2.22197355,10.3788167 2.22137513,16.7456492 2.22531472,23.1125317 C2.22551419,23.4386821 2.2502987,23.7671328 2.2950305,24.0901326 C2.3592109,24.5532041 2.59443932,24.7720879 3.06180433,24.8283965 C3.30585943,24.8578011 3.55285675,24.8759539 3.79850763,24.8760539 C10.3079069,24.8785543 16.817356,24.8784043 23.3268051,24.8763539 C23.5478709,24.8763039 23.7702333,24.8617517 23.9899527,24.8362978 C24.5778991,24.7681372 24.8251458,24.5260999 24.8572111,23.9281076 C24.8919193,23.2809577 24.8926175,22.6316075 24.8989009,21.9831075 C24.9055832,21.2898505 25.3943916,20.7784716 26.0441247,20.7978245 C26.7065742,20.8176776 27.1658606,21.3801644 27.1403779,22.0763718 C27.1126512,22.835589 27.1313518,23.5965064 27.1265145,24.3567738 C27.119134,25.5322052 26.3934516,26.5763663 25.2948047,26.9496239 C25.0143957,27.0448886 24.7052626,27.0964466 24.4091451,27.0972967 C20.7907066,27.1069982 17.172318,27.1035977 13.5539294,27.1035977" id="Fill-4"></path>
                        </g>
                        <path d="M12.2383446,14.8802363 L11.9926938,14.8802363 C10.3097907,14.8802363 8.62693759,14.8814865 6.94398471,14.8795862 C6.31125667,14.8788861 5.76071145,14.3998622 5.68461254,13.7919684 C5.59948748,13.1126136 5.98631531,12.5169216 6.62787003,12.3536964 C6.75134376,12.3223416 6.88359429,12.3152905 7.01175563,12.3150905 C8.67002374,12.3126401 10.328242,12.3134902 11.9865101,12.3134902 L12.2383446,12.3134902 L12.2383446,12.0672522 C12.2383446,10.3981447 12.2381452,8.72908708 12.2384444,7.06002951 C12.2385441,6.29276111 12.7841025,5.72557358 13.5211549,5.72547356 C14.2567611,5.72537355 14.8049625,6.29411131 14.8053115,7.06082963 C14.8060596,8.7298872 14.805511,10.3989448 14.805511,12.0680023 L14.805511,12.3135402 L15.0581435,12.3135402 C16.7409966,12.3135402 18.4238996,12.3114899 20.1068026,12.3146404 C20.7370373,12.3158406 21.2666378,12.7767617 21.3567996,13.3883561 C21.4513497,14.0301051 21.0821752,14.6358486 20.4744811,14.8180267 C20.3410337,14.8580329 20.1965156,14.8773859 20.0568845,14.8776859 C18.386299,14.8816866 16.7157134,14.8802863 15.0451278,14.8802863 L14.805511,14.8802863 L14.805511,15.1142224 C14.805511,16.7956819 14.8088522,18.4770914 14.8035662,20.1585509 C14.8018706,20.7095859 14.5503353,21.1280005 14.0456689,21.3506849 C13.5534196,21.5678684 13.0772778,21.4974075 12.6661143,21.1394023 C12.3769284,20.8875634 12.2383446,20.5572624 12.2383446,20.1710028 C12.2384444,18.4833924 12.2383945,16.7958319 12.2383945,15.1082215 C12.2383446,15.0409111 12.2383446,14.9736507 12.2383446,14.8802363" id="Fill-7"></path>
                    </g>
                </g>
            </g>
        </g>
    </g>
</svg>