<?xml version="1.0" encoding="UTF-8"?>
<svg width="36px" height="36px" viewBox="0 0 36 36" version="1.1" xmlns="http://www.w3.org/2000/svg" xmlns:xlink="http://www.w3.org/1999/xlink">
    <!-- Generator: Sketch 44.1 (41455) - http://www.bohemiancoding.com/sketch -->
    <title>form_delete_icon</title>
    <desc>Created with Sketch.</desc>
    <defs></defs>
    <g id="Page-1" stroke="none" stroke-width="1" fill="none" fill-rule="evenodd">
        <g id="5表单_所有控件_编辑1" transform="translate(-685.000000, -1785.000000)" stroke-width="0.4" stroke="#8B939F" fill="#8B939F">
            <g id="子表" transform="translate(0.000000, 1763.000000)">
                <g id="Group">
                    <path d="M698.277769,51.3333472 L700.166653,51.3333472 L700.166653,32.4444629 L698.277769,32.4444629 L698.277769,51.3333472 Z M705.833347,51.3333472 L707.722231,51.3333472 L707.722231,32.4444629 L705.833347,32.4444629 L705.833347,51.3333472 Z M714.333347,28.6666528 L691.666653,28.6666528 L691.666653,53.2222314 C691.666653,54.0760083 692.70176,55.1110742 693.555537,55.1110742 L712.444463,55.1110742 C713.29824,55.1110742 714.333347,54.0760083 714.333347,53.2222314 L714.333347,28.6666528 Z M703,24.8888843 C702.478669,24.8888843 702.055537,25.3120166 702.055537,25.8333472 C702.055537,26.3546777 702.478669,26.7777686 703,26.7777686 C703.521331,26.7777686 703.944463,26.3546777 703.944463,25.8333472 C703.944463,25.3120166 703.521331,24.8888843 703,24.8888843 L703,24.8888843 Z M719.055537,28.6666528 L716.222231,28.6666528 L716.222231,54.1666943 C716.222231,55.8732935 715.096438,57 713.388884,57 L692.611116,57 C690.904517,57 689.777769,55.8732935 689.777769,54.1666943 L689.777769,28.6666528 L686.944421,28.6666528 C686.090686,28.6666528 686,28.221814 686,27.7222314 C686,27.2528223 686.090686,26.7777686 686.944421,26.7777686 L700.166653,26.7777686 L700.166653,24.8888843 C700.166653,24.0351074 701.20176,23 702.055537,23 L703.944463,23 C704.79824,23 705.833347,24.1238843 705.833347,24.8888843 L705.833347,26.7777686 L719.055537,26.7777686 C719.909314,26.7777686 720,27.2226074 720,27.7222314 C720,28.2511157 719.909314,28.6666528 719.055537,28.6666528 L719.055537,28.6666528 Z" id="form_delete_icon"></path>
                </g>
            </g>
        </g>
    </g>
</svg>