<?xml version="1.0" encoding="UTF-8"?>
<svg width="31px" height="17px" viewBox="0 0 31 17" version="1.1" xmlns="http://www.w3.org/2000/svg" xmlns:xlink="http://www.w3.org/1999/xlink">
    <!-- Generator: Sketch 44 (41411) - http://www.bohemiancoding.com/sketch -->
    <title>xianshi</title>
    <desc>Created with Sketch.</desc>
    <defs></defs>
    <g id="Page-1" stroke="none" stroke-width="1" fill="none" fill-rule="evenodd">
        <g id="9登录页-提示" transform="translate(-564.000000, -726.000000)" fill-rule="nonzero" fill="#77BCFA">
            <g id="xianshi" transform="translate(564.000000, 726.000000)">
                <path d="M15.5,0.0160363024 C9.83844276,0.0160363024 5.42383011,3.25222754 0.0101318052,8.49995855 C4.67260343,12.9831678 8.58376198,16.9839223 15.5,16.9839223 C22.4084587,16.9839223 27.4891572,11.9217507 30.9898682,8.5964661 C27.4117094,4.69967469 22.3310108,0.0160363024 15.5,0.0160363024 L15.5,0.0160363024 M15.5,14.5493648 C12.0845162,14.5493648 9.30404406,11.8326988 9.30404406,8.5 C9.30404406,5.15984575 12.0845162,2.45063524 15.5,2.45063524 C18.9154838,2.45063524 21.6959559,5.16730122 21.6959559,8.5 C21.6959559,11.8401128 18.9154838,14.5493648 15.5,14.5493648 L15.5,14.5493648" id="Shape"></path>
                <path d="M15.5,6.37716592 C15.5,5.85014374 15.7013557,5.37510307 16.0266625,5.00398404 C15.8562946,4.97432766 15.6781473,4.96687215 15.5,4.96687215 C13.5095649,4.96687215 11.8831173,6.54789729 11.8831173,8.50000004 C11.8831173,10.4521442 13.5095217,12.0331279 15.5,12.0331279 C17.4904783,12.0331279 19.1168827,10.4521442 19.1168827,8.50000004 C19.1168827,8.34409689 19.1014104,8.19569069 19.0859382,8.03982898 C18.7064352,8.32189602 18.2340121,8.50000004 17.7150857,8.50000004 C16.4913495,8.5 15.5,7.54987725 15.5,6.37716592 L15.5,6.37716592" id="Shape"></path>
            </g>
        </g>
    </g>
</svg>