<?xml version="1.0" encoding="UTF-8"?>
<svg width="28px" height="13px" viewBox="0 0 28 13" version="1.1" xmlns="http://www.w3.org/2000/svg" xmlns:xlink="http://www.w3.org/1999/xlink">
    <!-- Generator: Sketch 44 (41411) - http://www.bohemiancoding.com/sketch -->
    <title>login-3_icon</title>
    <desc>Created with Sketch.</desc>
    <defs>
        <polygon id="path-1" points="27.9666973 1.60199774e-05 27.9666973 12.9985154 13.9833506 12.9985154 3.96105725e-06 12.9985154 3.96105725e-06 1.60199774e-05 27.9666973 1.60199774e-05"></polygon>
    </defs>
    <g id="Page-1" stroke="none" stroke-width="1" fill="none" fill-rule="evenodd">
        <g id="9登录页-" transform="translate(-567.000000, -728.000000)">
            <g id="login-3_icon" transform="translate(567.000000, 728.000000)">
                <mask id="mask-2" fill="white">
                    <use xlink:href="#path-1"></use>
                </mask>
                <g id="Clip-2"></g>
                <path d="M27.7922336,1.60899074 C28.0923197,1.15940741 27.9922508,0.559962963 27.5921762,0.210287037 C27.1420069,-0.139388889 26.5418749,-0.0394814815 26.1917745,0.410101852 C26.1417199,0.460055556 20.5901676,7.00403086 13.9881532,7.00403086 C7.58631679,7.00403086 1.78461234,0.410101852 1.73459799,0.360148148 C1.38445739,-0.0394814815 0.734311047,-0.0894351852 0.334156098,0.260240741 C-0.0659586801,0.609916667 -0.115973027,1.25931481 0.234127403,1.65898457 C0.334156098,1.80880556 1.53450043,3.15755556 3.43504562,4.65620679 L0.884273745,7.30375309 C0.484158967,7.70338272 0.534173314,8.35278086 0.934288092,8.70245679 C1.03431679,8.9022716 1.28438852,9.00221914 1.53450043,9.00221914 C1.78453199,9.00221914 2.0346439,8.9022716 2.23470129,8.70245679 L4.98549039,5.85509568 C6.28586341,6.75430247 7.83630818,7.60351543 9.53683615,8.20295988 L8.48649469,11.749713 C8.33649182,12.2991636 8.63657791,12.8486543 9.18673572,12.9985154 L9.48678164,12.9985154 C9.93691076,12.9985154 10.3370657,12.6987932 10.4370542,12.2492099 L11.4873555,8.70245679 C12.2875851,8.8523179 13.1378692,8.95226543 13.9881131,8.95226543 C14.8383168,8.95226543 15.6886009,8.8523179 16.4888706,8.70245679 L17.5391317,12.1992562 C17.6392006,12.6488395 18.0893297,12.9485617 18.4894445,12.9485617 C18.5894732,12.9485617 18.6895019,12.9485617 18.7395162,12.898608 C19.289674,12.7487068 19.5897199,12.1992562 19.4397572,11.6497654 L18.3894158,8.15296605 C20.0899438,7.55348148 21.6403885,6.70426852 22.9407214,5.80514198 L25.6415765,8.60254938 C25.8416339,8.8023642 26.0916654,8.9022716 26.3417372,8.9022716 C26.5918089,8.9022716 26.8419208,8.8023642 27.041938,8.60258951 C27.4420528,8.20291975 27.4420528,7.60351543 27.0919524,7.20384568 L24.5411805,4.55629938 C26.5918491,3.05764815 27.7922336,1.60899074 27.7922336,1.60899074" id="Fill-1" fill="#8B939F" mask="url(#mask-2)"></path>
            </g>
        </g>
    </g>
</svg>