<?xml version="1.0" encoding="UTF-8"?>
<svg width="28px" height="28px" viewBox="0 0 28 28" version="1.1" xmlns="http://www.w3.org/2000/svg" xmlns:xlink="http://www.w3.org/1999/xlink">
    <!-- Generator: Sketch 44 (41411) - http://www.bohemiancoding.com/sketch -->
    <title>shezhi</title>
    <desc>Created with Sketch.</desc>
    <defs></defs>
    <g id="Page-1" stroke="none" stroke-width="1" fill="none" fill-rule="evenodd">
        <g id="9登录页-" transform="translate(-478.000000, -803.000000)" fill-rule="nonzero" fill="#77BCFA">
            <g id="Group" transform="translate(131.000000, 799.000000)">
                <g id="Group-3" transform="translate(347.000000, 1.000000)">
                    <g id="shezhi" transform="translate(0.000000, 3.000000)">
                        <path d="M13.9998234,19.8067025 C10.8076763,19.8067025 8.21095186,17.2106244 8.21095186,14.0196598 C8.21095186,10.8286953 10.8076763,8.2328522 13.9998234,8.2328522 C17.1920098,8.2328522 19.7890481,10.8286953 19.7890481,14.0196598 C19.7890481,17.2106243 17.1919706,19.8067025 13.9998234,19.8067025 M13.9998234,10.1407575 C11.8602804,10.1407575 10.1194909,11.8809276 10.1194909,14.0196598 C10.1194909,16.1586271 11.8602804,17.8988363 13.9998234,17.8988363 C16.1396804,17.8988363 17.8805091,16.1586271 17.8805091,14.0196598 C17.8805091,11.8809276 16.1396804,10.1407575 13.9998234,10.1407575" id="Shape"></path>
                        <path d="M16.185787,1.90786619 L16.185787,3.18176121 C16.185787,4.11713102 16.7445991,4.95251761 17.6088136,5.31050688 C17.8882876,5.4266827 18.1880967,5.48630644 18.4908429,5.4859181 C19.1065918,5.4859181 19.6854162,5.24624034 20.1205841,4.81109992 L20.9375148,3.99458989 L24.0286591,7.08467047 L23.2119638,7.90118049 C22.5504222,8.56256576 22.3543416,9.54826004 22.7124428,10.4121965 C23.0702693,11.2764071 23.9061528,11.8346369 24.8416658,11.8346369 L26.0766167,11.8346369 L26.0766167,16.2049569 L24.8416658,16.2049569 C23.9061528,16.2049569 23.0702693,16.7631868 22.7124428,17.6271232 C22.3543023,18.4913338 22.5504222,19.4769498 23.2119638,20.138335 L24.0286591,20.9549234 L20.9375148,24.0450431 L20.1205841,23.2284547 C19.6854162,22.7933535 19.1065918,22.5536757 18.4908429,22.5536757 C18.1880985,22.5533061 17.8882931,22.6129291 17.6088136,22.729087 C16.7446383,23.0867237 16.185787,23.9224237 16.185787,24.8577543 L16.185787,26.0919772 L11.8141738,26.0919772 L11.8141738,24.8577543 C11.8141738,23.9223453 11.2556364,23.0866846 10.3914218,22.7290478 C10.1118485,22.6128823 9.81195181,22.5532598 9.50911786,22.5536366 C8.89368288,22.5536366 8.31454458,22.7933143 7.87945512,23.2284156 L7.06240671,24.0450039 L3.9713017,20.9548842 L4.78803619,20.1382958 C5.44957778,19.4769106 5.64565841,18.4912946 5.28755721,17.6273973 C4.92973066,16.7631476 4.09384721,16.2049178 3.15829499,16.2049178 L1.923658,16.2049178 L1.923658,11.8346369 L3.15833422,11.8346369 C4.09388644,11.8346369 4.92980912,11.2764071 5.28759644,10.4121965 C5.64569767,9.54826004 5.44961704,8.56260489 4.78807542,7.90118049 L3.97134093,7.08467047 L7.06244595,3.99458989 L7.87949436,4.81109992 C8.31462307,5.24624034 8.89372211,5.4859181 9.5091571,5.4859181 C9.81189174,5.4863179 10.1116902,5.42669362 10.3911472,5.31050688 C11.2556756,4.95251761 11.814213,4.11713102 11.814213,3.18176121 L11.814213,1.90786619 L16.185787,1.90786619 Z M16.185787,0 L11.8141738,0 C10.7643949,0 9.90559551,0.977626727 9.90559548,2.02700012 L9.90559548,3.18176121 C9.90559548,3.34232965 9.8088697,3.48660624 9.66085767,3.54805303 C9.61192581,3.56830031 9.56040411,3.57805191 9.50911786,3.57805191 C9.40395868,3.57813589 9.30310183,3.53638925 9.22886814,3.46205103 L8.41185896,2.64554101 C8.04084789,2.27439297 7.5516469,2.08899518 7.06236748,2.08899518 C6.57312726,2.08899518 6.08420099,2.27439297 5.71291521,2.64554101 L2.62153553,5.73562158 C1.87951337,6.4775652 1.87951337,7.69204991 2.62153553,8.43375854 L3.43854471,9.25026854 C3.55186588,9.36379622 3.58573996,9.53416406 3.52444033,9.68227594 C3.46320971,9.83021899 3.31867603,9.92674731 3.15829499,9.92680989 L2.00296137,9.92680989 C0.953535644,9.92680989 0.0151189315,10.7853027 0.0151189315,11.8346761 L0.0151189315,16.2049961 C0.0151189315,17.2543303 0.953535644,18.1128623 2.00296137,18.1128622 L3.15833422,18.1128622 C3.31871528,18.1129248 3.46324898,18.2094532 3.52447959,18.3573962 C3.58573271,18.5053933 3.55194737,18.6759875 3.43858395,18.7894036 L2.62157477,19.6059528 C1.8795526,20.3478964 1.8795526,21.562107 2.62157477,22.3040897 L5.71295447,25.3941311 C6.08424022,25.765005 6.57316652,25.950677 7.06240671,25.950677 C7.55168616,25.950677 8.04088712,25.765005 8.41189819,25.3941311 L9.22890737,24.5776211 C9.34221127,24.4643711 9.5127278,24.430424 9.6608969,24.4916191 C9.8090793,24.5532398 9.90561227,24.6977332 9.90563471,24.8579501 L9.90563471,26.0127112 C9.90563471,27.0618105 10.7644341,28 11.814213,28 L16.185787,28 C17.2355266,28 18.094326,27.0617713 18.094326,26.0127112 L18.094326,24.8579501 C18.094326,24.6976166 18.1907771,24.5531051 18.3390639,24.4916191 C18.3871683,24.4717357 18.438737,24.4615406 18.4908037,24.4616202 C18.5959387,24.4616572 18.696751,24.5033853 18.7710534,24.5776211 L19.5877879,25.3941311 C19.9591129,25.765005 20.4483139,25.950677 20.9375148,25.950677 C21.4264804,25.950677 21.9160345,25.765005 22.2870455,25.3941311 L25.378386,22.3040897 C26.1204082,21.562107 26.1204082,20.3478964 25.378386,19.6059528 L24.5614161,18.7894036 C24.4480754,18.6758863 24.4141989,18.505506 24.4755204,18.3573962 C24.5367284,18.2094523 24.6812533,18.1129195 24.8416265,18.1128622 L25.9970386,18.1128622 C27.0464644,18.1128622 27.9848811,17.2543695 27.9848811,16.2049961 L27.9848811,11.8346369 C27.9848811,10.7853027 27.0464644,9.92677071 25.9970386,9.92677074 L24.8416265,9.92677074 C24.6812533,9.9267135 24.5367284,9.83018069 24.4755204,9.68223676 C24.4142208,9.53412488 24.4480949,9.36375705 24.5614161,9.25022938 L25.378386,8.43371936 C26.1204082,7.69204989 26.1204082,6.47752602 25.378386,5.7355824 L22.2870455,2.64550185 C21.9160345,2.27435381 21.4264803,2.08895602 20.9375148,2.08895602 C20.4482746,2.08895602 19.9590736,2.27435381 19.5877879,2.64550185 L18.7710141,3.46201185 C18.6968002,3.53637946 18.5959305,3.57813141 18.4907644,3.57801276 C18.4394782,3.57801276 18.3879957,3.56830034 18.3390639,3.54801387 C18.1907519,3.48658683 18.0941358,3.34202303 18.0942868,3.18176121 L18.0942868,2.02696096 C18.0942868,0.977626727 17.2355266,0 16.185787,0 L16.185787,0 Z" id="Shape"></path>
                    </g>
                </g>
            </g>
        </g>
    </g>
</svg>